<svg xmlns="http://www.w3.org/2000/svg" xmlns:xlink="http://www.w3.org/1999/xlink" width="1080" zoomAndPan="magnify" viewBox="0 0 810 809.999993" height="1080" preserveAspectRatio="xMidYMid meet" version="1.0"><path fill="#ffffff" d="M 571.554688 60.171875 C 595.902344 49.410156 627.097656 63.457031 635.734375 88.550781 C 658.351562 144.609375 680.453125 200.894531 703.316406 256.902344 C 721.21875 256.902344 741.9375 255.058594 755.699219 269.105469 C 783.097656 292.992188 767.726562 332.59375 773.769531 363.839844 L 773.769531 650.175781 C 767.550781 681.144531 783.554688 722.117188 755.699219 745.371094 C 740.675781 760.445312 718.171875 757.339844 698.882812 757.574219 C 495.28125 757.285156 291.625 757.574219 88.023438 757.460938 C 65.628906 758.667969 45.3125 741.804688 39.148438 720.742188 C 38.632812 697.59375 37.546875 651.316406 36.96875 628.1875 L 36.96875 365.730469 C 42.316406 330.742188 26.257812 282.386719 64.824219 261.671875 C 233.542969 194.105469 402.664062 127.335938 571.554688 60.171875 Z M 70.875 291.085938 C 68.339844 310.136719 69.144531 329.355469 69.210938 348.519531 C 293.363281 348.6875 517.515625 348.632812 741.660156 348.578125 C 741.488281 333.097656 742.0625 317.664062 741.3125 302.242188 C 742.574219 294.125 736.1875 287.335938 728.132812 287.914062 C 526.429688 287.511719 324.726562 287.859375 123.035156 287.746094 C 105.578125 287.398438 87.964844 287.054688 70.875 291.085938 Z M 69.203125 472.902344 C 69.3125 552.671875 68.855469 632.445312 69.371094 712.214844 C 67.640625 723.78125 79.613281 728.09375 88.9375 726.777344 C 300.023438 726.71875 511.109375 726.777344 722.191406 726.777344 C 731.285156 727.980469 743.089844 723.671875 741.304688 712.324219 C 741.9375 632.5 741.414062 552.664062 741.535156 472.894531 C 517.441406 472.902344 293.296875 472.902344 69.203125 472.902344 Z M 69.203125 472.902344 " fill-opacity="1" fill-rule="nonzero"/><path fill="#ffffff" d="M 516.953125 635.605469 C 500.492188 601.765625 526.515625 560.144531 561.507812 552.609375 C 578.777344 548.007812 596.5 554.394531 610.839844 563.886719 C 622.925781 558.304688 634.898438 551 648.660156 551.054688 C 681.699219 550.710938 711.921875 580.808594 711.40625 613.90625 C 710.3125 646.136719 680.839844 674.859375 648.492188 674.398438 C 634.910156 674.34375 622.9375 667.207031 611.1875 661.277344 C 580.617188 687.121094 531.40625 671.519531 516.953125 635.605469 Z M 542.632812 614.140625 C 540.84375 639.75 574.867188 652.933594 593.058594 637.101562 C 586.558594 620.753906 587.53125 603.261719 592.890625 586.800781 C 572.039062 573.625 539.058594 587.035156 542.632812 614.140625 Z M 632.710938 585.59375 C 611.007812 599.644531 615.957031 638.542969 642.382812 642.976562 C 663.570312 649.015625 685.273438 629.910156 680.4375 607.984375 C 679.632812 584.792969 650.90625 575.578125 632.710938 585.59375 Z M 632.710938 585.59375 " fill-opacity="1" fill-rule="nonzero"/><path fill="#ffffff" d="M 133.425781 598.371094 C 211.710938 596.296875 290.171875 597.734375 368.570312 597.679688 C 388.195312 596.183594 388.429688 629.910156 368.335938 627.898438 C 291.605469 628.1875 214.816406 628.535156 138.085938 627.785156 C 122.023438 628.589844 118.574219 603.261719 133.425781 598.371094 Z M 133.425781 598.371094 " fill-opacity="1" fill-rule="nonzero"/><path fill="#ffffff" d="M 133.425781 645.089844 C 211.710938 643.011719 290.171875 644.453125 368.570312 644.394531 C 388.195312 642.898438 388.429688 676.625 368.335938 674.617188 C 291.605469 674.90625 214.816406 675.25 138.085938 674.503906 C 122.023438 675.308594 118.574219 649.980469 133.425781 645.089844 Z M 133.425781 645.089844 " fill-opacity="1" fill-rule="nonzero"/><path fill="#ffffff" d="M 133.425781 542.957031 C 211.710938 540.878906 290.171875 542.320312 368.570312 542.265625 C 388.195312 540.765625 388.429688 574.492188 368.335938 572.484375 C 291.605469 572.773438 214.816406 573.117188 138.085938 572.371094 C 122.023438 573.175781 118.574219 547.847656 133.425781 542.957031 Z M 133.425781 542.957031 " fill-opacity="1" fill-rule="nonzero"/></svg>