<svg xmlns="http://www.w3.org/2000/svg" xmlns:xlink="http://www.w3.org/1999/xlink" width="240" zoomAndPan="magnify" viewBox="0 0 180 89.999999" height="120" preserveAspectRatio="xMidYMid meet" version="1.0"><defs><g/></defs><g fill="#ffffff" fill-opacity="1"><g transform="translate(26.480744, 34.375117)"><g><path d="M 17.671875 -30.390625 C 17.984375 -29.941406 18.164062 -29.410156 18.21875 -28.796875 C 18.332031 -27.878906 18.429688 -26.960938 18.515625 -26.046875 C 18.597656 -25.140625 18.613281 -24.222656 18.5625 -23.296875 C 18.5625 -22.515625 18.53125 -21.738281 18.46875 -20.96875 C 18.414062 -20.195312 18.363281 -19.4375 18.3125 -18.6875 C 18.28125 -18.207031 18.234375 -17.726562 18.171875 -17.25 C 18.117188 -16.78125 18.066406 -16.304688 18.015625 -15.828125 C 17.929688 -14.960938 17.597656 -14.1875 17.015625 -13.5 C 16.441406 -12.8125 15.722656 -12.382812 14.859375 -12.21875 C 14.328125 -12.101562 13.796875 -12.015625 13.265625 -11.953125 C 12.734375 -11.898438 12.203125 -11.847656 11.671875 -11.796875 C 11.304688 -11.765625 10.941406 -11.75 10.578125 -11.75 C 10.210938 -11.75 9.835938 -11.722656 9.453125 -11.671875 C 9.335938 -11.671875 9.226562 -11.660156 9.125 -11.640625 C 9.03125 -11.628906 8.925781 -11.613281 8.8125 -11.59375 C 8.789062 -11.507812 8.769531 -11.421875 8.75 -11.328125 C 8.738281 -11.242188 8.734375 -11.160156 8.734375 -11.078125 C 8.734375 -10.578125 8.734375 -10.066406 8.734375 -9.546875 C 8.734375 -9.035156 8.734375 -8.515625 8.734375 -7.984375 C 8.734375 -7.722656 8.722656 -7.457031 8.703125 -7.1875 C 8.691406 -6.925781 8.6875 -6.65625 8.6875 -6.375 C 8.71875 -5.738281 8.773438 -5 8.859375 -4.15625 C 8.941406 -3.3125 8.945312 -2.488281 8.875 -1.6875 C 8.8125 -0.894531 8.539062 -0.222656 8.0625 0.328125 C 7.695312 0.773438 7.226562 1.085938 6.65625 1.265625 C 6.082031 1.453125 5.515625 1.546875 4.953125 1.546875 C 4.140625 1.546875 3.457031 1.5 2.90625 1.40625 C 2.363281 1.3125 1.957031 1.050781 1.6875 0.625 C 1.425781 0.207031 1.296875 -0.488281 1.296875 -1.46875 C 1.296875 -3.425781 1.316406 -5.378906 1.359375 -7.328125 C 1.398438 -9.273438 1.394531 -11.210938 1.34375 -13.140625 C 1.3125 -14.535156 1.34375 -15.929688 1.4375 -17.328125 C 1.539062 -18.734375 1.648438 -20.125 1.765625 -21.5 C 1.796875 -21.800781 1.8125 -22.09375 1.8125 -22.375 C 1.8125 -22.65625 1.820312 -22.9375 1.84375 -23.21875 C 1.84375 -23.582031 1.84375 -23.929688 1.84375 -24.265625 C 1.84375 -24.597656 1.84375 -24.945312 1.84375 -25.3125 C 1.757812 -25.3125 1.675781 -25.3125 1.59375 -25.3125 C 1.507812 -25.3125 1.410156 -25.3125 1.296875 -25.3125 C 1.191406 -25.34375 1.070312 -25.367188 0.9375 -25.390625 C 0.8125 -25.421875 0.695312 -25.46875 0.59375 -25.53125 C 0.445312 -25.632812 0.347656 -25.816406 0.296875 -26.078125 C 0.148438 -26.460938 0.0703125 -26.875 0.0625 -27.3125 C 0.0507812 -27.75 0.046875 -28.175781 0.046875 -28.59375 C 0.046875 -28.789062 0.0507812 -28.976562 0.0625 -29.15625 C 0.0703125 -29.34375 0.078125 -29.519531 0.078125 -29.6875 C 0.078125 -30.664062 0.242188 -31.328125 0.578125 -31.671875 C 0.921875 -32.023438 1.566406 -32.226562 2.515625 -32.28125 C 3.160156 -32.3125 3.796875 -32.332031 4.421875 -32.34375 C 5.054688 -32.363281 5.679688 -32.382812 6.296875 -32.40625 C 6.347656 -32.40625 6.410156 -32.40625 6.484375 -32.40625 C 6.554688 -32.40625 6.617188 -32.40625 6.671875 -32.40625 C 7.003906 -32.40625 7.335938 -32.40625 7.671875 -32.40625 C 8.015625 -32.40625 8.351562 -32.40625 8.6875 -32.40625 C 9.582031 -32.40625 10.476562 -32.390625 11.375 -32.359375 C 12.269531 -32.335938 13.164062 -32.269531 14.0625 -32.15625 C 14.539062 -32.101562 15.007812 -31.984375 15.46875 -31.796875 C 15.925781 -31.617188 16.367188 -31.375 16.796875 -31.0625 C 16.929688 -30.957031 17.078125 -30.847656 17.234375 -30.734375 C 17.390625 -30.617188 17.535156 -30.503906 17.671875 -30.390625 Z M 12.890625 -20.15625 C 12.972656 -20.6875 13.019531 -21.21875 13.03125 -21.75 C 13.050781 -22.28125 13.0625 -22.8125 13.0625 -23.34375 C 13.0625 -23.375 13.0625 -23.394531 13.0625 -23.40625 C 13.0625 -23.414062 13.0625 -23.421875 13.0625 -23.421875 C 13.03125 -23.617188 13.015625 -23.804688 13.015625 -23.984375 C 13.015625 -24.171875 12.988281 -24.347656 12.9375 -24.515625 C 12.757812 -24.992188 12.488281 -25.300781 12.125 -25.4375 C 11.769531 -25.582031 11.378906 -25.65625 10.953125 -25.65625 C 10.898438 -25.65625 10.832031 -25.65625 10.75 -25.65625 C 10.664062 -25.65625 10.59375 -25.65625 10.53125 -25.65625 C 9.726562 -25.65625 9.175781 -25.539062 8.875 -25.3125 C 8.582031 -25.09375 8.394531 -24.59375 8.3125 -23.8125 C 8.28125 -23.101562 8.269531 -22.390625 8.28125 -21.671875 C 8.300781 -20.960938 8.285156 -20.242188 8.234375 -19.515625 C 8.171875 -18.679688 8.546875 -18.234375 9.359375 -18.171875 C 9.671875 -18.171875 9.992188 -18.1875 10.328125 -18.21875 C 10.660156 -18.25 10.96875 -18.289062 11.25 -18.34375 C 11.8125 -18.425781 12.203125 -18.613281 12.421875 -18.90625 C 12.648438 -19.207031 12.804688 -19.625 12.890625 -20.15625 Z M 12.890625 -20.15625 "/></g></g></g><g fill="#ffffff" fill-opacity="1"><g transform="translate(45.917813, 34.375117)"><g><path d="M 20.65625 -3.859375 C 20.789062 -2.515625 20.9375 -1.171875 21.09375 0.171875 C 21.25 1.515625 21.394531 2.859375 21.53125 4.203125 C 21.59375 4.566406 21.613281 4.941406 21.59375 5.328125 C 21.582031 5.722656 21.453125 6.070312 21.203125 6.375 C 21.035156 6.570312 20.820312 6.726562 20.5625 6.84375 C 20.3125 6.957031 20.0625 7.039062 19.8125 7.09375 C 19.5625 7.144531 19.3125 7.1875 19.0625 7.21875 C 18.8125 7.25 18.5625 7.265625 18.3125 7.265625 C 17.582031 7.265625 16.875 7.1875 16.1875 7.03125 C 15.5 6.875 14.988281 6.421875 14.65625 5.671875 C 14.539062 5.359375 14.441406 5.046875 14.359375 4.734375 C 14.273438 4.429688 14.207031 4.140625 14.15625 3.859375 C 14.0625 3.410156 13.972656 2.96875 13.890625 2.53125 C 13.804688 2.101562 13.738281 1.664062 13.6875 1.21875 C 13.632812 1.050781 13.609375 0.910156 13.609375 0.796875 C 13.523438 0.398438 13.453125 -0.0195312 13.390625 -0.46875 C 13.335938 -0.914062 13.1875 -1.304688 12.9375 -1.640625 C 12.757812 -1.859375 12.585938 -2.007812 12.421875 -2.09375 C 12.253906 -2.175781 12.070312 -2.21875 11.875 -2.21875 C 11.769531 -2.21875 11.648438 -2.210938 11.515625 -2.203125 C 11.390625 -2.191406 11.257812 -2.171875 11.125 -2.140625 C 11.09375 -2.140625 11.050781 -2.140625 11 -2.140625 C 10.945312 -2.140625 10.890625 -2.140625 10.828125 -2.140625 C 10.460938 -2.140625 10.078125 -2.160156 9.671875 -2.203125 C 9.265625 -2.242188 8.867188 -2.28125 8.484375 -2.3125 C 8.453125 -2.3125 8.421875 -2.316406 8.390625 -2.328125 C 8.367188 -2.335938 8.328125 -2.34375 8.265625 -2.34375 C 8.097656 -2.34375 7.972656 -2.289062 7.890625 -2.1875 C 7.835938 -2.15625 7.800781 -2.097656 7.78125 -2.015625 C 7.769531 -1.929688 7.75 -1.863281 7.71875 -1.8125 C 7.582031 -1.132812 7.335938 -0.488281 6.984375 0.125 C 6.640625 0.738281 6.0625 1.046875 5.25 1.046875 C 5 1.046875 4.738281 1.023438 4.46875 0.984375 C 4.207031 0.941406 3.9375 0.90625 3.65625 0.875 C 3.625 0.875 3.585938 0.875 3.546875 0.875 C 3.503906 0.875 3.457031 0.875 3.40625 0.875 C 3.125 0.875 2.832031 0.890625 2.53125 0.921875 C 2.238281 0.953125 1.941406 0.96875 1.640625 0.96875 C 1.160156 0.96875 0.785156 0.890625 0.515625 0.734375 C 0.253906 0.578125 0.0976562 0.234375 0.046875 -0.296875 C 0.015625 -0.859375 0.0820312 -1.40625 0.25 -1.9375 C 0.414062 -2.46875 0.582031 -2.984375 0.75 -3.484375 C 1.226562 -4.960938 1.578125 -6.460938 1.796875 -7.984375 C 2.023438 -9.515625 2.335938 -11.023438 2.734375 -12.515625 C 2.984375 -13.578125 3.195312 -14.640625 3.375 -15.703125 C 3.5625 -16.765625 3.765625 -17.8125 3.984375 -18.84375 C 4.179688 -19.769531 4.378906 -20.6875 4.578125 -21.59375 C 4.773438 -22.507812 5.015625 -23.398438 5.296875 -24.265625 C 5.429688 -24.710938 5.53125 -25.171875 5.59375 -25.640625 C 5.664062 -26.117188 5.742188 -26.597656 5.828125 -27.078125 C 5.921875 -27.523438 6.03125 -27.960938 6.15625 -28.390625 C 6.28125 -28.828125 6.441406 -29.257812 6.640625 -29.6875 C 6.691406 -29.820312 6.757812 -29.96875 6.84375 -30.125 C 6.925781 -30.28125 6.992188 -30.441406 7.046875 -30.609375 C 7.128906 -30.910156 7.304688 -31.242188 7.578125 -31.609375 C 7.847656 -31.972656 8.15625 -32.296875 8.5 -32.578125 C 8.851562 -32.859375 9.195312 -33 9.53125 -33 C 9.664062 -33 9.765625 -32.984375 9.828125 -32.953125 C 9.960938 -32.929688 10.085938 -32.921875 10.203125 -32.921875 C 10.316406 -32.921875 10.425781 -32.921875 10.53125 -32.921875 C 10.84375 -32.921875 11.160156 -32.929688 11.484375 -32.953125 C 11.804688 -32.984375 12.117188 -33 12.421875 -33 C 12.867188 -33 13.351562 -32.945312 13.875 -32.84375 C 14.394531 -32.75 14.867188 -32.566406 15.296875 -32.296875 C 15.734375 -32.035156 16.019531 -31.65625 16.15625 -31.15625 C 16.300781 -30.820312 16.398438 -30.429688 16.453125 -29.984375 C 16.566406 -29.421875 16.664062 -28.851562 16.75 -28.28125 C 16.832031 -27.707031 16.914062 -27.125 17 -26.53125 C 17.363281 -24.070312 17.738281 -21.625 18.125 -19.1875 C 18.519531 -16.75 18.914062 -14.300781 19.3125 -11.84375 C 19.425781 -11.144531 19.535156 -10.429688 19.640625 -9.703125 C 19.753906 -8.972656 19.867188 -8.242188 19.984375 -7.515625 C 20.097656 -6.898438 20.238281 -6.296875 20.40625 -5.703125 C 20.570312 -5.117188 20.65625 -4.503906 20.65625 -3.859375 Z M 12.140625 -9.234375 C 12.304688 -9.378906 12.378906 -9.644531 12.359375 -10.03125 C 12.347656 -10.425781 12.285156 -10.867188 12.171875 -11.359375 C 12.054688 -11.847656 11.9375 -12.300781 11.8125 -12.71875 C 11.6875 -13.132812 11.613281 -13.441406 11.59375 -13.640625 C 11.53125 -14.085938 11.445312 -14.535156 11.34375 -14.984375 C 11.25 -15.429688 11.148438 -15.878906 11.046875 -16.328125 C 11.015625 -16.328125 10.988281 -16.328125 10.96875 -16.328125 C 10.957031 -16.328125 10.941406 -16.328125 10.921875 -16.328125 C 10.859375 -16.328125 10.753906 -16.117188 10.609375 -15.703125 C 10.472656 -15.285156 10.320312 -14.757812 10.15625 -14.125 C 9.988281 -13.5 9.820312 -12.863281 9.65625 -12.21875 C 9.488281 -11.570312 9.347656 -11.003906 9.234375 -10.515625 C 9.117188 -10.023438 9.035156 -9.710938 8.984375 -9.578125 C 8.929688 -9.316406 9.03125 -9.144531 9.28125 -9.0625 C 9.53125 -8.976562 9.820312 -8.9375 10.15625 -8.9375 C 10.488281 -8.9375 10.816406 -8.957031 11.140625 -9 C 11.460938 -9.039062 11.679688 -9.078125 11.796875 -9.109375 C 11.960938 -9.160156 12.078125 -9.203125 12.140625 -9.234375 Z M 12.140625 -9.234375 "/></g></g></g><g fill="#ffffff" fill-opacity="1"><g transform="translate(68.37749, 34.375117)"><g><path d="M 19.609375 -13.734375 C 19.640625 -13.703125 19.65625 -13.664062 19.65625 -13.625 C 19.65625 -13.582031 19.664062 -13.535156 19.6875 -13.484375 C 19.851562 -12.972656 19.957031 -12.460938 20 -11.953125 C 20.039062 -11.453125 20.078125 -10.9375 20.109375 -10.40625 C 20.160156 -9.144531 20.171875 -7.890625 20.140625 -6.640625 C 20.117188 -5.398438 20.050781 -4.148438 19.9375 -2.890625 C 19.832031 -1.828125 19.597656 -1.070312 19.234375 -0.625 C 18.867188 -0.175781 18.15625 0.1875 17.09375 0.46875 C 15.238281 0.914062 13.367188 1.179688 11.484375 1.265625 C 9.597656 1.347656 7.703125 1.390625 5.796875 1.390625 C 4.753906 1.359375 3.875 1.265625 3.15625 1.109375 C 2.445312 0.953125 1.867188 0.625 1.421875 0.125 C 0.972656 -0.375 0.640625 -1.15625 0.421875 -2.21875 C 0.140625 -3.90625 0.00390625 -5.632812 0.015625 -7.40625 C 0.0351562 -9.1875 0.113281 -10.929688 0.25 -12.640625 C 0.363281 -13.648438 0.398438 -14.664062 0.359375 -15.6875 C 0.316406 -16.707031 0.304688 -17.71875 0.328125 -18.71875 C 0.328125 -19.726562 0.332031 -20.738281 0.34375 -21.75 C 0.363281 -22.757812 0.375 -23.765625 0.375 -24.765625 C 0.40625 -25.578125 0.425781 -26.375 0.4375 -27.15625 C 0.457031 -27.945312 0.519531 -28.734375 0.625 -29.515625 C 0.707031 -29.960938 0.816406 -30.398438 0.953125 -30.828125 C 1.097656 -31.265625 1.351562 -31.625 1.71875 -31.90625 C 2.164062 -32.21875 2.785156 -32.441406 3.578125 -32.578125 C 4.378906 -32.722656 5.191406 -32.820312 6.015625 -32.875 C 6.847656 -32.925781 7.515625 -32.953125 8.015625 -32.953125 C 9.078125 -32.953125 10.125 -32.925781 11.15625 -32.875 C 12.195312 -32.820312 13.207031 -32.765625 14.1875 -32.703125 C 14.582031 -32.703125 15.015625 -32.671875 15.484375 -32.609375 C 15.960938 -32.554688 16.410156 -32.425781 16.828125 -32.21875 C 17.253906 -32.007812 17.535156 -31.695312 17.671875 -31.28125 C 18.148438 -29.96875 18.390625 -28.546875 18.390625 -27.015625 C 18.390625 -25.492188 18.25 -24.046875 17.96875 -22.671875 C 17.9375 -22.472656 17.894531 -22.289062 17.84375 -22.125 C 17.789062 -21.957031 17.707031 -21.800781 17.59375 -21.65625 C 17.3125 -21.320312 16.847656 -21.117188 16.203125 -21.046875 C 15.554688 -20.984375 15.023438 -20.953125 14.609375 -20.953125 C 13.828125 -20.953125 13.054688 -21.035156 12.296875 -21.203125 C 11.929688 -21.285156 11.691406 -21.40625 11.578125 -21.5625 C 11.472656 -21.71875 11.390625 -21.988281 11.328125 -22.375 C 11.304688 -22.769531 11.28125 -23.148438 11.25 -23.515625 C 11.21875 -23.878906 11.191406 -24.242188 11.171875 -24.609375 C 10.972656 -24.660156 10.773438 -24.6875 10.578125 -24.6875 C 10.378906 -24.6875 10.171875 -24.6875 9.953125 -24.6875 C 9.253906 -24.6875 8.6875 -24.613281 8.25 -24.46875 C 7.8125 -24.332031 7.550781 -23.890625 7.46875 -23.140625 C 7.445312 -22.859375 7.414062 -22.566406 7.375 -22.265625 C 7.332031 -21.972656 7.296875 -21.675781 7.265625 -21.375 C 7.265625 -20.613281 7.265625 -19.863281 7.265625 -19.125 C 7.265625 -18.382812 7.28125 -17.632812 7.3125 -16.875 C 7.3125 -16.90625 7.5 -16.925781 7.875 -16.9375 C 8.25 -16.957031 8.71875 -16.972656 9.28125 -16.984375 C 9.84375 -16.992188 10.390625 -17 10.921875 -17 C 11.585938 -17 12.367188 -16.984375 13.265625 -16.953125 C 14.160156 -16.929688 15.023438 -16.84375 15.859375 -16.6875 C 16.703125 -16.53125 17.390625 -16.285156 17.921875 -15.953125 C 18.316406 -15.703125 18.65625 -15.382812 18.9375 -15 C 19.21875 -14.625 19.441406 -14.203125 19.609375 -13.734375 Z M 13.984375 -6.09375 C 14.484375 -6.539062 14.707031 -7.210938 14.65625 -8.109375 C 14.59375 -9.085938 14.351562 -9.722656 13.9375 -10.015625 C 13.519531 -10.304688 12.863281 -10.453125 11.96875 -10.453125 C 11.320312 -10.453125 10.660156 -10.441406 9.984375 -10.421875 C 9.316406 -10.410156 8.660156 -10.394531 8.015625 -10.375 C 7.898438 -10.375 7.796875 -10.363281 7.703125 -10.34375 C 7.609375 -10.332031 7.519531 -10.285156 7.4375 -10.203125 C 7.351562 -10.148438 7.300781 -10.066406 7.28125 -9.953125 C 7.269531 -9.835938 7.265625 -9.738281 7.265625 -9.65625 C 7.234375 -9.289062 7.21875 -8.929688 7.21875 -8.578125 C 7.21875 -8.234375 7.21875 -7.894531 7.21875 -7.5625 C 7.1875 -7.25 7.191406 -6.945312 7.234375 -6.65625 C 7.285156 -6.363281 7.421875 -6.101562 7.640625 -5.875 C 7.773438 -5.738281 7.925781 -5.65625 8.09375 -5.625 C 8.269531 -5.59375 8.457031 -5.578125 8.65625 -5.578125 C 9.320312 -5.578125 9.984375 -5.578125 10.640625 -5.578125 C 11.296875 -5.578125 11.960938 -5.578125 12.640625 -5.578125 C 13.253906 -5.640625 13.703125 -5.8125 13.984375 -6.09375 Z M 13.984375 -6.09375 "/></g></g></g><g fill="#ffffff" fill-opacity="1"><g transform="translate(89.36784, 34.375117)"><g><path d="M 17.71875 -11.328125 C 17.6875 -10.046875 17.6875 -8.753906 17.71875 -7.453125 C 17.75 -6.148438 17.59375 -4.867188 17.25 -3.609375 C 17.0625 -2.765625 16.710938 -1.960938 16.203125 -1.203125 C 15.703125 -0.453125 15.03125 0.03125 14.1875 0.25 C 13.96875 0.332031 13.738281 0.378906 13.5 0.390625 C 13.257812 0.410156 13.03125 0.4375 12.8125 0.46875 C 12.050781 0.488281 11.285156 0.515625 10.515625 0.546875 C 9.742188 0.578125 8.984375 0.617188 8.234375 0.671875 C 7.804688 0.703125 7.390625 0.722656 6.984375 0.734375 C 6.578125 0.742188 6.164062 0.75 5.75 0.75 C 4.800781 0.75 3.929688 0.675781 3.140625 0.53125 C 2.359375 0.394531 1.71875 0.0703125 1.21875 -0.4375 C 0.71875 -0.957031 0.367188 -1.789062 0.171875 -2.9375 C 0.109375 -3.382812 0.0703125 -3.835938 0.0625 -4.296875 C 0.0507812 -4.765625 0.046875 -5.222656 0.046875 -5.671875 C 0.046875 -6.671875 0.0351562 -7.675781 0.015625 -8.6875 C 0.00390625 -9.695312 0 -10.707031 0 -11.71875 C 0 -13.03125 0.0234375 -14.34375 0.078125 -15.65625 C 0.140625 -16.976562 0.222656 -18.28125 0.328125 -19.5625 C 0.472656 -20.957031 0.570312 -22.351562 0.625 -23.75 C 0.6875 -25.15625 0.742188 -26.546875 0.796875 -27.921875 C 0.847656 -28.398438 0.960938 -28.925781 1.140625 -29.5 C 1.328125 -30.070312 1.570312 -30.609375 1.875 -31.109375 C 2.1875 -31.609375 2.539062 -31.972656 2.9375 -32.203125 C 3.46875 -32.503906 4.039062 -32.710938 4.65625 -32.828125 C 5.269531 -32.941406 5.882812 -33.015625 6.5 -33.046875 C 7.289062 -33.097656 8.0625 -33.128906 8.8125 -33.140625 C 9.570312 -33.160156 10.328125 -33.171875 11.078125 -33.171875 C 12.867188 -33.171875 14.21875 -32.890625 15.125 -32.328125 C 16.039062 -31.765625 16.664062 -30.914062 17 -29.78125 C 17.332031 -28.65625 17.53125 -27.238281 17.59375 -25.53125 C 17.644531 -24.488281 17.675781 -23.457031 17.6875 -22.4375 C 17.707031 -21.414062 17.703125 -20.390625 17.671875 -19.359375 C 17.648438 -18.742188 17.625 -18.113281 17.59375 -17.46875 C 17.5625 -16.820312 17.53125 -16.175781 17.5 -15.53125 C 17.476562 -14.945312 17.457031 -14.351562 17.4375 -13.75 C 17.425781 -13.144531 17.492188 -12.535156 17.640625 -11.921875 C 17.691406 -11.804688 17.71875 -11.703125 17.71875 -11.609375 C 17.71875 -11.515625 17.71875 -11.421875 17.71875 -11.328125 Z M 10.953125 -9.484375 C 10.984375 -10.128906 11 -10.78125 11 -11.4375 C 11 -12.09375 11 -12.726562 11 -13.34375 C 11 -14.78125 10.957031 -16.21875 10.875 -17.65625 C 10.789062 -19.09375 10.691406 -20.523438 10.578125 -21.953125 C 10.546875 -22.316406 10.492188 -22.660156 10.421875 -22.984375 C 10.359375 -23.304688 10.300781 -23.609375 10.25 -23.890625 C 10.050781 -24.140625 9.847656 -24.289062 9.640625 -24.34375 C 9.429688 -24.40625 9.171875 -24.4375 8.859375 -24.4375 C 8.460938 -24.40625 8.109375 -24.253906 7.796875 -23.984375 C 7.492188 -23.722656 7.34375 -23.425781 7.34375 -23.09375 C 7.320312 -22.445312 7.300781 -21.800781 7.28125 -21.15625 C 7.269531 -20.507812 7.28125 -19.867188 7.3125 -19.234375 C 7.3125 -18.703125 7.34375 -18.175781 7.40625 -17.65625 C 7.476562 -17.132812 7.515625 -16.609375 7.515625 -16.078125 C 7.515625 -15.210938 7.5 -14.34375 7.46875 -13.46875 C 7.445312 -12.601562 7.421875 -11.738281 7.390625 -10.875 C 7.390625 -10.425781 7.390625 -9.984375 7.390625 -9.546875 C 7.390625 -9.117188 7.390625 -8.664062 7.390625 -8.1875 C 7.359375 -7.90625 7.421875 -7.671875 7.578125 -7.484375 C 7.734375 -7.304688 7.9375 -7.148438 8.1875 -7.015625 C 8.269531 -6.984375 8.351562 -6.953125 8.4375 -6.921875 C 8.519531 -6.898438 8.601562 -6.875 8.6875 -6.84375 C 8.914062 -6.894531 9.125 -6.945312 9.3125 -7 C 9.507812 -7.0625 9.707031 -7.117188 9.90625 -7.171875 C 10.21875 -7.285156 10.460938 -7.441406 10.640625 -7.640625 C 10.828125 -7.835938 10.90625 -8.101562 10.875 -8.4375 C 10.875 -8.601562 10.882812 -8.773438 10.90625 -8.953125 C 10.9375 -9.140625 10.953125 -9.316406 10.953125 -9.484375 Z M 10.953125 -9.484375 "/></g></g></g><g fill="#ffffff" fill-opacity="1"><g transform="translate(107.923315, 34.375117)"><g><path d="M 18.34375 -29.140625 C 18.707031 -28.179688 18.96875 -27.210938 19.125 -26.234375 C 19.28125 -25.253906 19.328125 -24.265625 19.265625 -23.265625 C 19.210938 -22.054688 19.191406 -20.859375 19.203125 -19.671875 C 19.222656 -18.484375 19.242188 -17.285156 19.265625 -16.078125 C 19.296875 -15.148438 19.253906 -14.234375 19.140625 -13.328125 C 19.035156 -12.421875 18.894531 -11.503906 18.71875 -10.578125 C 18.664062 -10.242188 18.609375 -9.898438 18.546875 -9.546875 C 18.492188 -9.203125 18.425781 -8.859375 18.34375 -8.515625 C 18.144531 -7.796875 17.921875 -7.0625 17.671875 -6.3125 C 17.421875 -5.570312 17.1875 -4.835938 16.96875 -4.109375 C 16.9375 -4.054688 16.90625 -3.988281 16.875 -3.90625 C 16.84375 -3.820312 16.816406 -3.75 16.796875 -3.6875 C 16.285156 -2.9375 15.726562 -2.242188 15.125 -1.609375 C 14.53125 -0.984375 13.785156 -0.488281 12.890625 -0.125 C 12.578125 0.0078125 12.265625 0.144531 11.953125 0.28125 C 11.648438 0.425781 11.347656 0.582031 11.046875 0.75 C 10.597656 0.945312 10.132812 1.09375 9.65625 1.1875 C 9.175781 1.289062 8.703125 1.367188 8.234375 1.421875 C 7.585938 1.453125 6.925781 1.476562 6.25 1.5 C 5.582031 1.53125 4.925781 1.578125 4.28125 1.640625 C 4.144531 1.640625 3.988281 1.625 3.8125 1.59375 C 3.644531 1.5625 3.492188 1.535156 3.359375 1.515625 C 2.492188 1.285156 2.03125 0.722656 1.96875 -0.171875 C 1.945312 -0.335938 1.945312 -0.503906 1.96875 -0.671875 C 2.03125 -1.203125 2.046875 -1.722656 2.015625 -2.234375 C 1.984375 -2.753906 1.957031 -3.285156 1.9375 -3.828125 C 1.90625 -4.546875 1.894531 -5.273438 1.90625 -6.015625 C 1.925781 -6.765625 1.9375 -7.503906 1.9375 -8.234375 C 1.9375 -8.765625 1.941406 -9.285156 1.953125 -9.796875 C 1.960938 -10.316406 1.96875 -10.84375 1.96875 -11.375 C 1.96875 -11.6875 1.960938 -11.988281 1.953125 -12.28125 C 1.941406 -12.570312 1.945312 -12.859375 1.96875 -13.140625 C 2.03125 -13.421875 2.082031 -13.679688 2.125 -13.921875 C 2.164062 -14.160156 2.1875 -14.414062 2.1875 -14.6875 C 2.238281 -16.3125 2.273438 -17.921875 2.296875 -19.515625 C 2.328125 -21.117188 2.359375 -22.726562 2.390625 -24.34375 C 2.390625 -24.4375 2.375 -24.492188 2.34375 -24.515625 C 2.320312 -24.546875 2.296875 -24.5625 2.265625 -24.5625 C 2.234375 -24.5625 2.207031 -24.578125 2.1875 -24.609375 C 1.820312 -24.660156 1.476562 -24.691406 1.15625 -24.703125 C 0.832031 -24.722656 0.570312 -24.914062 0.375 -25.28125 C 0.257812 -25.5 0.1875 -25.726562 0.15625 -25.96875 C 0.132812 -26.207031 0.125 -26.4375 0.125 -26.65625 C 0.09375 -27.25 0.0703125 -27.835938 0.0625 -28.421875 C 0.0507812 -29.015625 0.03125 -29.601562 0 -30.1875 C 0 -30.351562 0 -30.523438 0 -30.703125 C 0 -30.890625 0.015625 -31.066406 0.046875 -31.234375 C 0.179688 -31.765625 0.390625 -32.109375 0.671875 -32.265625 C 0.953125 -32.421875 1.316406 -32.539062 1.765625 -32.625 C 1.898438 -32.625 2.273438 -32.632812 2.890625 -32.65625 C 3.515625 -32.6875 4.222656 -32.71875 5.015625 -32.75 C 5.816406 -32.78125 6.59375 -32.804688 7.34375 -32.828125 C 8.101562 -32.859375 8.691406 -32.875 9.109375 -32.875 C 9.503906 -32.875 9.703125 -32.859375 9.703125 -32.828125 C 10.085938 -32.859375 10.488281 -32.875 10.90625 -32.875 C 11.332031 -32.875 11.742188 -32.875 12.140625 -32.875 C 13.367188 -32.875 14.390625 -32.734375 15.203125 -32.453125 C 16.015625 -32.171875 16.835938 -31.539062 17.671875 -30.5625 C 17.835938 -30.363281 17.96875 -30.140625 18.0625 -29.890625 C 18.164062 -29.640625 18.257812 -29.390625 18.34375 -29.140625 Z M 12.296875 -10.40625 C 12.523438 -12.457031 12.710938 -14.523438 12.859375 -16.609375 C 13.015625 -18.691406 13 -20.753906 12.8125 -22.796875 C 12.78125 -23.109375 12.710938 -23.410156 12.609375 -23.703125 C 12.515625 -23.992188 12.34375 -24.195312 12.09375 -24.3125 C 11.976562 -24.394531 11.835938 -24.441406 11.671875 -24.453125 C 11.503906 -24.472656 11.347656 -24.484375 11.203125 -24.484375 C 11.015625 -24.484375 10.820312 -24.484375 10.625 -24.484375 C 10.425781 -24.484375 10.21875 -24.492188 10 -24.515625 C 9.882812 -24.515625 9.8125 -24.488281 9.78125 -24.4375 C 9.726562 -24.40625 9.703125 -24.332031 9.703125 -24.21875 C 9.640625 -23.769531 9.613281 -23.328125 9.625 -22.890625 C 9.644531 -22.460938 9.640625 -22.023438 9.609375 -21.578125 C 9.585938 -20.828125 9.5625 -20.070312 9.53125 -19.3125 C 9.5 -18.550781 9.457031 -17.8125 9.40625 -17.09375 C 9.320312 -15.488281 9.226562 -13.90625 9.125 -12.34375 C 9.03125 -10.78125 8.941406 -9.195312 8.859375 -7.59375 C 8.859375 -7.425781 8.941406 -7.34375 9.109375 -7.34375 C 9.609375 -7.375 10.097656 -7.472656 10.578125 -7.640625 C 11.054688 -7.804688 11.4375 -8.085938 11.71875 -8.484375 C 11.9375 -8.765625 12.082031 -9.070312 12.15625 -9.40625 C 12.226562 -9.738281 12.273438 -10.070312 12.296875 -10.40625 Z M 12.296875 -10.40625 "/></g></g></g><g fill="#ffffff" fill-opacity="1"><g transform="translate(128.074052, 34.375117)"><g><path d="M 18.390625 -9.703125 C 18.867188 -9.703125 19.238281 -9.503906 19.5 -9.109375 C 19.769531 -8.710938 19.914062 -8.320312 19.9375 -7.9375 C 20.019531 -6.976562 20.054688 -6.007812 20.046875 -5.03125 C 20.035156 -4.050781 19.929688 -3.070312 19.734375 -2.09375 C 19.484375 -1.03125 19.070312 -0.3125 18.5 0.0625 C 17.925781 0.4375 17.078125 0.695312 15.953125 0.84375 C 15.335938 0.894531 14.5625 0.941406 13.625 0.984375 C 12.6875 1.023438 11.75 1.050781 10.8125 1.0625 C 9.875 1.082031 9.097656 1.109375 8.484375 1.140625 C 7.921875 1.140625 7.234375 1.125 6.421875 1.09375 C 5.609375 1.0625 4.773438 0.96875 3.921875 0.8125 C 3.066406 0.664062 2.3125 0.421875 1.65625 0.078125 C 1 -0.253906 0.546875 -0.726562 0.296875 -1.34375 C 0.128906 -1.738281 0.0351562 -2.160156 0.015625 -2.609375 C 0.00390625 -3.054688 0.015625 -3.503906 0.046875 -3.953125 C 0.0976562 -5.035156 0.148438 -6.128906 0.203125 -7.234375 C 0.265625 -8.347656 0.304688 -9.460938 0.328125 -10.578125 C 0.390625 -11.617188 0.425781 -12.660156 0.4375 -13.703125 C 0.457031 -14.753906 0.476562 -15.796875 0.5 -16.828125 C 0.5625 -17.640625 0.625 -18.457031 0.6875 -19.28125 C 0.757812 -20.113281 0.8125 -20.9375 0.84375 -21.75 C 0.894531 -22.332031 0.921875 -22.925781 0.921875 -23.53125 C 0.921875 -24.132812 0.9375 -24.726562 0.96875 -25.3125 C 0.96875 -25.820312 0.976562 -26.453125 1 -27.203125 C 1.03125 -27.960938 1.101562 -28.703125 1.21875 -29.421875 C 1.332031 -30.148438 1.515625 -30.738281 1.765625 -31.1875 C 2.046875 -31.695312 2.570312 -32.054688 3.34375 -32.265625 C 4.113281 -32.472656 4.914062 -32.601562 5.75 -32.65625 C 6.59375 -32.71875 7.25 -32.75 7.71875 -32.75 C 8.757812 -32.78125 9.789062 -32.800781 10.8125 -32.8125 C 11.832031 -32.820312 12.847656 -32.828125 13.859375 -32.828125 C 14.242188 -32.828125 14.695312 -32.796875 15.21875 -32.734375 C 15.738281 -32.679688 16.210938 -32.554688 16.640625 -32.359375 C 17.078125 -32.171875 17.363281 -31.851562 17.5 -31.40625 C 17.59375 -31.175781 17.691406 -30.941406 17.796875 -30.703125 C 17.910156 -30.472656 18.007812 -30.242188 18.09375 -30.015625 C 18.175781 -29.765625 18.207031 -29.503906 18.1875 -29.234375 C 18.175781 -28.972656 18.144531 -28.703125 18.09375 -28.421875 C 18.0625 -28.253906 18.039062 -28.09375 18.03125 -27.9375 C 18.019531 -27.78125 18.015625 -27.617188 18.015625 -27.453125 C 17.984375 -26.671875 17.96875 -25.878906 17.96875 -25.078125 C 17.96875 -24.285156 17.953125 -23.484375 17.921875 -22.671875 C 17.921875 -22.617188 17.921875 -22.546875 17.921875 -22.453125 C 17.921875 -22.367188 17.910156 -22.300781 17.890625 -22.25 C 17.523438 -21.75 17.035156 -21.441406 16.421875 -21.328125 C 16.222656 -21.296875 16.039062 -21.253906 15.875 -21.203125 C 15.707031 -21.148438 15.523438 -21.109375 15.328125 -21.078125 C 14.878906 -21.046875 14.414062 -21.03125 13.9375 -21.03125 C 13.457031 -21.03125 12.984375 -21.015625 12.515625 -20.984375 C 11.867188 -21.296875 11.503906 -21.84375 11.421875 -22.625 C 11.390625 -22.96875 11.34375 -23.296875 11.28125 -23.609375 C 11.226562 -23.929688 11.175781 -24.265625 11.125 -24.609375 C 10.925781 -24.628906 10.742188 -24.644531 10.578125 -24.65625 C 10.410156 -24.675781 10.226562 -24.6875 10.03125 -24.6875 C 9.300781 -24.6875 8.601562 -24.546875 7.9375 -24.265625 C 7.90625 -24.128906 7.851562 -23.972656 7.78125 -23.796875 C 7.71875 -23.628906 7.6875 -23.460938 7.6875 -23.296875 C 7.65625 -22.765625 7.640625 -22.21875 7.640625 -21.65625 C 7.640625 -21.101562 7.625 -20.546875 7.59375 -19.984375 C 8.15625 -19.984375 8.71875 -19.988281 9.28125 -20 C 9.84375 -20.019531 10.398438 -20.039062 10.953125 -20.0625 C 11.546875 -20.0625 12.066406 -19.882812 12.515625 -19.53125 C 12.960938 -19.1875 13.1875 -18.691406 13.1875 -18.046875 C 13.207031 -17.597656 13.238281 -17.148438 13.28125 -16.703125 C 13.320312 -16.253906 13.359375 -15.796875 13.390625 -15.328125 C 13.390625 -14.796875 13.347656 -14.273438 13.265625 -13.765625 C 13.179688 -13.128906 12.832031 -12.722656 12.21875 -12.546875 C 12.019531 -12.492188 11.804688 -12.453125 11.578125 -12.421875 C 11.359375 -12.398438 11.140625 -12.375 10.921875 -12.34375 C 10.773438 -12.34375 10.625 -12.34375 10.46875 -12.34375 C 10.320312 -12.34375 10.175781 -12.34375 10.03125 -12.34375 C 9.894531 -12.34375 9.75 -12.34375 9.59375 -12.34375 C 9.4375 -12.34375 9.273438 -12.328125 9.109375 -12.296875 C 8.910156 -12.273438 8.71875 -12.25 8.53125 -12.21875 C 8.351562 -12.1875 8.15625 -12.160156 7.9375 -12.140625 C 7.875 -12.023438 7.84375 -11.925781 7.84375 -11.84375 C 7.84375 -11.226562 7.835938 -10.585938 7.828125 -9.921875 C 7.816406 -9.265625 7.820312 -8.617188 7.84375 -7.984375 C 7.84375 -7.441406 8.007812 -7.054688 8.34375 -6.828125 C 8.6875 -6.609375 9.09375 -6.472656 9.5625 -6.421875 C 10.039062 -6.367188 10.476562 -6.34375 10.875 -6.34375 C 11.125 -6.34375 11.472656 -6.351562 11.921875 -6.375 C 12.367188 -6.40625 12.691406 -6.519531 12.890625 -6.71875 C 13.023438 -6.832031 13.117188 -6.976562 13.171875 -7.15625 C 13.234375 -7.34375 13.28125 -7.519531 13.3125 -7.6875 C 13.332031 -7.90625 13.347656 -8.117188 13.359375 -8.328125 C 13.378906 -8.546875 13.421875 -8.75 13.484375 -8.9375 C 13.617188 -9.101562 13.894531 -9.257812 14.3125 -9.40625 C 14.988281 -9.539062 15.660156 -9.625 16.328125 -9.65625 C 17.003906 -9.6875 17.691406 -9.703125 18.390625 -9.703125 Z M 18.390625 -9.703125 "/></g></g></g><g fill="#ffffff" fill-opacity="1"><g transform="translate(80.515737, 54.120272)"><g><path d="M 2.875 -13.359375 C 3.070312 -13.367188 3.265625 -13.378906 3.453125 -13.390625 C 3.640625 -13.398438 3.828125 -13.40625 4.015625 -13.40625 C 4.492188 -13.40625 4.945312 -13.300781 5.375 -13.09375 C 5.8125 -12.882812 6.101562 -12.519531 6.25 -12 C 6.394531 -11.632812 6.503906 -11.257812 6.578125 -10.875 C 6.648438 -10.5 6.675781 -10.109375 6.65625 -9.703125 C 6.644531 -9.234375 6.644531 -8.769531 6.65625 -8.3125 C 6.675781 -7.851562 6.691406 -7.390625 6.703125 -6.921875 C 6.734375 -6.566406 6.722656 -6.210938 6.671875 -5.859375 C 6.628906 -5.503906 6.578125 -5.148438 6.515625 -4.796875 C 6.503906 -4.671875 6.488281 -4.535156 6.46875 -4.390625 C 6.445312 -4.253906 6.421875 -4.117188 6.390625 -3.984375 C 6.316406 -3.703125 6.234375 -3.414062 6.140625 -3.125 C 6.054688 -2.832031 5.96875 -2.539062 5.875 -2.25 C 5.875 -2.238281 5.867188 -2.21875 5.859375 -2.1875 C 5.847656 -2.15625 5.832031 -2.128906 5.8125 -2.109375 C 5.625 -1.804688 5.410156 -1.523438 5.171875 -1.265625 C 4.941406 -1.015625 4.664062 -0.820312 4.34375 -0.6875 C 4.21875 -0.632812 4.09375 -0.578125 3.96875 -0.515625 C 3.851562 -0.460938 3.738281 -0.40625 3.625 -0.34375 C 3.457031 -0.25 3.28125 -0.179688 3.09375 -0.140625 C 2.90625 -0.109375 2.722656 -0.0820312 2.546875 -0.0625 C 2.285156 -0.03125 2.023438 -0.0078125 1.765625 0 C 1.515625 0.0078125 1.257812 0.0195312 1 0.03125 C 0.769531 0.03125 0.5625 -0.015625 0.375 -0.109375 C 0.195312 -0.203125 0.101562 -0.378906 0.09375 -0.640625 C 0.0820312 -0.679688 0.078125 -0.742188 0.078125 -0.828125 C 0.0976562 -1.035156 0.101562 -1.238281 0.09375 -1.4375 C 0.0820312 -1.644531 0.0703125 -1.847656 0.0625 -2.046875 C 0.0390625 -2.535156 0.0234375 -3.023438 0.015625 -3.515625 C 0.015625 -4.003906 0.015625 -4.492188 0.015625 -4.984375 C 0.00390625 -5.234375 0 -5.484375 0 -5.734375 C 0 -5.992188 0.0234375 -6.25 0.078125 -6.5 C 0.078125 -6.539062 0.078125 -6.578125 0.078125 -6.609375 C 0.078125 -6.648438 0.078125 -6.691406 0.078125 -6.734375 C 0.0234375 -7.128906 0 -7.53125 0 -7.9375 C 0 -8.34375 0.00390625 -8.742188 0.015625 -9.140625 C 0.0234375 -9.578125 0.0390625 -10.015625 0.0625 -10.453125 C 0.0820312 -10.898438 0.0976562 -11.335938 0.109375 -11.765625 C 0.117188 -11.890625 0.117188 -12.007812 0.109375 -12.125 C 0.109375 -12.25 0.113281 -12.367188 0.125 -12.484375 C 0.15625 -12.691406 0.234375 -12.863281 0.359375 -13 C 0.492188 -13.132812 0.660156 -13.21875 0.859375 -13.25 C 1.179688 -13.3125 1.515625 -13.34375 1.859375 -13.34375 C 2.203125 -13.351562 2.539062 -13.359375 2.875 -13.359375 Z M 2.828125 -2.84375 C 3.078125 -2.90625 3.320312 -3.019531 3.5625 -3.1875 C 3.738281 -3.320312 3.851562 -3.492188 3.90625 -3.703125 C 3.945312 -3.835938 3.972656 -3.972656 3.984375 -4.109375 C 4.003906 -4.253906 4.007812 -4.398438 4 -4.546875 C 4 -4.609375 4 -4.675781 4 -4.75 C 4 -4.832031 4.003906 -4.910156 4.015625 -4.984375 C 4.046875 -5.210938 4.070312 -5.4375 4.09375 -5.65625 C 4.113281 -5.875 4.117188 -6.101562 4.109375 -6.34375 C 4.097656 -6.394531 4.09375 -6.445312 4.09375 -6.5 C 4.101562 -6.5625 4.113281 -6.617188 4.125 -6.671875 C 4.175781 -6.921875 4.203125 -7.171875 4.203125 -7.421875 C 4.210938 -7.671875 4.210938 -7.921875 4.203125 -8.171875 C 4.191406 -8.535156 4.179688 -8.90625 4.171875 -9.28125 C 4.171875 -9.65625 4.15625 -10.023438 4.125 -10.390625 C 4.125 -10.398438 4.125 -10.40625 4.125 -10.40625 C 4.125 -10.414062 4.125 -10.425781 4.125 -10.4375 C 4.082031 -10.769531 4 -10.976562 3.875 -11.0625 C 3.757812 -11.15625 3.535156 -11.203125 3.203125 -11.203125 C 3.160156 -11.203125 3.117188 -11.203125 3.078125 -11.203125 C 3.046875 -11.203125 3.007812 -11.203125 2.96875 -11.203125 C 2.957031 -11.148438 2.953125 -11.101562 2.953125 -11.0625 C 2.953125 -11.019531 2.945312 -10.972656 2.9375 -10.921875 C 2.9375 -10.296875 2.929688 -9.679688 2.921875 -9.078125 C 2.910156 -8.472656 2.890625 -7.859375 2.859375 -7.234375 C 2.847656 -6.816406 2.832031 -6.398438 2.8125 -5.984375 C 2.789062 -5.578125 2.773438 -5.164062 2.765625 -4.75 C 2.753906 -4.445312 2.753906 -4.144531 2.765625 -3.84375 C 2.773438 -3.550781 2.789062 -3.257812 2.8125 -2.96875 C 2.8125 -2.925781 2.816406 -2.882812 2.828125 -2.84375 Z M 2.828125 -2.84375 "/></g></g></g><g fill="#ffffff" fill-opacity="1"><g transform="translate(87.62042, 54.120272)"><g><path d="M 6.5 -1.484375 C 6.425781 -1.160156 6.289062 -0.914062 6.09375 -0.75 C 5.90625 -0.582031 5.648438 -0.460938 5.328125 -0.390625 C 5.109375 -0.359375 4.890625 -0.335938 4.671875 -0.328125 C 4.453125 -0.328125 4.234375 -0.316406 4.015625 -0.296875 C 3.765625 -0.285156 3.507812 -0.257812 3.25 -0.21875 C 2.988281 -0.175781 2.734375 -0.144531 2.484375 -0.125 C 2.441406 -0.125 2.398438 -0.125 2.359375 -0.125 C 2.328125 -0.125 2.285156 -0.125 2.234375 -0.125 C 1.578125 -0.125 1.085938 -0.285156 0.765625 -0.609375 C 0.453125 -0.929688 0.242188 -1.34375 0.140625 -1.84375 C 0.046875 -2.351562 0 -2.882812 0 -3.4375 C 0 -4.28125 0.015625 -5.113281 0.046875 -5.9375 C 0.0859375 -6.769531 0.140625 -7.609375 0.203125 -8.453125 C 0.234375 -8.742188 0.257812 -9.023438 0.28125 -9.296875 C 0.3125 -9.578125 0.332031 -9.859375 0.34375 -10.140625 C 0.351562 -10.335938 0.359375 -10.535156 0.359375 -10.734375 C 0.367188 -10.941406 0.378906 -11.148438 0.390625 -11.359375 C 0.410156 -11.421875 0.425781 -11.484375 0.4375 -11.546875 C 0.445312 -11.617188 0.46875 -11.679688 0.5 -11.734375 C 0.5625 -11.867188 0.617188 -12.003906 0.671875 -12.140625 C 0.734375 -12.285156 0.800781 -12.421875 0.875 -12.546875 C 0.976562 -12.734375 1.113281 -12.875 1.28125 -12.96875 C 1.457031 -13.0625 1.648438 -13.117188 1.859375 -13.140625 C 2.265625 -13.171875 2.660156 -13.1875 3.046875 -13.1875 C 3.378906 -13.1875 3.710938 -13.171875 4.046875 -13.140625 C 4.390625 -13.117188 4.722656 -13.085938 5.046875 -13.046875 C 5.203125 -13.023438 5.359375 -12.992188 5.515625 -12.953125 C 5.679688 -12.921875 5.847656 -12.882812 6.015625 -12.84375 C 6.234375 -12.769531 6.394531 -12.628906 6.5 -12.421875 C 6.613281 -12.085938 6.703125 -11.773438 6.765625 -11.484375 C 6.835938 -11.203125 6.898438 -10.878906 6.953125 -10.515625 C 6.960938 -10.398438 6.960938 -10.28125 6.953125 -10.15625 C 6.941406 -10.03125 6.929688 -9.90625 6.921875 -9.78125 C 6.921875 -9.476562 6.921875 -9.171875 6.921875 -8.859375 C 6.921875 -8.546875 6.921875 -8.238281 6.921875 -7.9375 C 6.910156 -7.789062 6.898438 -7.640625 6.890625 -7.484375 C 6.878906 -7.335938 6.867188 -7.191406 6.859375 -7.046875 C 6.847656 -6.804688 6.832031 -6.5625 6.8125 -6.3125 C 6.800781 -6.070312 6.796875 -5.832031 6.796875 -5.59375 C 6.773438 -4.957031 6.757812 -4.320312 6.75 -3.6875 C 6.738281 -3.0625 6.675781 -2.429688 6.5625 -1.796875 C 6.539062 -1.742188 6.523438 -1.691406 6.515625 -1.640625 C 6.515625 -1.597656 6.507812 -1.546875 6.5 -1.484375 Z M 4 -9.703125 C 3.90625 -9.828125 3.765625 -9.890625 3.578125 -9.890625 C 3.378906 -9.890625 3.21875 -9.835938 3.09375 -9.734375 C 2.976562 -9.628906 2.921875 -9.46875 2.921875 -9.25 C 2.910156 -9.0625 2.898438 -8.867188 2.890625 -8.671875 C 2.878906 -8.484375 2.875 -8.289062 2.875 -8.09375 C 2.875 -7.726562 2.894531 -7.363281 2.9375 -7 C 2.957031 -6.5625 2.953125 -6.125 2.921875 -5.6875 C 2.890625 -5.257812 2.867188 -4.820312 2.859375 -4.375 C 2.847656 -4.226562 2.84375 -4.070312 2.84375 -3.90625 C 2.851562 -3.75 2.863281 -3.597656 2.875 -3.453125 C 2.894531 -3.328125 2.957031 -3.222656 3.0625 -3.140625 C 3.175781 -3.066406 3.300781 -3.03125 3.4375 -3.03125 C 3.507812 -3.0625 3.582031 -3.082031 3.65625 -3.09375 C 3.726562 -3.113281 3.804688 -3.140625 3.890625 -3.171875 C 3.972656 -3.203125 4.039062 -3.242188 4.09375 -3.296875 C 4.15625 -3.359375 4.191406 -3.441406 4.203125 -3.546875 C 4.234375 -3.679688 4.25 -3.820312 4.25 -3.96875 C 4.25 -4.113281 4.25 -4.253906 4.25 -4.390625 C 4.257812 -4.535156 4.257812 -4.675781 4.25 -4.8125 C 4.25 -4.945312 4.25 -5.082031 4.25 -5.21875 C 4.257812 -5.40625 4.269531 -5.59375 4.28125 -5.78125 C 4.289062 -5.96875 4.289062 -6.15625 4.28125 -6.34375 C 4.269531 -6.71875 4.253906 -7.082031 4.234375 -7.4375 C 4.222656 -7.800781 4.207031 -8.160156 4.1875 -8.515625 C 4.175781 -8.710938 4.160156 -8.910156 4.140625 -9.109375 C 4.117188 -9.316406 4.070312 -9.515625 4 -9.703125 Z M 4 -9.703125 "/></g></g></g><g fill="#ffffff" fill-opacity="1"><g transform="translate(44.057808, 86.448228)"><g><path d="M 6.921875 -19.4375 C 6.921875 -17.394531 6.90625 -15.359375 6.875 -13.328125 C 6.851562 -11.296875 6.785156 -9.257812 6.671875 -7.21875 C 6.648438 -6.320312 6.609375 -5.421875 6.546875 -4.515625 C 6.492188 -3.609375 6.4375 -2.707031 6.375 -1.8125 C 6.375 -1.75 6.367188 -1.6875 6.359375 -1.625 C 6.347656 -1.570312 6.34375 -1.519531 6.34375 -1.46875 C 6.3125 -0.769531 5.945312 -0.335938 5.25 -0.171875 C 5 -0.140625 4.742188 -0.078125 4.484375 0.015625 C 4.234375 0.117188 3.984375 0.171875 3.734375 0.171875 C 3.597656 0.171875 3.5 0.15625 3.4375 0.125 C 3.101562 0.0703125 2.78125 0.00390625 2.46875 -0.078125 C 2.164062 -0.160156 1.859375 -0.273438 1.546875 -0.421875 C 0.710938 -0.753906 0.253906 -1.410156 0.171875 -2.390625 C 0.0546875 -4.328125 0.00390625 -6.253906 0.015625 -8.171875 C 0.0351562 -10.085938 0.0546875 -11.992188 0.078125 -13.890625 C 0.109375 -14.867188 0.164062 -15.847656 0.25 -16.828125 C 0.332031 -17.816406 0.414062 -18.800781 0.5 -19.78125 C 0.582031 -20.582031 0.644531 -21.390625 0.6875 -22.203125 C 0.726562 -23.015625 0.78125 -23.828125 0.84375 -24.640625 C 0.894531 -25.148438 0.945312 -25.660156 1 -26.171875 C 1.0625 -26.691406 1.117188 -27.203125 1.171875 -27.703125 C 1.234375 -27.898438 1.296875 -28.085938 1.359375 -28.265625 C 1.429688 -28.453125 1.492188 -28.628906 1.546875 -28.796875 C 1.773438 -29.273438 2.128906 -29.53125 2.609375 -29.5625 C 2.828125 -29.582031 3.035156 -29.59375 3.234375 -29.59375 C 3.429688 -29.59375 3.628906 -29.59375 3.828125 -29.59375 C 4.296875 -29.59375 4.734375 -29.554688 5.140625 -29.484375 C 5.546875 -29.421875 5.972656 -29.332031 6.421875 -29.21875 C 6.816406 -28.550781 7.195312 -27.882812 7.5625 -27.21875 C 7.925781 -26.5625 8.316406 -25.914062 8.734375 -25.28125 C 9.148438 -24.65625 9.597656 -24.050781 10.078125 -23.46875 C 10.554688 -22.882812 11.046875 -22.269531 11.546875 -21.625 C 11.546875 -21.757812 11.550781 -21.867188 11.5625 -21.953125 C 11.582031 -22.035156 11.59375 -22.117188 11.59375 -22.203125 C 11.644531 -22.847656 11.679688 -23.503906 11.703125 -24.171875 C 11.734375 -24.847656 11.765625 -25.507812 11.796875 -26.15625 C 11.847656 -26.570312 11.898438 -26.988281 11.953125 -27.40625 C 12.015625 -27.832031 12.144531 -28.242188 12.34375 -28.640625 C 12.59375 -29.253906 13.039062 -29.570312 13.6875 -29.59375 C 14.300781 -29.59375 14.898438 -29.578125 15.484375 -29.546875 C 16.078125 -29.523438 16.664062 -29.414062 17.25 -29.21875 C 17.695312 -28.769531 17.914062 -28.285156 17.90625 -27.765625 C 17.894531 -27.253906 17.875 -26.734375 17.84375 -26.203125 C 17.8125 -26.085938 17.789062 -25.953125 17.78125 -25.796875 C 17.769531 -25.640625 17.765625 -25.492188 17.765625 -25.359375 C 17.765625 -24.328125 17.769531 -23.273438 17.78125 -22.203125 C 17.789062 -21.140625 17.796875 -20.078125 17.796875 -19.015625 C 17.796875 -17.835938 17.800781 -16.65625 17.8125 -15.46875 C 17.832031 -14.28125 17.828125 -13.082031 17.796875 -11.875 C 17.773438 -10.894531 17.726562 -9.914062 17.65625 -8.9375 C 17.582031 -7.957031 17.488281 -6.976562 17.375 -6 C 17.320312 -5.382812 17.300781 -4.769531 17.3125 -4.15625 C 17.332031 -3.539062 17.3125 -2.910156 17.25 -2.265625 C 17.226562 -2.066406 17.207031 -1.867188 17.1875 -1.671875 C 17.175781 -1.484375 17.15625 -1.273438 17.125 -1.046875 C 17.070312 -0.710938 16.890625 -0.472656 16.578125 -0.328125 C 16.191406 -0.222656 15.828125 -0.117188 15.484375 -0.015625 C 15.148438 0.078125 14.773438 0.125 14.359375 0.125 C 14.023438 0.0703125 13.695312 0.00390625 13.375 -0.078125 C 13.050781 -0.160156 12.734375 -0.273438 12.421875 -0.421875 C 11.554688 -0.785156 11.097656 -1.484375 11.046875 -2.515625 C 10.929688 -4.253906 10.882812 -5.988281 10.90625 -7.71875 C 10.9375 -9.457031 10.941406 -11.195312 10.921875 -12.9375 C 10.921875 -13.15625 10.765625 -13.53125 10.453125 -14.0625 C 10.148438 -14.59375 9.820312 -15.125 9.46875 -15.65625 C 9.113281 -16.1875 8.867188 -16.535156 8.734375 -16.703125 C 8.453125 -17.097656 8.191406 -17.503906 7.953125 -17.921875 C 7.710938 -18.347656 7.46875 -18.769531 7.21875 -19.1875 C 7.1875 -19.238281 7.117188 -19.320312 7.015625 -19.4375 C 7.015625 -19.4375 7.003906 -19.4375 6.984375 -19.4375 C 6.972656 -19.4375 6.953125 -19.4375 6.921875 -19.4375 Z M 6.921875 -19.4375 "/></g></g></g><g fill="#ffffff" fill-opacity="1"><g transform="translate(62.823181, 86.448228)"><g><path d="M 14.953125 -20.28125 C 14.773438 -20.082031 14.585938 -19.910156 14.390625 -19.765625 C 14.203125 -19.628906 13.96875 -19.535156 13.6875 -19.484375 C 13.519531 -19.453125 13.359375 -19.40625 13.203125 -19.34375 C 13.046875 -19.289062 12.898438 -19.253906 12.765625 -19.234375 C 12.367188 -19.203125 11.96875 -19.1875 11.5625 -19.1875 C 11.15625 -19.1875 10.742188 -19.171875 10.328125 -19.140625 C 9.742188 -19.421875 9.4375 -19.898438 9.40625 -20.578125 C 9.375 -20.878906 9.328125 -21.171875 9.265625 -21.453125 C 9.210938 -21.734375 9.160156 -22.023438 9.109375 -22.328125 C 8.972656 -22.359375 8.832031 -22.375 8.6875 -22.375 C 8.550781 -22.375 8.410156 -22.375 8.265625 -22.375 C 7.960938 -22.375 7.648438 -22.34375 7.328125 -22.28125 C 7.003906 -22.226562 6.6875 -22.132812 6.375 -22 C 6.351562 -21.863281 6.3125 -21.722656 6.25 -21.578125 C 6.195312 -21.441406 6.15625 -21.300781 6.125 -21.15625 C 6.125 -20.6875 6.125 -20.207031 6.125 -19.71875 C 6.125 -19.226562 6.125 -18.726562 6.125 -18.21875 C 6.238281 -18.21875 6.335938 -18.21875 6.421875 -18.21875 C 6.503906 -18.21875 6.601562 -18.21875 6.71875 -18.21875 C 7.113281 -18.25 7.5 -18.265625 7.875 -18.265625 C 8.25 -18.265625 8.617188 -18.28125 8.984375 -18.3125 C 9.515625 -18.3125 9.96875 -18.160156 10.34375 -17.859375 C 10.726562 -17.566406 10.921875 -17.140625 10.921875 -16.578125 C 10.941406 -16.191406 10.972656 -15.796875 11.015625 -15.390625 C 11.054688 -14.984375 11.09375 -14.582031 11.125 -14.1875 C 11.125 -13.96875 11.113281 -13.738281 11.09375 -13.5 C 11.082031 -13.257812 11.066406 -13.03125 11.046875 -12.8125 C 10.960938 -12.25 10.65625 -11.894531 10.125 -11.75 C 9.925781 -11.695312 9.734375 -11.65625 9.546875 -11.625 C 9.367188 -11.601562 9.195312 -11.578125 9.03125 -11.546875 C 8.75 -11.515625 8.476562 -11.5 8.21875 -11.5 C 7.96875 -11.5 7.71875 -11.5 7.46875 -11.5 C 7.300781 -11.476562 7.132812 -11.457031 6.96875 -11.4375 C 6.800781 -11.425781 6.632812 -11.390625 6.46875 -11.328125 C 6.40625 -11.222656 6.375 -11.140625 6.375 -11.078125 C 6.375 -10.523438 6.375 -9.957031 6.375 -9.375 C 6.375 -8.800781 6.375 -8.238281 6.375 -7.6875 C 6.4375 -6.894531 6.859375 -6.457031 7.640625 -6.375 C 7.671875 -6.375 7.695312 -6.375 7.71875 -6.375 C 7.75 -6.375 7.78125 -6.375 7.8125 -6.375 C 8.03125 -6.375 8.242188 -6.375 8.453125 -6.375 C 8.671875 -6.375 8.890625 -6.363281 9.109375 -6.34375 C 9.335938 -6.644531 9.441406 -6.984375 9.421875 -7.359375 C 9.410156 -7.742188 9.460938 -8.144531 9.578125 -8.5625 C 9.660156 -8.726562 9.890625 -8.859375 10.265625 -8.953125 C 10.640625 -9.054688 11.066406 -9.117188 11.546875 -9.140625 C 12.023438 -9.171875 12.472656 -9.191406 12.890625 -9.203125 C 13.304688 -9.222656 13.597656 -9.234375 13.765625 -9.234375 C 14.023438 -9.265625 14.242188 -9.203125 14.421875 -9.046875 C 14.597656 -8.890625 14.742188 -8.710938 14.859375 -8.515625 C 15.023438 -8.265625 15.109375 -8 15.109375 -7.71875 C 15.171875 -7.351562 15.210938 -6.972656 15.234375 -6.578125 C 15.265625 -6.191406 15.28125 -5.804688 15.28125 -5.421875 C 15.28125 -4.992188 15.28125 -4.570312 15.28125 -4.15625 C 15.28125 -3.738281 15.253906 -3.316406 15.203125 -2.890625 C 15.117188 -2.222656 14.8125 -1.679688 14.28125 -1.265625 C 13.800781 -0.898438 13.140625 -0.625 12.296875 -0.4375 C 11.460938 -0.257812 10.601562 -0.148438 9.71875 -0.109375 C 8.832031 -0.0664062 8.070312 -0.046875 7.4375 -0.046875 C 6.90625 -0.046875 6.382812 -0.0546875 5.875 -0.078125 C 5.375 -0.109375 4.859375 -0.164062 4.328125 -0.25 C 2.984375 -0.414062 2.046875 -0.785156 1.515625 -1.359375 C 0.984375 -1.929688 0.585938 -2.878906 0.328125 -4.203125 C 0.140625 -5.097656 0.0507812 -6.015625 0.0625 -6.953125 C 0.0703125 -7.890625 0.0664062 -8.816406 0.046875 -9.734375 C 0.015625 -11.609375 0.015625 -13.515625 0.046875 -15.453125 C 0.0664062 -16.179688 0.101562 -16.898438 0.15625 -17.609375 C 0.21875 -18.328125 0.265625 -19.035156 0.296875 -19.734375 C 0.347656 -20.628906 0.363281 -21.550781 0.34375 -22.5 C 0.332031 -23.457031 0.4375 -24.382812 0.65625 -25.28125 C 0.882812 -26.175781 1.351562 -26.972656 2.0625 -27.671875 C 2.59375 -28.222656 3.242188 -28.632812 4.015625 -28.90625 C 4.785156 -29.175781 5.582031 -29.351562 6.40625 -29.4375 C 7.226562 -29.519531 8.003906 -29.5625 8.734375 -29.5625 C 9.179688 -29.5625 9.628906 -29.550781 10.078125 -29.53125 C 10.523438 -29.519531 10.972656 -29.515625 11.421875 -29.515625 C 11.984375 -29.515625 12.59375 -29.457031 13.25 -29.34375 C 13.90625 -29.226562 14.34375 -28.878906 14.5625 -28.296875 C 14.644531 -28.097656 14.726562 -27.898438 14.8125 -27.703125 C 14.90625 -27.515625 14.992188 -27.320312 15.078125 -27.125 C 15.160156 -26.894531 15.191406 -26.65625 15.171875 -26.40625 C 15.160156 -26.15625 15.128906 -25.914062 15.078125 -25.6875 C 15.046875 -25.550781 15.03125 -25.410156 15.03125 -25.265625 C 15.03125 -25.128906 15.03125 -24.992188 15.03125 -24.859375 C 15 -24.097656 14.976562 -23.332031 14.96875 -22.5625 C 14.957031 -21.789062 14.953125 -21.03125 14.953125 -20.28125 Z M 14.953125 -20.28125 "/></g></g></g><g fill="#ffffff" fill-opacity="1"><g transform="translate(78.94377, 86.448228)"><g><path d="M 15.15625 -19.6875 C 14.789062 -19.550781 14.257812 -19.429688 13.5625 -19.328125 C 12.863281 -19.234375 12.191406 -19.1875 11.546875 -19.1875 C 11.179688 -19.1875 10.851562 -19.195312 10.5625 -19.21875 C 10.269531 -19.25 10.035156 -19.304688 9.859375 -19.390625 C 9.753906 -19.617188 9.679688 -19.875 9.640625 -20.15625 C 9.597656 -20.4375 9.578125 -20.710938 9.578125 -20.984375 C 9.578125 -21.265625 9.578125 -21.535156 9.578125 -21.796875 C 9.578125 -22.066406 9.578125 -22.34375 9.578125 -22.625 C 9.378906 -22.65625 9.1875 -22.671875 9 -22.671875 C 8.820312 -22.671875 8.648438 -22.671875 8.484375 -22.671875 C 8.203125 -22.671875 7.925781 -22.65625 7.65625 -22.625 C 7.394531 -22.601562 7.125 -22.535156 6.84375 -22.421875 C 6.613281 -22.023438 6.5 -21.644531 6.5 -21.28125 C 6.476562 -20.53125 6.457031 -19.773438 6.4375 -19.015625 C 6.425781 -18.265625 6.40625 -17.507812 6.375 -16.75 C 6.375 -16.664062 6.378906 -16.582031 6.390625 -16.5 C 6.410156 -16.414062 6.40625 -16.347656 6.375 -16.296875 C 6.289062 -16.035156 6.347656 -15.769531 6.546875 -15.5 C 6.710938 -15.40625 6.878906 -15.359375 7.046875 -15.359375 C 7.128906 -15.359375 7.21875 -15.363281 7.3125 -15.375 C 7.414062 -15.394531 7.507812 -15.40625 7.59375 -15.40625 C 7.957031 -15.46875 8.320312 -15.507812 8.6875 -15.53125 C 9.050781 -15.5625 9.414062 -15.578125 9.78125 -15.578125 C 10.257812 -15.578125 10.75 -15.5625 11.25 -15.53125 C 11.75 -15.507812 12.238281 -15.453125 12.71875 -15.359375 C 13.78125 -15.222656 14.367188 -14.679688 14.484375 -13.734375 C 14.597656 -12.972656 14.6875 -12.210938 14.75 -11.453125 C 14.820312 -10.703125 14.847656 -9.945312 14.828125 -9.1875 C 14.828125 -8.320312 14.828125 -7.457031 14.828125 -6.59375 C 14.828125 -5.726562 14.828125 -4.859375 14.828125 -3.984375 C 14.828125 -3.515625 14.78125 -3.039062 14.6875 -2.5625 C 14.632812 -2.195312 14.46875 -1.890625 14.1875 -1.640625 C 13.738281 -1.210938 13.316406 -0.929688 12.921875 -0.796875 C 12.535156 -0.660156 12.050781 -0.59375 11.46875 -0.59375 C 10.675781 -0.59375 9.898438 -0.546875 9.140625 -0.453125 C 8.390625 -0.367188 7.640625 -0.300781 6.890625 -0.25 C 6.046875 -0.164062 5.203125 -0.125 4.359375 -0.125 C 3.828125 -0.125 3.238281 -0.164062 2.59375 -0.25 C 1.957031 -0.332031 1.414062 -0.539062 0.96875 -0.875 C 0.519531 -1.21875 0.265625 -1.738281 0.203125 -2.4375 C 0.0976562 -4.113281 0.046875 -5.789062 0.046875 -7.46875 C 0.046875 -9.15625 0.0546875 -10.835938 0.078125 -12.515625 C 0.078125 -13.347656 0.101562 -14.191406 0.15625 -15.046875 C 0.21875 -15.898438 0.273438 -16.75 0.328125 -17.59375 C 0.359375 -18.070312 0.410156 -18.546875 0.484375 -19.015625 C 0.554688 -19.492188 0.601562 -19.957031 0.625 -20.40625 C 0.6875 -21.070312 0.726562 -21.75 0.75 -22.4375 C 0.78125 -23.125 0.8125 -23.804688 0.84375 -24.484375 C 0.925781 -25.515625 1.050781 -26.492188 1.21875 -27.421875 C 1.269531 -27.972656 1.457031 -28.398438 1.78125 -28.703125 C 2.101562 -29.015625 2.53125 -29.242188 3.0625 -29.390625 C 3.539062 -29.523438 4.03125 -29.597656 4.53125 -29.609375 C 5.039062 -29.628906 5.546875 -29.65625 6.046875 -29.6875 C 7.054688 -29.6875 8.070312 -29.675781 9.09375 -29.65625 C 10.113281 -29.644531 11.128906 -29.625 12.140625 -29.59375 C 12.691406 -29.570312 13.265625 -29.488281 13.859375 -29.34375 C 14.472656 -29.257812 14.90625 -28.925781 15.15625 -28.34375 C 15.207031 -28.144531 15.28125 -27.960938 15.375 -27.796875 C 15.476562 -27.628906 15.546875 -27.460938 15.578125 -27.296875 C 15.628906 -27.097656 15.671875 -26.890625 15.703125 -26.671875 C 15.734375 -26.460938 15.71875 -26.273438 15.65625 -26.109375 C 15.550781 -25.660156 15.503906 -25.226562 15.515625 -24.8125 C 15.523438 -24.394531 15.503906 -23.972656 15.453125 -23.546875 C 15.421875 -23.097656 15.40625 -22.632812 15.40625 -22.15625 C 15.40625 -21.6875 15.378906 -21.210938 15.328125 -20.734375 C 15.328125 -20.546875 15.304688 -20.363281 15.265625 -20.1875 C 15.222656 -20.019531 15.1875 -19.851562 15.15625 -19.6875 Z M 6.34375 -9.53125 C 6.28125 -9.03125 6.242188 -8.535156 6.234375 -8.046875 C 6.222656 -7.554688 6.242188 -7.070312 6.296875 -6.59375 C 6.378906 -6 6.671875 -5.660156 7.171875 -5.578125 C 7.285156 -5.578125 7.390625 -5.570312 7.484375 -5.5625 C 7.585938 -5.550781 7.695312 -5.546875 7.8125 -5.546875 C 7.945312 -5.546875 8.09375 -5.550781 8.25 -5.5625 C 8.40625 -5.570312 8.550781 -5.59375 8.6875 -5.625 C 9.195312 -5.65625 9.476562 -5.945312 9.53125 -6.5 C 9.582031 -6.8125 9.609375 -7.117188 9.609375 -7.421875 C 9.609375 -7.734375 9.609375 -8.03125 9.609375 -8.3125 C 9.609375 -8.707031 9.453125 -8.988281 9.140625 -9.15625 C 8.835938 -9.320312 8.519531 -9.40625 8.1875 -9.40625 C 7.90625 -9.457031 7.628906 -9.488281 7.359375 -9.5 C 7.097656 -9.519531 6.84375 -9.546875 6.59375 -9.578125 C 6.5625 -9.578125 6.523438 -9.566406 6.484375 -9.546875 C 6.441406 -9.535156 6.394531 -9.53125 6.34375 -9.53125 Z M 6.34375 -9.53125 "/></g></g></g><g fill="#ffffff" fill-opacity="1"><g transform="translate(95.484166, 86.448228)"><g><path d="M 14.359375 -34.890625 C 14.410156 -34.742188 14.503906 -34.503906 14.640625 -34.171875 C 14.785156 -33.835938 14.894531 -33.5 14.96875 -33.15625 C 15.039062 -32.820312 15.003906 -32.570312 14.859375 -32.40625 C 14.835938 -32.351562 14.753906 -32.300781 14.609375 -32.25 C 14.210938 -32.070312 13.828125 -31.9375 13.453125 -31.84375 C 13.078125 -31.75 12.691406 -31.703125 12.296875 -31.703125 C 11.910156 -31.703125 11.472656 -31.753906 10.984375 -31.859375 C 10.492188 -31.972656 10.050781 -32.113281 9.65625 -32.28125 C 9.457031 -32.394531 9.242188 -32.492188 9.015625 -32.578125 C 8.796875 -32.660156 8.578125 -32.703125 8.359375 -32.703125 C 8.160156 -32.703125 7.941406 -32.664062 7.703125 -32.59375 C 7.460938 -32.53125 7.234375 -32.457031 7.015625 -32.375 C 6.898438 -32.3125 6.800781 -32.28125 6.71875 -32.28125 C 6.488281 -32.28125 6.320312 -32.351562 6.21875 -32.5 C 6.15625 -32.550781 6.117188 -32.617188 6.109375 -32.703125 C 6.097656 -32.785156 6.0625 -32.859375 6 -32.921875 C 5.914062 -33.109375 5.816406 -33.269531 5.703125 -33.40625 C 5.597656 -33.550781 5.503906 -33.722656 5.421875 -33.921875 C 5.078125 -34.679688 5.285156 -35.269531 6.046875 -35.6875 C 6.347656 -35.882812 6.675781 -36.046875 7.03125 -36.171875 C 7.382812 -36.296875 7.742188 -36.359375 8.109375 -36.359375 C 8.328125 -36.359375 8.5625 -36.316406 8.8125 -36.234375 C 8.875 -36.203125 8.929688 -36.179688 8.984375 -36.171875 C 9.035156 -36.160156 9.078125 -36.140625 9.109375 -36.109375 C 9.421875 -35.992188 9.703125 -35.859375 9.953125 -35.703125 C 10.203125 -35.554688 10.46875 -35.425781 10.75 -35.3125 C 11.050781 -35.226562 11.332031 -35.1875 11.59375 -35.1875 C 12.0625 -35.1875 12.59375 -35.296875 13.1875 -35.515625 C 13.289062 -35.546875 13.429688 -35.5625 13.609375 -35.5625 C 13.660156 -35.5625 13.691406 -35.5625 13.703125 -35.5625 C 13.722656 -35.5625 13.742188 -35.5625 13.765625 -35.5625 C 13.910156 -35.53125 14.035156 -35.441406 14.140625 -35.296875 C 14.253906 -35.160156 14.328125 -35.023438 14.359375 -34.890625 Z M 18.71875 -2.890625 C 18.75 -2.617188 18.765625 -2.332031 18.765625 -2.03125 C 18.765625 -1.738281 18.695312 -1.46875 18.5625 -1.21875 C 18.414062 -0.882812 18.175781 -0.628906 17.84375 -0.453125 C 17.507812 -0.285156 17.160156 -0.148438 16.796875 -0.046875 C 16.097656 0.117188 15.351562 0.203125 14.5625 0.203125 C 13.300781 0.203125 12.492188 -0.128906 12.140625 -0.796875 C 11.796875 -1.472656 11.625 -2.367188 11.625 -3.484375 C 11.625 -3.929688 11.523438 -4.234375 11.328125 -4.390625 C 11.140625 -4.546875 10.847656 -4.625 10.453125 -4.625 C 10.117188 -4.625 9.78125 -4.625 9.4375 -4.625 C 9.101562 -4.625 8.769531 -4.625 8.4375 -4.625 C 8.320312 -4.625 8.207031 -4.625 8.09375 -4.625 C 7.988281 -4.625 7.878906 -4.59375 7.765625 -4.53125 C 7.566406 -4.414062 7.425781 -4.257812 7.34375 -4.0625 C 7.257812 -3.875 7.191406 -3.664062 7.140625 -3.4375 C 6.859375 -2.4375 6.515625 -1.601562 6.109375 -0.9375 C 5.703125 -0.28125 4.925781 0.046875 3.78125 0.046875 C 3.445312 0.046875 3.117188 0.0351562 2.796875 0.015625 C 2.472656 0.00390625 2.144531 -0.015625 1.8125 -0.046875 C 1.25 -0.0976562 0.804688 -0.253906 0.484375 -0.515625 C 0.160156 -0.785156 0 -1.226562 0 -1.84375 C 0.03125 -2.601562 0.140625 -3.359375 0.328125 -4.109375 C 0.523438 -4.867188 0.722656 -5.597656 0.921875 -6.296875 C 1.234375 -7.359375 1.539062 -8.421875 1.84375 -9.484375 C 2.15625 -10.546875 2.453125 -11.625 2.734375 -12.71875 C 2.984375 -13.613281 3.179688 -14.519531 3.328125 -15.4375 C 3.484375 -16.363281 3.660156 -17.273438 3.859375 -18.171875 C 4.191406 -19.742188 4.546875 -21.320312 4.921875 -22.90625 C 5.304688 -24.488281 5.75 -26.046875 6.25 -27.578125 C 6.3125 -27.742188 6.375 -27.914062 6.4375 -28.09375 C 6.507812 -28.28125 6.601562 -28.445312 6.71875 -28.59375 C 7 -28.925781 7.40625 -29.160156 7.9375 -29.296875 C 8.46875 -29.441406 9.023438 -29.523438 9.609375 -29.546875 C 10.203125 -29.578125 10.691406 -29.59375 11.078125 -29.59375 C 12.398438 -29.59375 13.289062 -29.320312 13.75 -28.78125 C 14.207031 -28.238281 14.519531 -27.347656 14.6875 -26.109375 C 14.78125 -25.578125 14.878906 -25.050781 14.984375 -24.53125 C 15.097656 -24.019531 15.195312 -23.5 15.28125 -22.96875 C 15.363281 -22.351562 15.429688 -21.742188 15.484375 -21.140625 C 15.546875 -20.535156 15.660156 -19.941406 15.828125 -19.359375 C 15.960938 -18.960938 16.066406 -18.5625 16.140625 -18.15625 C 16.210938 -17.75 16.289062 -17.351562 16.375 -16.96875 C 16.425781 -16.625 16.492188 -16.285156 16.578125 -15.953125 C 16.660156 -15.617188 16.742188 -15.285156 16.828125 -14.953125 C 17.054688 -14.054688 17.203125 -13.144531 17.265625 -12.21875 C 17.335938 -11.289062 17.472656 -10.367188 17.671875 -9.453125 C 17.898438 -8.378906 18.101562 -7.296875 18.28125 -6.203125 C 18.46875 -5.117188 18.613281 -4.015625 18.71875 -2.890625 Z M 10.53125 -9.78125 C 10.726562 -9.863281 10.800781 -10.03125 10.75 -10.28125 C 10.71875 -11.257812 10.625 -12.21875 10.46875 -13.15625 C 10.320312 -14.09375 10.132812 -15.039062 9.90625 -16 C 9.90625 -16 9.894531 -16 9.875 -16 C 9.863281 -16 9.847656 -16 9.828125 -16 C 9.765625 -16 9.671875 -15.800781 9.546875 -15.40625 C 9.421875 -15.019531 9.300781 -14.613281 9.1875 -14.1875 C 9.082031 -13.769531 9.015625 -13.519531 8.984375 -13.4375 C 8.816406 -12.925781 8.660156 -12.421875 8.515625 -11.921875 C 8.378906 -11.421875 8.296875 -10.90625 8.265625 -10.375 C 8.210938 -10.175781 8.242188 -10.019531 8.359375 -9.90625 C 8.441406 -9.820312 8.609375 -9.78125 8.859375 -9.78125 C 9.078125 -9.78125 9.3125 -9.769531 9.5625 -9.75 C 9.820312 -9.738281 10.0625 -9.734375 10.28125 -9.734375 C 10.394531 -9.734375 10.476562 -9.75 10.53125 -9.78125 Z M 10.53125 -9.78125 "/></g></g></g><g fill="#ffffff" fill-opacity="1"><g transform="translate(115.131133, 86.448228)"><g><path d="M 14.40625 -3.28125 C 14.238281 -2.570312 13.941406 -2.03125 13.515625 -1.65625 C 13.097656 -1.28125 12.523438 -1.019531 11.796875 -0.875 C 11.316406 -0.789062 10.832031 -0.742188 10.34375 -0.734375 C 9.851562 -0.722656 9.375 -0.703125 8.90625 -0.671875 C 8.34375 -0.640625 7.773438 -0.570312 7.203125 -0.46875 C 6.628906 -0.375 6.0625 -0.316406 5.5 -0.296875 C 5.414062 -0.296875 5.332031 -0.296875 5.25 -0.296875 C 5.164062 -0.296875 5.066406 -0.296875 4.953125 -0.296875 C 3.492188 -0.296875 2.414062 -0.648438 1.71875 -1.359375 C 1.019531 -2.078125 0.554688 -2.992188 0.328125 -4.109375 C 0.109375 -5.234375 0 -6.394531 0 -7.59375 C 0 -9.46875 0.0390625 -11.320312 0.125 -13.15625 C 0.207031 -14.988281 0.320312 -16.84375 0.46875 -18.71875 C 0.519531 -19.363281 0.570312 -19.992188 0.625 -20.609375 C 0.6875 -21.222656 0.726562 -21.84375 0.75 -22.46875 C 0.78125 -22.914062 0.800781 -23.363281 0.8125 -23.8125 C 0.832031 -24.257812 0.851562 -24.707031 0.875 -25.15625 C 0.90625 -25.289062 0.929688 -25.4375 0.953125 -25.59375 C 0.984375 -25.75 1.03125 -25.878906 1.09375 -25.984375 C 1.226562 -26.296875 1.359375 -26.601562 1.484375 -26.90625 C 1.609375 -27.21875 1.757812 -27.515625 1.9375 -27.796875 C 2.15625 -28.210938 2.457031 -28.523438 2.84375 -28.734375 C 3.238281 -28.941406 3.660156 -29.0625 4.109375 -29.09375 C 5.003906 -29.175781 5.890625 -29.21875 6.765625 -29.21875 C 7.484375 -29.21875 8.222656 -29.1875 8.984375 -29.125 C 9.742188 -29.070312 10.472656 -28.992188 11.171875 -28.890625 C 11.535156 -28.859375 11.890625 -28.800781 12.234375 -28.71875 C 12.585938 -28.632812 12.945312 -28.550781 13.3125 -28.46875 C 13.8125 -28.300781 14.175781 -27.976562 14.40625 -27.5 C 14.65625 -26.769531 14.851562 -26.085938 15 -25.453125 C 15.15625 -24.828125 15.289062 -24.109375 15.40625 -23.296875 C 15.4375 -23.046875 15.4375 -22.78125 15.40625 -22.5 C 15.375 -22.21875 15.347656 -21.9375 15.328125 -21.65625 C 15.328125 -20.988281 15.328125 -20.3125 15.328125 -19.625 C 15.328125 -18.9375 15.328125 -18.257812 15.328125 -17.59375 C 15.296875 -17.257812 15.269531 -16.921875 15.25 -16.578125 C 15.238281 -16.242188 15.222656 -15.925781 15.203125 -15.625 C 15.171875 -15.09375 15.140625 -14.550781 15.109375 -14 C 15.085938 -13.457031 15.078125 -12.921875 15.078125 -12.390625 C 15.015625 -10.984375 14.96875 -9.582031 14.9375 -8.1875 C 14.914062 -6.789062 14.78125 -5.390625 14.53125 -3.984375 C 14.5 -3.878906 14.472656 -3.769531 14.453125 -3.65625 C 14.441406 -3.539062 14.425781 -3.414062 14.40625 -3.28125 Z M 8.859375 -21.5 C 8.660156 -21.78125 8.351562 -21.921875 7.9375 -21.921875 C 7.488281 -21.921875 7.128906 -21.800781 6.859375 -21.5625 C 6.597656 -21.320312 6.46875 -20.960938 6.46875 -20.484375 C 6.4375 -20.066406 6.410156 -19.644531 6.390625 -19.21875 C 6.378906 -18.800781 6.375 -18.367188 6.375 -17.921875 C 6.375 -17.109375 6.414062 -16.300781 6.5 -15.5 C 6.5625 -14.539062 6.554688 -13.578125 6.484375 -12.609375 C 6.410156 -11.648438 6.363281 -10.679688 6.34375 -9.703125 C 6.3125 -9.359375 6.300781 -9.007812 6.3125 -8.65625 C 6.332031 -8.3125 6.351562 -7.972656 6.375 -7.640625 C 6.40625 -7.359375 6.546875 -7.132812 6.796875 -6.96875 C 7.046875 -6.800781 7.3125 -6.71875 7.59375 -6.71875 C 7.757812 -6.769531 7.925781 -6.816406 8.09375 -6.859375 C 8.269531 -6.898438 8.441406 -6.953125 8.609375 -7.015625 C 8.804688 -7.097656 8.96875 -7.203125 9.09375 -7.328125 C 9.21875 -7.453125 9.296875 -7.625 9.328125 -7.84375 C 9.378906 -8.15625 9.40625 -8.472656 9.40625 -8.796875 C 9.40625 -9.117188 9.40625 -9.429688 9.40625 -9.734375 C 9.4375 -10.046875 9.441406 -10.351562 9.421875 -10.65625 C 9.410156 -10.96875 9.40625 -11.265625 9.40625 -11.546875 C 9.4375 -11.960938 9.460938 -12.378906 9.484375 -12.796875 C 9.515625 -13.222656 9.515625 -13.644531 9.484375 -14.0625 C 9.460938 -14.875 9.4375 -15.675781 9.40625 -16.46875 C 9.375 -17.269531 9.332031 -18.0625 9.28125 -18.84375 C 9.25 -19.289062 9.210938 -19.738281 9.171875 -20.1875 C 9.128906 -20.632812 9.023438 -21.070312 8.859375 -21.5 Z M 8.859375 -21.5 "/></g></g></g><g fill="#ffffff" fill-opacity="1"><g transform="translate(133.606689, 79.564607)"><g><path d="M 6.515625 -10.375 C 6.421875 -10.382812 6.320312 -10.394531 6.21875 -10.40625 C 6.113281 -10.414062 6.007812 -10.4375 5.90625 -10.46875 C 5.851562 -10.476562 5.796875 -10.488281 5.734375 -10.5 C 5.671875 -10.507812 5.613281 -10.519531 5.5625 -10.53125 C 5.269531 -10.613281 4.921875 -10.738281 4.515625 -10.90625 C 4.109375 -11.082031 3.789062 -11.269531 3.5625 -11.46875 C 3.550781 -11.644531 3.554688 -11.8125 3.578125 -11.96875 C 3.609375 -12.132812 3.644531 -12.296875 3.6875 -12.453125 C 3.8125 -12.898438 3.929688 -13.34375 4.046875 -13.78125 C 4.160156 -14.226562 4.28125 -14.671875 4.40625 -15.109375 C 4.625 -15.734375 4.867188 -16.179688 5.140625 -16.453125 C 5.421875 -16.734375 5.765625 -16.882812 6.171875 -16.90625 C 6.585938 -16.9375 7.113281 -16.878906 7.75 -16.734375 C 8.070312 -16.671875 8.378906 -16.609375 8.671875 -16.546875 C 8.960938 -16.484375 9.265625 -16.410156 9.578125 -16.328125 C 9.660156 -16.304688 9.738281 -16.289062 9.8125 -16.28125 C 9.894531 -16.269531 9.972656 -16.253906 10.046875 -16.234375 C 10.597656 -16.066406 11.140625 -15.804688 11.671875 -15.453125 C 12.210938 -15.109375 12.601562 -14.675781 12.84375 -14.15625 C 13.113281 -13.625 13.171875 -13.097656 13.015625 -12.578125 C 12.859375 -12.054688 12.726562 -11.53125 12.625 -11 C 12.5 -10.46875 12.347656 -9.921875 12.171875 -9.359375 C 11.992188 -8.796875 11.675781 -8.316406 11.21875 -7.921875 C 11.09375 -7.816406 10.957031 -7.71875 10.8125 -7.625 C 10.675781 -7.539062 10.53125 -7.445312 10.375 -7.34375 C 9.894531 -7.09375 9.425781 -6.832031 8.96875 -6.5625 C 8.507812 -6.289062 8.039062 -6.019531 7.5625 -5.75 C 7.050781 -5.457031 6.546875 -5.128906 6.046875 -4.765625 C 5.546875 -4.398438 5.175781 -3.941406 4.9375 -3.390625 C 4.875 -3.273438 4.851562 -3.15625 4.875 -3.03125 C 4.875 -2.925781 4.914062 -2.835938 5 -2.765625 C 5.082031 -2.691406 5.171875 -2.625 5.265625 -2.5625 C 5.390625 -2.46875 5.539062 -2.394531 5.71875 -2.34375 C 5.738281 -2.34375 5.773438 -2.332031 5.828125 -2.3125 C 5.878906 -2.300781 5.929688 -2.296875 5.984375 -2.296875 C 6.285156 -2.285156 6.507812 -2.375 6.65625 -2.5625 C 6.800781 -2.757812 6.914062 -2.984375 7 -3.234375 C 7.082031 -3.492188 7.160156 -3.734375 7.234375 -3.953125 C 7.328125 -4.253906 7.492188 -4.4375 7.734375 -4.5 C 7.984375 -4.5625 8.253906 -4.570312 8.546875 -4.53125 C 8.835938 -4.488281 9.09375 -4.429688 9.3125 -4.359375 C 9.925781 -4.148438 10.265625 -3.804688 10.328125 -3.328125 C 10.398438 -2.847656 10.359375 -2.347656 10.203125 -1.828125 C 10.046875 -1.296875 9.894531 -0.773438 9.75 -0.265625 C 9.601562 0.242188 9.425781 0.75 9.21875 1.25 C 9.144531 1.445312 9.046875 1.601562 8.921875 1.71875 C 8.796875 1.84375 8.660156 1.953125 8.515625 2.046875 C 8.484375 2.066406 8.429688 2.082031 8.359375 2.09375 C 8.296875 2.113281 8.242188 2.125 8.203125 2.125 C 8.035156 2.09375 7.863281 2.0625 7.6875 2.03125 C 7.507812 2.007812 7.332031 1.988281 7.15625 1.96875 C 6.769531 1.90625 6.382812 1.832031 6 1.75 C 5.613281 1.664062 5.226562 1.582031 4.84375 1.5 C 4.644531 1.4375 4.445312 1.367188 4.25 1.296875 C 4.050781 1.222656 3.851562 1.160156 3.65625 1.109375 C 3.363281 0.992188 3.066406 0.882812 2.765625 0.78125 C 2.472656 0.6875 2.1875 0.59375 1.90625 0.5 C 1.664062 0.414062 1.445312 0.3125 1.25 0.1875 C 1.0625 0.0703125 0.890625 -0.09375 0.734375 -0.3125 C 0.597656 -0.488281 0.546875 -0.671875 0.578125 -0.859375 C 0.617188 -1.097656 0.65625 -1.328125 0.6875 -1.546875 C 0.726562 -1.765625 0.765625 -1.972656 0.796875 -2.171875 C 0.953125 -2.773438 1.101562 -3.378906 1.25 -3.984375 C 1.394531 -4.585938 1.644531 -5.144531 2 -5.65625 C 2.425781 -6.226562 2.851562 -6.710938 3.28125 -7.109375 C 3.707031 -7.503906 4.175781 -7.851562 4.6875 -8.15625 C 5.207031 -8.46875 5.789062 -8.773438 6.4375 -9.078125 C 6.632812 -9.171875 6.832031 -9.273438 7.03125 -9.390625 C 7.238281 -9.503906 7.445312 -9.613281 7.65625 -9.71875 C 7.78125 -9.757812 7.90625 -9.816406 8.03125 -9.890625 C 8.164062 -9.960938 8.28125 -10.050781 8.375 -10.15625 C 8.613281 -10.34375 8.800781 -10.582031 8.9375 -10.875 C 9.070312 -11.164062 9.078125 -11.460938 8.953125 -11.765625 C 8.847656 -11.867188 8.71875 -11.945312 8.5625 -12 C 8.414062 -12.0625 8.265625 -12.113281 8.109375 -12.15625 C 7.992188 -12.195312 7.875 -12.226562 7.75 -12.25 C 7.632812 -12.28125 7.519531 -12.304688 7.40625 -12.328125 C 7.28125 -12.023438 7.164062 -11.691406 7.0625 -11.328125 C 6.957031 -10.972656 6.773438 -10.65625 6.515625 -10.375 Z M 6.515625 -10.375 "/></g></g></g><g fill="#ffffff" fill-opacity="1"><g transform="translate(143.050646, 82.323334)"><g><path d="M 0.515625 -1.578125 C 0.679688 -1.722656 0.925781 -1.785156 1.25 -1.765625 C 1.582031 -1.742188 1.847656 -1.703125 2.046875 -1.640625 C 2.222656 -1.585938 2.375 -1.519531 2.5 -1.4375 C 2.632812 -1.351562 2.703125 -1.238281 2.703125 -1.09375 C 2.703125 -1.03125 2.691406 -0.960938 2.671875 -0.890625 C 2.648438 -0.828125 2.628906 -0.757812 2.609375 -0.6875 C 2.585938 -0.613281 2.5625 -0.535156 2.53125 -0.453125 C 2.507812 -0.367188 2.488281 -0.289062 2.46875 -0.21875 C 2.394531 0.03125 2.289062 0.253906 2.15625 0.453125 C 2.03125 0.648438 1.828125 0.769531 1.546875 0.8125 C 1.460938 0.8125 1.375 0.800781 1.28125 0.78125 C 1.195312 0.757812 1.113281 0.734375 1.03125 0.703125 C 0.957031 0.679688 0.890625 0.660156 0.828125 0.640625 C 0.773438 0.628906 0.707031 0.613281 0.625 0.59375 C 0.488281 0.550781 0.363281 0.476562 0.25 0.375 C 0.144531 0.28125 0.101562 0.15625 0.125 0 C 0.101562 -0.113281 0.101562 -0.210938 0.125 -0.296875 C 0.144531 -0.390625 0.171875 -0.484375 0.203125 -0.578125 C 0.234375 -0.679688 0.257812 -0.785156 0.28125 -0.890625 C 0.300781 -1.003906 0.328125 -1.113281 0.359375 -1.21875 C 0.367188 -1.28125 0.390625 -1.34375 0.421875 -1.40625 C 0.453125 -1.46875 0.484375 -1.523438 0.515625 -1.578125 Z M 0.515625 -1.578125 "/></g></g></g><g fill="#ffffff" fill-opacity="1"><g transform="translate(145.770504, 83.117847)"><g><path d="M 9.734375 -11.15625 C 9.460938 -10.207031 9.1875 -9.25 8.90625 -8.28125 C 8.625 -7.320312 8.34375 -6.363281 8.0625 -5.40625 C 8.039062 -5.332031 8.019531 -5.265625 8 -5.203125 C 7.976562 -5.148438 7.953125 -5.101562 7.921875 -5.0625 C 7.796875 -4.851562 7.695312 -4.628906 7.625 -4.390625 C 7.5625 -4.148438 7.5 -3.910156 7.4375 -3.671875 C 7.351562 -3.398438 7.269531 -3.140625 7.1875 -2.890625 C 7.113281 -2.648438 7.023438 -2.398438 6.921875 -2.140625 C 6.828125 -1.960938 6.753906 -1.769531 6.703125 -1.5625 C 6.648438 -1.351562 6.59375 -1.148438 6.53125 -0.953125 C 6.46875 -0.765625 6.410156 -0.570312 6.359375 -0.375 C 6.304688 -0.175781 6.25 0.0234375 6.1875 0.234375 C 6.0625 0.660156 5.773438 0.96875 5.328125 1.15625 C 5.179688 1.238281 4.941406 1.265625 4.609375 1.234375 C 4.273438 1.210938 4.023438 1.175781 3.859375 1.125 C 3.679688 1.070312 3.507812 0.992188 3.34375 0.890625 C 2.957031 0.671875 2.640625 0.429688 2.390625 0.171875 C 2.148438 -0.0859375 2.09375 -0.484375 2.21875 -1.015625 C 2.394531 -1.867188 2.601562 -2.722656 2.84375 -3.578125 C 3.082031 -4.429688 3.34375 -5.394531 3.625 -6.46875 C 3.757812 -6.914062 3.9375 -7.46875 4.15625 -8.125 C 4.375 -8.78125 4.59375 -9.453125 4.8125 -10.140625 C 4.945312 -10.453125 5.078125 -10.769531 5.203125 -11.09375 C 5.335938 -11.414062 5.460938 -11.738281 5.578125 -12.0625 C 5.535156 -12.039062 5.472656 -12.019531 5.390625 -12 C 5.253906 -11.957031 5.097656 -11.960938 4.921875 -12.015625 C 4.742188 -12.085938 4.625 -12.203125 4.5625 -12.359375 C 4.507812 -12.523438 4.476562 -12.691406 4.46875 -12.859375 C 4.457031 -13.046875 4.441406 -13.226562 4.421875 -13.40625 C 4.398438 -13.59375 4.382812 -13.78125 4.375 -13.96875 C 4.363281 -14.132812 4.351562 -14.320312 4.34375 -14.53125 C 4.34375 -14.75 4.375 -14.929688 4.4375 -15.078125 C 4.507812 -15.203125 4.601562 -15.285156 4.71875 -15.328125 C 4.84375 -15.367188 4.945312 -15.40625 5.03125 -15.4375 C 5.195312 -15.539062 5.375 -15.640625 5.5625 -15.734375 C 5.75 -15.828125 5.925781 -15.921875 6.09375 -16.015625 C 6.382812 -16.160156 6.679688 -16.300781 6.984375 -16.4375 C 7.285156 -16.570312 7.585938 -16.628906 7.890625 -16.609375 C 8.148438 -16.585938 8.410156 -16.535156 8.671875 -16.453125 C 8.804688 -16.441406 8.9375 -16.421875 9.0625 -16.390625 C 9.1875 -16.359375 9.304688 -16.328125 9.421875 -16.296875 C 9.554688 -16.273438 9.679688 -16.25 9.796875 -16.21875 C 9.910156 -16.1875 10.03125 -16.148438 10.15625 -16.109375 C 10.195312 -16.097656 10.242188 -16.082031 10.296875 -16.0625 C 10.347656 -16.050781 10.398438 -16.039062 10.453125 -16.03125 C 10.804688 -15.882812 10.953125 -15.625 10.890625 -15.25 C 10.859375 -15.019531 10.8125 -14.800781 10.75 -14.59375 C 10.6875 -14.394531 10.625 -14.191406 10.5625 -13.984375 C 10.425781 -13.515625 10.289062 -13.046875 10.15625 -12.578125 C 10.019531 -12.109375 9.878906 -11.632812 9.734375 -11.15625 Z M 9.734375 -11.15625 "/></g></g></g></svg>