<svg xmlns="http://www.w3.org/2000/svg" xmlns:xlink="http://www.w3.org/1999/xlink" width="1080" zoomAndPan="magnify" viewBox="0 0 810 809.999993" height="1080" preserveAspectRatio="xMidYMid meet" version="1.0"><defs><g/><clipPath id="c5f1f5786f"><path d="M 315 327 L 494 327 L 494 431 L 315 431 Z M 315 327 " clip-rule="nonzero"/></clipPath><clipPath id="adebe04188"><path d="M 313.914062 340.726562 L 485.394531 324.394531 L 494.222656 417.085938 L 322.742188 433.414062 Z M 313.914062 340.726562 " clip-rule="nonzero"/></clipPath><clipPath id="d03ab1736d"><path d="M 313.914062 340.726562 L 485.394531 324.394531 L 494.222656 417.085938 L 322.742188 433.414062 Z M 313.914062 340.726562 " clip-rule="nonzero"/></clipPath><clipPath id="f1129890d9"><path d="M 314.0625 340.710938 L 485.316406 324.402344 L 494.148438 417.144531 L 322.894531 433.457031 Z M 314.0625 340.710938 " clip-rule="nonzero"/></clipPath><clipPath id="ba9b9efee2"><path d="M 314.0625 340.710938 L 485.246094 324.40625 L 494.074219 417.09375 L 322.890625 433.398438 Z M 314.0625 340.710938 " clip-rule="nonzero"/></clipPath></defs><g fill="#ffffff" fill-opacity="1"><g transform="translate(20.322745, 350.081758)"><g><path d="M 15.714844 3.605469 L 25.5 3.089844 L 26.53125 3.089844 L 48.425781 2.316406 L 49.199219 1.546875 L 48.425781 -0.257812 L 45.851562 -34.515625 L 46.625 -35.804688 L 46.625 -55.898438 L 50.230469 -57.183594 L 53.320312 -57.699219 L 68.261719 -61.820312 L 81.140625 -67.230469 L 83.203125 -68.519531 L 83.972656 -69.035156 L 84.488281 -69.035156 L 85.003906 -69.808594 L 85.519531 -70.324219 L 86.292969 -70.835938 L 89.382812 -72.898438 L 89.898438 -72.898438 L 92.21875 -74.957031 L 93.503906 -74.957031 L 93.503906 -75.730469 L 97.882812 -79.082031 L 98.140625 -78.566406 L 100.71875 -82.6875 L 102.261719 -84.230469 L 102.261719 -84.746094 L 104.066406 -86.550781 L 104.066406 -88.097656 L 105.097656 -89.125 L 105.097656 -90.929688 L 105.871094 -92.992188 L 105.871094 -94.535156 L 106.640625 -94.792969 L 106.640625 -96.339844 L 107.15625 -97.882812 L 107.15625 -99.171875 L 107.929688 -101.492188 L 107.929688 -101.75 L 108.960938 -104.839844 L 108.960938 -108.1875 L 109.476562 -112.824219 L 108.960938 -124.929688 L 108.445312 -126.992188 L 108.445312 -128.539062 L 107.671875 -129.054688 L 107.671875 -132.402344 L 107.15625 -132.660156 L 106.640625 -134.976562 L 106.128906 -135.234375 L 104.066406 -141.675781 L 101.75 -146.570312 L 101.492188 -147.855469 L 100.71875 -148.628906 L 99.171875 -151.207031 L 98.914062 -151.207031 L 98.140625 -152.234375 L 97.882812 -152.75 L 97.371094 -154.554688 L 96.082031 -155.585938 L 93.503906 -159.191406 L 93.503906 -159.449219 L 92.992188 -160.738281 L 91.1875 -162.539062 L 90.929688 -163.054688 L 90.414062 -163.3125 L 87.324219 -167.175781 L 87.066406 -167.433594 L 83.460938 -171.296875 L 82.429688 -172.070312 L 81.914062 -172.84375 L 80.109375 -174.132812 L 79.851562 -174.648438 L 77.535156 -175.675781 L 71.09375 -180.570312 L 69.550781 -181.34375 L 30.910156 -178.253906 L 29.109375 -177.480469 L 20.351562 -176.964844 L 19.835938 -176.964844 L 5.667969 -175.417969 L 5.152344 -175.160156 L 5.152344 2.316406 Z M 15.714844 3.605469 "/></g></g></g><g fill="#ffffff" fill-opacity="1"><g transform="translate(134.946731, 350.081758)"><g><path d="M 95.824219 0.773438 L 121.324219 0.773438 L 121.324219 -0.515625 L 114.113281 -40.699219 L 113.597656 -42.246094 L 95.050781 -180.828125 L 93.761719 -180.828125 L 93.246094 -185.722656 L 26.789062 -188.042969 L 17.515625 -122.355469 L 17.515625 -121.582031 L 15.457031 -103.808594 L 14.167969 -99.171875 L 5.152344 -1.804688 L 6.699219 0 L 47.398438 0 L 50.230469 -64.914062 L 50.746094 -68.003906 L 51.261719 -68.003906 L 52.804688 -69.035156 L 56.414062 -69.035156 L 61.050781 -69.550781 L 65.429688 -69.550781 L 70.578125 -70.066406 L 77.277344 -70.066406 L 89.125 -14.941406 L 89.125 -14.683594 L 92.992188 0.773438 Z M 95.824219 0.773438 "/></g></g></g><g fill="#ffffff" fill-opacity="1"><g transform="translate(261.41947, 350.081758)"><g><path d="M 50.488281 -6.183594 L 66.457031 -2.316406 L 92.21875 -2.316406 L 100.460938 -4.894531 L 101.492188 -5.667969 L 106.640625 -7.46875 L 108.703125 -9.53125 L 117.203125 -16.742188 L 117.71875 -17.257812 L 124.160156 -23.957031 L 130.597656 -30.394531 L 134.460938 -37.09375 L 139.871094 -48.941406 L 139.871094 -66.457031 L 140.902344 -67.746094 L 142.960938 -118.492188 L 141.933594 -119.265625 L 124.160156 -119.265625 L 123.386719 -120.039062 L 74.703125 -122.355469 L 72.898438 -94.277344 L 73.671875 -93.761719 L 74.445312 -86.808594 L 74.445312 -86.292969 L 75.214844 -83.71875 L 77.019531 -82.945312 L 99.429688 -80.882812 L 97.625 -71.609375 L 93.761719 -60.277344 L 89.640625 -55.382812 L 89.382812 -55.125 L 88.609375 -54.09375 L 84.746094 -51.003906 L 80.367188 -48.683594 L 74.703125 -47.140625 L 71.09375 -47.140625 L 65.6875 -49.199219 L 57.957031 -55.898438 L 53.835938 -62.59375 L 52.546875 -65.941406 L 50.746094 -74.703125 L 50.230469 -88.867188 L 51.261719 -99.171875 L 51.003906 -103.550781 L 52.804688 -117.460938 L 56.414062 -126.734375 L 57.441406 -128.539062 L 59.761719 -130.339844 L 64.398438 -134.976562 L 74.957031 -141.675781 L 75.214844 -141.933594 L 79.59375 -143.734375 L 86.035156 -145.796875 L 96.597656 -144.765625 L 104.839844 -139.355469 L 106.640625 -137.039062 L 107.15625 -136.265625 L 108.703125 -134.460938 L 108.703125 -133.691406 L 110.765625 -129.824219 L 122.355469 -130.855469 L 123.128906 -131.371094 L 142.960938 -134.460938 L 143.21875 -136.523438 L 139.355469 -150.949219 L 138.070312 -153.78125 L 137.8125 -154.296875 L 136.78125 -155.84375 L 133.691406 -162.023438 L 132.917969 -162.539062 L 131.886719 -165.117188 L 129.566406 -167.949219 L 122.355469 -174.390625 L 114.113281 -179.796875 L 109.734375 -181.34375 L 107.929688 -182.632812 L 104.582031 -183.917969 L 104.066406 -183.664062 L 100.460938 -184.433594 L 89.125 -185.722656 L 78.308594 -183.917969 L 68.519531 -181.601562 L 66.199219 -180.3125 L 54.867188 -175.933594 L 44.046875 -168.980469 L 43.53125 -167.949219 L 40.957031 -166.917969 L 34.257812 -162.28125 L 33.230469 -160.738281 L 32.714844 -160.480469 L 23.441406 -150.949219 L 13.394531 -134.976562 L 7.984375 -112.308594 L 5.152344 -81.65625 L 8.757812 -59.761719 L 18.804688 -35.546875 L 26.53125 -25.242188 L 35.03125 -15.457031 L 42.503906 -10.5625 L 43.019531 -10.5625 Z M 50.488281 -6.183594 "/></g></g></g><g fill="#ffffff" fill-opacity="1"><g transform="translate(409.786703, 350.081758)"><g><path d="M 65.429688 -6.183594 L 66.199219 -5.667969 L 68.777344 -5.667969 L 75.730469 -7.46875 L 78.308594 -7.46875 L 79.082031 -7.726562 L 79.851562 -7.726562 L 90.15625 -10.5625 L 91.445312 -12.363281 L 98.140625 -15.714844 L 98.65625 -16.484375 L 103.292969 -19.320312 L 103.808594 -19.320312 L 105.613281 -20.351562 L 106.386719 -20.605469 L 106.898438 -23.183594 L 110.25 -27.5625 L 111.023438 -29.367188 L 112.824219 -31.425781 L 113.082031 -32.199219 L 114.886719 -34.515625 L 116.429688 -38.894531 L 118.75 -44.046875 L 119.007812 -44.304688 L 121.324219 -49.199219 L 122.097656 -49.714844 L 123.128906 -52.035156 L 123.128906 -52.289062 L 124.417969 -54.351562 L 124.417969 -55.898438 L 125.960938 -57.183594 L 125.960938 -57.957031 L 126.21875 -58.988281 L 126.21875 -107.414062 L 120.039062 -134.203125 L 118.75 -136.523438 L 118.234375 -138.582031 L 110.25 -155.328125 L 102.261719 -161.765625 L 101.492188 -162.796875 L 92.992188 -166.917969 L 91.960938 -167.175781 L 86.550781 -169.753906 L 86.035156 -170.011719 L 73.671875 -171.039062 L 60.019531 -170.265625 L 42.503906 -165.886719 L 39.410156 -163.570312 L 33.488281 -160.996094 L 30.394531 -157.644531 L 17.773438 -139.097656 L 9.53125 -116.945312 L 6.699219 -99.429688 L 5.925781 -89.382812 L 5.925781 -89.125 L 5.152344 -80.367188 L 5.152344 -53.835938 L 11.335938 -36.0625 L 13.652344 -32.199219 L 14.941406 -31.167969 L 23.441406 -20.605469 L 24.214844 -20.605469 L 24.472656 -20.351562 L 26.789062 -19.320312 L 27.304688 -18.804688 L 27.820312 -18.546875 L 28.078125 -18.289062 L 36.0625 -13.394531 L 36.835938 -13.394531 L 37.609375 -12.878906 L 39.667969 -11.589844 L 42.246094 -11.335938 L 63.882812 -6.183594 Z M 65.429688 -6.183594 "/></g></g></g><g fill="#ffffff" fill-opacity="1"><g transform="translate(541.153521, 350.081758)"><g><path d="M 14.683594 -2.574219 L 48.941406 -2.574219 L 51.003906 -3.089844 L 59.761719 -3.863281 L 62.335938 -4.636719 L 72.382812 -6.441406 L 72.382812 -5.925781 L 73.15625 -6.441406 L 77.535156 -7.46875 L 79.082031 -10.046875 L 80.625 -11.078125 L 80.882812 -11.335938 L 82.6875 -12.105469 L 84.230469 -13.910156 L 92.992188 -20.863281 L 93.503906 -21.378906 L 95.050781 -22.152344 L 97.113281 -24.214844 L 101.492188 -27.304688 L 105.871094 -33.746094 L 107.671875 -35.804688 L 107.929688 -36.320312 L 114.113281 -45.851562 L 121.324219 -61.5625 L 124.160156 -69.808594 L 126.734375 -90.15625 L 124.675781 -106.640625 L 118.75 -124.675781 L 114.113281 -133.945312 L 110.507812 -139.613281 L 109.734375 -141.417969 L 106.386719 -145.796875 L 105.871094 -146.3125 L 100.203125 -153.78125 L 95.566406 -158.933594 L 88.097656 -163.828125 L 85.519531 -164.859375 L 84.746094 -165.886719 L 83.972656 -166.144531 L 83.460938 -166.660156 L 82.6875 -166.917969 L 79.082031 -169.753906 L 76.761719 -170.265625 L 75.988281 -170.78125 L 56.414062 -179.027344 L 35.289062 -184.433594 L 7.46875 -184.433594 L 5.152344 -156.613281 L 5.152344 -61.5625 L 5.925781 -60.792969 L 10.046875 -6.441406 L 11.078125 -3.089844 L 14.167969 -3.089844 Z M 14.683594 -2.574219 "/></g></g></g><g fill="#ffffff" fill-opacity="1"><g transform="translate(673.035507, 350.081758)"><g><path d="M 104.582031 -6.953125 L 109.21875 -8.242188 L 109.21875 -43.789062 L 108.445312 -44.304688 L 53.835938 -44.304688 L 52.804688 -46.882812 L 51.003906 -87.066406 L 54.351562 -87.839844 L 110.507812 -93.503906 L 111.535156 -95.308594 L 111.535156 -119.523438 L 110.507812 -120.808594 L 109.21875 -120.292969 L 48.941406 -117.71875 L 48.167969 -119.265625 L 47.140625 -119.523438 L 43.789062 -150.691406 L 44.5625 -151.722656 L 99.945312 -155.585938 L 109.992188 -155.585938 L 111.023438 -156.871094 L 111.023438 -178.253906 L 109.992188 -180.828125 L 109.21875 -180.828125 L 108.703125 -181.085938 L 85.003906 -182.890625 L 83.71875 -182.117188 L 67.746094 -182.117188 L 67.230469 -182.375 L 66.199219 -182.632812 L 65.6875 -182.375 L 16.742188 -182.375 L 5.152344 -181.601562 L 11.847656 -5.152344 Z M 104.582031 -6.953125 "/></g></g></g><g fill="#ffffff" fill-opacity="1"><g transform="translate(72.479276, 592.169534)"><g><path d="M 97.882812 2.316406 L 124.929688 2.316406 L 126.476562 1.804688 L 126.476562 -1.804688 L 126.992188 -10.820312 L 127.507812 -11.589844 L 127.507812 -17 L 128.28125 -21.636719 L 128.28125 -28.851562 L 128.796875 -31.425781 L 129.308594 -38.636719 L 129.308594 -41.472656 L 130.082031 -53.835938 L 130.597656 -57.957031 L 130.082031 -58.214844 L 130.597656 -60.019531 L 130.597656 -62.59375 L 131.371094 -62.59375 L 131.371094 -68.003906 L 131.628906 -69.550781 L 131.886719 -76.761719 L 132.402344 -77.792969 L 131.886719 -78.050781 L 132.402344 -79.59375 L 133.433594 -86.035156 L 132.917969 -86.808594 L 133.175781 -88.097656 L 133.175781 -90.671875 L 133.433594 -91.703125 L 133.433594 -102.007812 L 134.71875 -114.886719 L 134.71875 -136.78125 L 134.976562 -138.328125 L 137.039062 -179.539062 L 123.386719 -179.539062 L 121.324219 -180.3125 L 110.25 -180.828125 L 105.871094 -181.34375 L 91.703125 -181.34375 L 91.703125 -64.398438 L 74.957031 -98.398438 L 57.441406 -149.660156 L 57.183594 -151.207031 L 49.199219 -175.933594 L 46.625 -182.632812 L 33.230469 -182.632812 L 30.652344 -183.148438 L 7.984375 -183.148438 L 7.984375 -1.804688 L 5.152344 0 L 5.925781 0.773438 L 45.078125 0.773438 L 46.882812 1.546875 L 47.140625 0.257812 L 47.140625 -19.320312 L 46.882812 -20.605469 L 46.882812 -49.199219 L 45.59375 -49.199219 L 44.304688 -84.488281 L 44.5625 -83.972656 L 52.804688 -63.109375 L 53.320312 -62.335938 L 58.214844 -49.714844 L 58.730469 -49.199219 L 61.304688 -41.214844 L 61.820312 -40.441406 L 67.230469 -26.789062 L 67.746094 -26.015625 L 77.535156 -2.574219 L 78.050781 -1.804688 L 79.339844 1.03125 L 83.460938 1.804688 L 93.761719 1.804688 Z M 97.882812 2.316406 "/></g></g></g><g fill="#ffffff" fill-opacity="1"><g transform="translate(214.664513, 592.169534)"><g><path d="M 104.582031 -6.953125 L 109.21875 -8.242188 L 109.21875 -43.789062 L 108.445312 -44.304688 L 53.835938 -44.304688 L 52.804688 -46.882812 L 51.003906 -87.066406 L 54.351562 -87.839844 L 110.507812 -93.503906 L 111.535156 -95.308594 L 111.535156 -119.523438 L 110.507812 -120.808594 L 109.21875 -120.292969 L 48.941406 -117.71875 L 48.167969 -119.265625 L 47.140625 -119.523438 L 43.789062 -150.691406 L 44.5625 -151.722656 L 99.945312 -155.585938 L 109.992188 -155.585938 L 111.023438 -156.871094 L 111.023438 -178.253906 L 109.992188 -180.828125 L 109.21875 -180.828125 L 108.703125 -181.085938 L 85.003906 -182.890625 L 83.71875 -182.117188 L 67.746094 -182.117188 L 67.230469 -182.375 L 66.199219 -182.632812 L 65.6875 -182.375 L 16.742188 -182.375 L 5.152344 -181.601562 L 11.847656 -5.152344 Z M 104.582031 -6.953125 "/></g></g></g><g fill="#ffffff" fill-opacity="1"><g transform="translate(331.349164, 592.169534)"><g><path d="M 50.488281 -6.183594 L 66.457031 -2.316406 L 92.21875 -2.316406 L 100.460938 -4.894531 L 101.492188 -5.667969 L 106.640625 -7.46875 L 108.703125 -9.53125 L 117.203125 -16.742188 L 117.71875 -17.257812 L 124.160156 -23.957031 L 130.597656 -30.394531 L 134.460938 -37.09375 L 139.871094 -48.941406 L 139.871094 -66.457031 L 140.902344 -67.746094 L 142.960938 -118.492188 L 141.933594 -119.265625 L 124.160156 -119.265625 L 123.386719 -120.039062 L 74.703125 -122.355469 L 72.898438 -94.277344 L 73.671875 -93.761719 L 74.445312 -86.808594 L 74.445312 -86.292969 L 75.214844 -83.71875 L 77.019531 -82.945312 L 99.429688 -80.882812 L 97.625 -71.609375 L 93.761719 -60.277344 L 89.640625 -55.382812 L 89.382812 -55.125 L 88.609375 -54.09375 L 84.746094 -51.003906 L 80.367188 -48.683594 L 74.703125 -47.140625 L 71.09375 -47.140625 L 65.6875 -49.199219 L 57.957031 -55.898438 L 53.835938 -62.59375 L 52.546875 -65.941406 L 50.746094 -74.703125 L 50.230469 -88.867188 L 51.261719 -99.171875 L 51.003906 -103.550781 L 52.804688 -117.460938 L 56.414062 -126.734375 L 57.441406 -128.539062 L 59.761719 -130.339844 L 64.398438 -134.976562 L 74.957031 -141.675781 L 75.214844 -141.933594 L 79.59375 -143.734375 L 86.035156 -145.796875 L 96.597656 -144.765625 L 104.839844 -139.355469 L 106.640625 -137.039062 L 107.15625 -136.265625 L 108.703125 -134.460938 L 108.703125 -133.691406 L 110.765625 -129.824219 L 122.355469 -130.855469 L 123.128906 -131.371094 L 142.960938 -134.460938 L 143.21875 -136.523438 L 139.355469 -150.949219 L 138.070312 -153.78125 L 137.8125 -154.296875 L 136.78125 -155.84375 L 133.691406 -162.023438 L 132.917969 -162.539062 L 131.886719 -165.117188 L 129.566406 -167.949219 L 122.355469 -174.390625 L 114.113281 -179.796875 L 109.734375 -181.34375 L 107.929688 -182.632812 L 104.582031 -183.917969 L 104.066406 -183.664062 L 100.460938 -184.433594 L 89.125 -185.722656 L 78.308594 -183.917969 L 68.519531 -181.601562 L 66.199219 -180.3125 L 54.867188 -175.933594 L 44.046875 -168.980469 L 43.53125 -167.949219 L 40.957031 -166.917969 L 34.257812 -162.28125 L 33.230469 -160.738281 L 32.714844 -160.480469 L 23.441406 -150.949219 L 13.394531 -134.976562 L 7.984375 -112.308594 L 5.152344 -81.65625 L 8.757812 -59.761719 L 18.804688 -35.546875 L 26.53125 -25.242188 L 35.03125 -15.457031 L 42.503906 -10.5625 L 43.019531 -10.5625 Z M 50.488281 -6.183594 "/></g></g></g><g fill="#ffffff" fill-opacity="1"><g transform="translate(479.716397, 592.169534)"><g><path d="M 95.824219 0.773438 L 121.324219 0.773438 L 121.324219 -0.515625 L 114.113281 -40.699219 L 113.597656 -42.246094 L 95.050781 -180.828125 L 93.761719 -180.828125 L 93.246094 -185.722656 L 26.789062 -188.042969 L 17.515625 -122.355469 L 17.515625 -121.582031 L 15.457031 -103.808594 L 14.167969 -99.171875 L 5.152344 -1.804688 L 6.699219 0 L 47.398438 0 L 50.230469 -64.914062 L 50.746094 -68.003906 L 51.261719 -68.003906 L 52.804688 -69.035156 L 56.414062 -69.035156 L 61.050781 -69.550781 L 65.429688 -69.550781 L 70.578125 -70.066406 L 77.277344 -70.066406 L 89.125 -14.941406 L 89.125 -14.683594 L 92.992188 0.773438 Z M 55.640625 -202.464844 L 64.65625 -199.632812 L 73.671875 -199.632812 L 74.445312 -200.40625 L 81.398438 -203.238281 L 86.550781 -207.101562 L 95.566406 -216.632812 L 97.625 -225.132812 L 97.625 -228.742188 L 83.203125 -235.695312 L 81.140625 -233.121094 L 74.1875 -225.90625 L 69.808594 -222.816406 L 65.941406 -222.042969 L 60.277344 -222.042969 L 55.640625 -225.90625 L 55.382812 -226.421875 L 48.167969 -232.089844 L 41.472656 -233.890625 L 32.199219 -233.890625 L 30.136719 -232.863281 L 24.730469 -228.742188 L 22.925781 -226.9375 L 21.636719 -224.105469 L 17.515625 -217.40625 L 14.941406 -208.90625 L 25.5 -203.496094 L 29.878906 -200.40625 L 31.167969 -200.40625 L 38.636719 -207.617188 L 39.667969 -207.617188 L 42.503906 -208.132812 L 43.273438 -207.617188 L 44.5625 -207.617188 L 47.398438 -206.84375 Z M 55.640625 -202.464844 "/></g></g></g><g fill="#ffffff" fill-opacity="1"><g transform="translate(606.189136, 592.169534)"><g><path d="M 65.429688 -6.183594 L 66.199219 -5.667969 L 68.777344 -5.667969 L 75.730469 -7.46875 L 78.308594 -7.46875 L 79.082031 -7.726562 L 79.851562 -7.726562 L 90.15625 -10.5625 L 91.445312 -12.363281 L 98.140625 -15.714844 L 98.65625 -16.484375 L 103.292969 -19.320312 L 103.808594 -19.320312 L 105.613281 -20.351562 L 106.386719 -20.605469 L 106.898438 -23.183594 L 110.25 -27.5625 L 111.023438 -29.367188 L 112.824219 -31.425781 L 113.082031 -32.199219 L 114.886719 -34.515625 L 116.429688 -38.894531 L 118.75 -44.046875 L 119.007812 -44.304688 L 121.324219 -49.199219 L 122.097656 -49.714844 L 123.128906 -52.035156 L 123.128906 -52.289062 L 124.417969 -54.351562 L 124.417969 -55.898438 L 125.960938 -57.183594 L 125.960938 -57.957031 L 126.21875 -58.988281 L 126.21875 -107.414062 L 120.039062 -134.203125 L 118.75 -136.523438 L 118.234375 -138.582031 L 110.25 -155.328125 L 102.261719 -161.765625 L 101.492188 -162.796875 L 92.992188 -166.917969 L 91.960938 -167.175781 L 86.550781 -169.753906 L 86.035156 -170.011719 L 73.671875 -171.039062 L 60.019531 -170.265625 L 42.503906 -165.886719 L 39.410156 -163.570312 L 33.488281 -160.996094 L 30.394531 -157.644531 L 17.773438 -139.097656 L 9.53125 -116.945312 L 6.699219 -99.429688 L 5.925781 -89.382812 L 5.925781 -89.125 L 5.152344 -80.367188 L 5.152344 -53.835938 L 11.335938 -36.0625 L 13.652344 -32.199219 L 14.941406 -31.167969 L 23.441406 -20.605469 L 24.214844 -20.605469 L 24.472656 -20.351562 L 26.789062 -19.320312 L 27.304688 -18.804688 L 27.820312 -18.546875 L 28.078125 -18.289062 L 36.0625 -13.394531 L 36.835938 -13.394531 L 37.609375 -12.878906 L 39.667969 -11.589844 L 42.246094 -11.335938 L 63.882812 -6.183594 Z M 65.429688 -6.183594 "/></g></g></g><g clip-path="url(#c5f1f5786f)"><g clip-path="url(#adebe04188)"><g clip-path="url(#d03ab1736d)"><g clip-path="url(#f1129890d9)"><g clip-path="url(#ba9b9efee2)"><path fill="#a525ab" d="M 491.078125 400.652344 C 491.28125 400.46875 491.273438 401.15625 491.097656 401.398438 C 491.195312 401.5 491.6875 402.160156 491.121094 402.222656 C 491.078125 402.710938 490.953125 402.695312 491.148438 403.261719 C 490.785156 403.792969 491.066406 403.917969 491.179688 404.4375 C 491.261719 404.722656 491.253906 404.570312 491.324219 404.855469 C 491.453125 405.1875 491.324219 405.117188 491.214844 405.683594 C 490.542969 405.984375 491.324219 406.378906 491.257812 406.4375 C 490.949219 406.195312 491.296875 406.449219 491.253906 407.171875 C 491.441406 407.40625 491.316406 407.75 491.308594 407.84375 C 491.363281 408.488281 491.59375 408.730469 491.292969 408.539062 C 490.890625 408.902344 491.351562 409.015625 491.386719 409.105469 C 491.550781 409.261719 492.015625 409.304688 491.320312 409.667969 C 491.140625 410.285156 491.402344 410.480469 491.390625 410.835938 C 491.335938 411.007812 491.347656 411.097656 491.351562 410.714844 C 490.96875 410.417969 491.046875 410.554688 491.320312 410.921875 C 491.28125 411.125 491.664062 411.597656 491.625 411.699219 C 491.824219 412.625 491.75 412.367188 491.910156 412.707031 C 491.839844 413.019531 491.9375 413.09375 492.175781 413.230469 C 492.1875 413.152344 492.578125 413.335938 492.234375 413.867188 C 492.347656 414.460938 491.726562 414.210938 492.179688 414.554688 C 492.195312 414.679688 492.285156 414.71875 492.554688 415.023438 C 492.40625 415.015625 492.960938 415.613281 492.839844 416.035156 C 493.128906 416.585938 493.246094 416.671875 493.113281 417.019531 C 493.632812 416.90625 492.449219 417.519531 492.59375 417.023438 C 492.324219 416.851562 492.242188 416.691406 491.992188 417.03125 C 491.925781 417.058594 491.144531 417.28125 491.207031 417.039062 C 490.796875 416.710938 491.386719 417.117188 490.261719 417.046875 C 490.453125 417.054688 490.074219 416.742188 490.019531 416.949219 C 489.859375 416.921875 489.351562 417.09375 489.195312 417.054688 C 488.648438 416.945312 488.882812 417.0625 488.039062 417.070312 C 487.8125 417.054688 487.609375 416.929688 487.421875 417.167969 C 487.113281 417.210938 486.871094 417.164062 486.820312 417.078125 C 486.242188 417.226562 486.335938 417.5 486.199219 417.085938 C 486.335938 416.949219 485.875 416.96875 485.574219 417.09375 C 484.996094 417.039062 485.058594 417.300781 484.9375 417.113281 C 484.410156 417.195312 484.371094 417.246094 484.332031 417.101562 C 484.015625 417.035156 483.785156 417.148438 483.628906 417.164062 C 483.320312 417.453125 483.3125 417.339844 483.121094 417.117188 C 482.730469 417.082031 482.5 417.527344 481.976562 417.125 C 481.34375 417.324219 480.933594 417.550781 480.933594 417.136719 C 480.769531 417.402344 480.894531 416.84375 480.015625 417.144531 C 479.832031 417.0625 479.003906 417.394531 479.085938 417.152344 C 478.457031 417.050781 477.671875 417.257812 478.261719 417.160156 C 478.054688 417.636719 477.515625 417.277344 477.515625 417.027344 C 477.570312 416.992188 477.457031 416.941406 476.699219 416.878906 C 476.65625 416.703125 475.710938 417.003906 475.699219 416.699219 C 475.554688 416.589844 474.910156 416.621094 475.03125 416.730469 C 474.804688 416.742188 474.535156 416.601562 474.59375 416.496094 C 473.835938 416.28125 473.820312 416.300781 473.457031 416.292969 C 472.90625 415.988281 472.234375 416.027344 472.375 416.097656 C 472.132812 416.289062 471.582031 415.832031 471.429688 415.925781 C 471.09375 416.445312 470.382812 416.191406 470.5 415.765625 C 470.203125 415.707031 470.144531 415.273438 470.164062 415.695312 C 470.15625 415.6875 470.324219 415.183594 469.882812 415.429688 C 469.769531 415.082031 469.316406 415.054688 469.160156 415.726562 C 468.921875 415.339844 468.554688 415.710938 468.128906 415.761719 C 468.167969 416.089844 467.625 415.269531 467.480469 415.707031 C 467.339844 415.566406 467.21875 415.742188 466.949219 415.800781 C 466.140625 415.78125 466.425781 416.007812 466.453125 415.878906 C 466.429688 415.988281 465.820312 415.796875 465.769531 415.839844 C 465.5 415.710938 465.195312 415.859375 465.019531 415.976562 C 464.847656 416.089844 464.75 416.164062 464.742188 415.875 C 464.363281 416.261719 464.261719 415.972656 463.734375 415.90625 C 463.660156 415.585938 462.941406 416.214844 463.03125 416.097656 C 462.566406 416.101562 462.800781 416.34375 462.25 416.308594 C 461.832031 416.597656 461.277344 416.851562 461.269531 416.574219 C 460.890625 416.914062 460.605469 416.671875 460.160156 416.875 C 460.414062 417.199219 459.902344 416.929688 459.683594 417.007812 C 459.570312 417.027344 459.34375 417.136719 458.980469 417.195312 C 458.492188 417.234375 458.457031 417.472656 458.269531 417.390625 C 458.035156 417.234375 457.835938 417.882812 457.574219 417.578125 C 457.445312 417.65625 456.945312 417.652344 456.863281 417.773438 C 456.707031 418.230469 456.421875 418.019531 456.28125 417.929688 C 455.523438 417.824219 455.371094 418.199219 455.214844 418.214844 C 454.585938 418.105469 454.359375 418.566406 454.226562 418.484375 C 454.066406 418.554688 454.15625 418.390625 453.414062 418.492188 C 452.78125 418.542969 452.765625 418.164062 452.484375 418.5 C 452.082031 418.625 451.871094 418.597656 451.769531 418.582031 C 451.480469 418.476562 451.621094 418.757812 451.28125 418.507812 C 451.199219 418.617188 450.550781 418.683594 450.160156 418.515625 C 450.105469 418.226562 449.757812 418.578125 449.609375 418.542969 C 449.238281 418.453125 449.042969 418.4375 448.929688 418.527344 C 448.640625 418.777344 448.363281 418.234375 448.285156 418.503906 C 447.964844 418.40625 447.890625 418.625 447.613281 418.539062 C 447.398438 418.285156 447.214844 418.542969 446.980469 418.550781 C 446.371094 418.5625 446.617188 418.738281 446.25 418.550781 C 446.164062 418.632812 445.722656 418.742188 445.519531 418.484375 C 445.347656 418.457031 444.910156 418.328125 444.859375 418.558594 C 444.414062 418.390625 444.273438 418.613281 444.070312 418.464844 C 443.550781 418.011719 443.699219 418.292969 443.472656 418.574219 C 443.339844 418.402344 443.097656 418.34375 442.714844 418.417969 C 442.445312 418.285156 442.085938 418.445312 442.125 418.582031 C 441.964844 418.394531 441.378906 418.570312 441.410156 418.589844 C 441.1875 418.996094 440.703125 418.890625 440.722656 418.59375 C 440.320312 418.792969 440.410156 418.847656 440.066406 418.617188 C 439.625 418.570312 439.292969 418.632812 439.4375 418.605469 C 439.421875 418.640625 439.527344 418.441406 439.171875 418.46875 C 438.78125 418.484375 438.5 418.378906 438.296875 418.613281 C 438.34375 418.546875 437.800781 418.660156 437.347656 418.621094 C 437.71875 419.195312 436.851562 418.53125 436.621094 418.628906 C 436.144531 418.476562 435.75 418.886719 435.996094 418.632812 C 436.066406 418.96875 435.703125 418.59375 435.195312 418.976562 C 434.9375 418.78125 434.617188 419.648438 434.332031 419.34375 C 433.792969 419.488281 433.367188 419.570312 433.285156 419.792969 C 433.191406 420.027344 433.019531 420.164062 432.777344 420.019531 C 432.585938 419.933594 432.707031 420.289062 432.144531 420.277344 C 431.617188 419.855469 431.78125 420.242188 431.695312 420.28125 C 431.402344 420.613281 431.347656 420.910156 431.003906 420.765625 C 431.152344 420.660156 430.21875 421.300781 429.957031 421.210938 C 429.527344 421.101562 429.292969 421.511719 429.09375 421.578125 C 429.152344 421.589844 428.324219 422.023438 428.289062 421.921875 C 428.328125 421.847656 428.015625 422.035156 427.453125 422.078125 C 426.640625 422.308594 427.054688 422.425781 426.523438 422.25 C 426.140625 422.34375 426.199219 422.421875 426.09375 422.390625 C 426.195312 422.6875 425.726562 422.335938 425.355469 422.464844 C 425.449219 422.355469 424.792969 422.550781 424.699219 422.589844 C 424.550781 422.5625 423.921875 422.726562 424.03125 422.710938 C 423.910156 422.542969 423.722656 422.730469 423.378906 422.832031 C 423.09375 422.816406 423.035156 423.144531 422.632812 422.96875 C 422.457031 423.269531 422.09375 422.980469 421.925781 423.101562 C 421.285156 423.386719 421.261719 423.480469 421.230469 423.230469 C 420.902344 423.167969 421.007812 423.613281 420.578125 423.328125 C 420.449219 423.171875 419.679688 423.320312 419.90625 423.476562 C 419.335938 423.566406 419.5 423.78125 419.277344 423.550781 C 418.953125 423.472656 419.039062 423.566406 418.738281 423.691406 C 418.265625 423.929688 418.082031 424.101562 417.808594 423.863281 C 417.578125 423.96875 417.148438 424.132812 416.96875 424.019531 C 417.199219 424.066406 416.773438 423.691406 415.921875 423.945312 C 415.765625 424.039062 414.984375 423.960938 414.792969 423.871094 C 414.585938 424.09375 414.71875 423.773438 414.238281 423.660156 C 413.996094 423.582031 413.625 423.1875 413.421875 423.777344 C 413.144531 424.011719 412.84375 423.78125 412.496094 423.8125 C 412.277344 423.632812 411.941406 423.75 411.929688 423.675781 C 411.492188 423.761719 411.332031 423.453125 411.117188 423.535156 C 410.925781 423.472656 410.976562 423.457031 410.433594 423.570312 C 409.996094 423.59375 409.683594 423.589844 409.554688 423.46875 C 409.253906 423.324219 409.117188 423.269531 409.070312 423.472656 C 408.492188 423.65625 408.554688 423.726562 408.34375 423.617188 C 408.367188 423.625 407.972656 423.503906 407.933594 423.402344 C 407.183594 423.480469 407.128906 423.546875 406.886719 423.328125 C 406.660156 423.234375 406.382812 423.480469 405.96875 423.503906 C 405.953125 423.464844 405.503906 423.546875 405.027344 423.679688 C 404.535156 423.871094 404.160156 423.945312 403.949219 423.882812 C 403.691406 423.738281 403.53125 424.515625 403.578125 424.121094 C 403.332031 424.238281 403.203125 424.058594 402.871094 424.085938 C 402.328125 424.417969 402.445312 424.296875 401.929688 424.261719 C 401.636719 424.007812 401.238281 424.484375 401.011719 424.433594 C 401.214844 424.304688 401.066406 424.660156 400.691406 424.320312 C 400.515625 424.445312 400.257812 423.667969 399.886719 424.027344 C 399.320312 424.042969 399.320312 423.972656 399.117188 423.96875 C 399.132812 424.160156 398.921875 423.785156 398.839844 423.648438 C 398.226562 423.523438 398.308594 423.617188 397.792969 423.269531 C 397.929688 423.078125 397.425781 422.835938 396.988281 422.976562 C 396.535156 423.066406 396.761719 422.6875 396.667969 422.863281 C 396.90625 422.792969 396.46875 422.859375 396.308594 422.835938 C 395.761719 422.769531 395.703125 422.296875 395.410156 422.765625 C 394.785156 422.359375 394.636719 422.851562 394.242188 422.679688 C 393.503906 422.453125 393.984375 422.714844 393.074219 422.589844 C 392.191406 422.476562 392.378906 422.359375 392.175781 422.519531 C 391.917969 422.699219 391.890625 422.6875 391.816406 422.496094 C 391.695312 422.582031 391.828125 422.777344 391.1875 422.582031 C 390.9375 422.785156 391.082031 422.5 390.527344 422.65625 C 390.226562 422.699219 390.21875 422.667969 389.804688 422.769531 C 389.5 422.71875 389.199219 422.917969 388.832031 422.902344 C 388.808594 423.050781 388.242188 422.675781 387.789062 423.046875 C 387.972656 423.40625 387.230469 423.261719 386.882812 423.304688 C 386.527344 423.019531 386.441406 423.445312 386.042969 423.542969 C 385.914062 423.769531 385.609375 424.179688 385.207031 423.78125 C 383.980469 423.917969 384.273438 424.0625 384.300781 424.039062 C 384.234375 424.332031 384.363281 423.949219 383.882812 423.921875 C 383.042969 424.144531 383.183594 423.9375 382.835938 423.621094 C 382.441406 423.347656 382.5625 423.6875 382.070312 423.417969 C 381.746094 423.171875 381.449219 423.246094 381.476562 423.234375 C 381.40625 423.324219 380.863281 423.203125 380.710938 423.230469 C 380.304688 423.152344 380.113281 423.019531 380.113281 422.84375 C 379.503906 422.648438 379.167969 422.808594 379.074219 422.535156 C 379.273438 422.578125 378.710938 421.800781 378.648438 422.425781 C 378.761719 422.046875 378.039062 422.574219 377.769531 422.511719 C 377.597656 422.898438 377.644531 422.800781 376.824219 422.601562 C 376.25 422.4375 375.703125 422.78125 375.671875 422.714844 C 375.183594 422.539062 374.8125 423.148438 374.421875 422.835938 C 373.71875 423.136719 373.609375 422.652344 373.171875 422.960938 C 372.808594 422.996094 372.238281 423.484375 372.023438 423.074219 C 371.644531 423.582031 371.109375 423.371094 371.074219 423.164062 C 370.265625 423.234375 369.96875 423.113281 370.195312 423.25 C 370.140625 423.28125 369.855469 423.265625 369.828125 423.34375 C 369.804688 423.332031 369.183594 423.316406 368.910156 423.582031 C 368.703125 423.832031 368.246094 423.742188 367.710938 423.890625 C 367.273438 424.4375 367.152344 424.351562 366.515625 424.199219 C 365.949219 424.773438 365.570312 424.519531 365.613281 424.449219 C 365.328125 424.390625 365.375 424.953125 365.226562 424.53125 C 365.027344 424.621094 364.753906 424.445312 364.300781 424.574219 C 363.738281 424.757812 363.726562 425.027344 363.273438 424.617188 C 362.851562 424.515625 362.949219 424.230469 361.984375 424.671875 C 361.628906 424.871094 361.390625 424.929688 360.523438 424.738281 C 359.363281 424.671875 359.152344 424.628906 358.972656 424.804688 C 358.191406 425.203125 357.796875 424.960938 357.425781 424.871094 C 356.851562 424.640625 356.695312 424.761719 355.960938 424.933594 C 355.316406 424.800781 354.722656 424.804688 354.671875 424.988281 C 354.414062 425.34375 353.832031 424.738281 353.644531 425.03125 C 352.910156 425.683594 352.933594 424.9375 352.71875 425.074219 C 352.890625 424.90625 352.246094 425.082031 351.902344 425.089844 C 351.96875 425.183594 351.679688 424.964844 351 425.105469 C 350.769531 424.949219 350.289062 425.734375 349.867188 425.125 C 349.476562 424.929688 349.042969 424.949219 348.582031 425.152344 C 348.304688 424.773438 348.214844 425.289062 347.21875 425.175781 C 346.996094 425.011719 346.835938 425.535156 346.519531 425.222656 C 346.746094 425.332031 346.519531 425.3125 345.855469 425.203125 C 345.617188 424.875 345.285156 425.289062 345.242188 425.203125 C 345.003906 425.65625 344.296875 425.53125 344.570312 425.226562 C 344.585938 425.320312 343.855469 425.59375 343.4375 425.246094 C 343.289062 425.078125 342.972656 425.492188 342.535156 425.265625 C 342.253906 425.476562 341.484375 424.839844 341.71875 425.28125 C 341.886719 425.355469 341.796875 425.605469 341.394531 425.449219 C 341.445312 425.800781 340.761719 425.714844 340.585938 425.867188 C 340.589844 426.171875 339.992188 426.128906 339.898438 426.246094 C 339.667969 426.511719 339.5625 426.941406 339.535156 426.414062 C 339.414062 426.765625 338.824219 426.203125 339.015625 426.660156 C 338.566406 426.722656 338.78125 426.699219 338.484375 426.957031 C 338.460938 427.398438 338.363281 427.523438 337.679688 427.378906 C 337.324219 427.730469 337.484375 427.179688 337.351562 427.546875 C 337.265625 427.652344 337.417969 427.015625 336.8125 427.667969 C 336.597656 427.734375 336.265625 427.757812 336.191406 427.804688 C 336.160156 428.136719 335.699219 427.953125 335.386719 427.988281 C 335.074219 428.183594 334.320312 428.542969 334.433594 428.199219 C 334.246094 427.925781 334.0625 427.898438 333.875 428.085938 C 333.65625 428.191406 333.441406 428.378906 333.371094 428.441406 C 333.238281 428.59375 332.148438 428.78125 332.234375 428.695312 C 331.964844 429.132812 331.214844 428.730469 331.058594 428.957031 C 330.875 428.582031 330.21875 428.957031 330.273438 429.136719 C 329.777344 429.453125 330.089844 429.035156 329.5 429.308594 C 329.324219 429.0625 328.820312 429.378906 328.882812 429.539062 C 328.28125 429.679688 328.535156 429.765625 328.03125 429.640625 C 327.480469 429.960938 327.421875 429.835938 327.292969 429.804688 C 327.125 429.640625 326.726562 429.894531 326.734375 429.929688 C 326.671875 429.898438 326.3125 430.070312 326.207031 430.304688 C 325.886719 430.457031 326.097656 430.363281 325.699219 430.164062 C 325.140625 430.15625 324.476562 430.351562 324.765625 430.371094 C 324.414062 430.707031 325.039062 430.378906 324.753906 429.644531 C 324.886719 429.449219 324.332031 429.648438 324.738281 428.832031 C 324.636719 428.742188 325.117188 428.589844 324.71875 427.820312 C 324.929688 427.628906 324.570312 427.464844 324.695312 426.667969 C 324.445312 426.796875 324.605469 426.152344 324.769531 425.925781 C 324.871094 425.648438 325.167969 425.375 324.675781 425.449219 C 324.714844 424.484375 324.992188 425.378906 324.660156 424.710938 C 324.882812 424.851562 324.765625 423.792969 324.648438 423.988281 C 324.613281 423.820312 324.816406 423.550781 324.597656 423.304688 C 324.96875 423.535156 324.542969 422.550781 324.621094 422.648438 C 324.492188 422.441406 324.480469 421.917969 324.601562 421.546875 C 324.578125 420.851562 324.257812 420.597656 324.582031 420.523438 C 324.921875 420.796875 324.109375 420.195312 324.394531 419.796875 C 324.644531 419.289062 324.128906 419.234375 324.183594 418.976562 C 323.96875 418.410156 323.359375 418.144531 323.914062 417.929688 C 323.535156 417.734375 323.640625 417.152344 323.554688 417.402344 C 322.996094 417.238281 323.457031 416.988281 323.601562 416.707031 C 323.398438 416.632812 323.816406 416.320312 323.445312 416.097656 C 323.125 415.535156 323.609375 415.695312 323.257812 415.371094 C 323.191406 415.207031 323.132812 414.726562 323.097656 414.828125 C 323.097656 414.699219 322.992188 414.300781 322.898438 413.980469 C 322.539062 413.917969 322.703125 413.4375 322.707031 413.195312 C 322.71875 412.789062 322.578125 412.625 322.539062 412.585938 C 322.445312 412.382812 322.636719 412.367188 322.363281 411.933594 C 322.292969 411.769531 322.40625 411.175781 322.195312 411.25 C 321.976562 410.925781 321.890625 410.867188 322.03125 410.554688 C 322.191406 410.335938 322.296875 410.054688 321.882812 410.03125 C 321.621094 410 321.867188 409.421875 321.613281 408.980469 C 321.464844 408.492188 321.6875 408.175781 321.402344 408.160156 C 321.378906 407.777344 321.015625 407.292969 321.214844 407.433594 C 321.320312 407.679688 321.246094 407.472656 321.351562 407.234375 C 321.523438 406.875 321.476562 406.5625 321.480469 406.382812 C 321.308594 406.167969 321.257812 405.910156 321.5 405.734375 C 321.714844 405.5625 321.742188 405.378906 321.753906 405.304688 C 321.785156 405.039062 322.027344 405.058594 321.996094 404.828125 C 322.128906 404.53125 321.953125 404.429688 322.066406 404.070312 C 322.207031 404.09375 322.359375 403.632812 322.328125 403.449219 C 322.621094 403.277344 322.40625 402.835938 322.378906 402.832031 C 322.378906 402.414062 322.332031 401.953125 322.652344 401.757812 C 322.925781 401.191406 322.8125 401.074219 322.921875 400.703125 C 322.671875 400.859375 322.914062 400.816406 322.894531 400.285156 C 322.867188 399.9375 322.925781 399.851562 322.824219 399.238281 C 322.503906 398.761719 322.535156 398.722656 322.4375 398.5 C 322.503906 398.15625 322.789062 397.992188 322.738281 397.878906 C 322.425781 397.675781 322.507812 397.472656 322.527344 397.082031 C 322.601562 396.902344 322.558594 396.664062 322.648438 396.519531 C 322.746094 396.273438 322.898438 395.992188 322.75 395.785156 C 322.820312 395.355469 322.890625 395.476562 322.597656 395.472656 C 322.269531 394.800781 322.414062 395.070312 322.554688 395.054688 C 322.804688 394.808594 322.738281 394.773438 322.308594 394.109375 C 321.972656 394.066406 322.449219 393.351562 322.039062 393.089844 C 321.558594 393.160156 322.058594 392.417969 321.917969 392.523438 C 321.777344 392.542969 321.996094 391.847656 321.714844 391.851562 C 321.671875 391.566406 321.691406 391.609375 321.46875 391.160156 C 321.320312 390.902344 321.109375 390.175781 321.363281 390.507812 C 321.195312 390.34375 321.195312 390.40625 321.167969 389.96875 C 320.878906 390.019531 321.074219 389.179688 321.007812 389.160156 C 320.894531 389.457031 321.050781 389.085938 320.957031 388.496094 C 321.175781 388.101562 321.074219 388.007812 320.683594 387.925781 C 320.839844 387.242188 320.476562 387.152344 320.417969 386.90625 C 319.53125 386.496094 320.484375 385.953125 320.167969 385.960938 C 320.21875 385.925781 319.941406 385.609375 320.117188 385.027344 C 320.355469 384.566406 320.332031 384.351562 320.0625 384.023438 C 320.082031 383.558594 319.972656 383.503906 320.0625 383.238281 C 320.066406 383.007812 320.097656 382.882812 319.996094 382.800781 C 320.171875 382.449219 320.191406 382.183594 320.144531 381.976562 C 320.101562 381.765625 319.996094 381.613281 319.925781 381.476562 C 319.917969 381.035156 319.75 380.539062 319.851562 380.148438 C 319.316406 379.519531 319.769531 379.402344 319.789062 378.929688 C 319.671875 378.570312 320.207031 378.46875 319.734375 377.921875 C 319.566406 377.613281 319.613281 376.445312 319.683594 376.992188 C 319.871094 377.191406 319.839844 376.515625 319.601562 376.132812 C 319.601562 375.835938 319.808594 375.355469 319.511719 375.191406 C 319.71875 374.832031 319.347656 374.414062 319.398438 374.019531 C 319.238281 373.507812 318.707031 373.257812 319.273438 372.699219 C 319.203125 372.382812 318.472656 371.902344 319.140625 371.320312 C 318.753906 370.769531 319.019531 370.257812 319.011719 369.964844 C 318.660156 369.167969 318.613281 369.117188 318.894531 368.71875 C 319.257812 368.40625 319.472656 368.171875 318.78125 367.539062 C 318.472656 367.210938 318.726562 366.429688 318.675781 366.441406 C 318.875 366.230469 319.222656 366.679688 318.6875 366.082031 C 319.21875 365.757812 318.78125 365.476562 318.707031 365.183594 C 318.507812 364.71875 318.597656 364.289062 318.738281 364.011719 C 318.429688 363.527344 318.871094 363.46875 318.898438 363.328125 C 319.066406 363.15625 319.234375 363.460938 318.765625 362.84375 C 319.046875 362.933594 318.921875 362.34375 318.789062 361.945312 C 318.738281 361.832031 318.964844 361.738281 318.796875 361.585938 C 319.027344 361.929688 319.167969 361.570312 318.652344 361.257812 C 319.078125 360.523438 318.183594 360.96875 318.269531 360.398438 C 318.175781 360.25 318.355469 360.070312 318.144531 359.855469 C 317.753906 359.6875 317.925781 359.375 317.730469 359.179688 C 317.621094 358.613281 317.378906 358.453125 317.484375 358.355469 C 317.386719 358.257812 317.261719 357.941406 317.113281 357.785156 C 316.9375 357.714844 316.820312 357.464844 316.726562 357.183594 C 316.632812 356.898438 316.566406 356.585938 316.496094 356.386719 C 316.234375 356.429688 315.792969 355.554688 315.957031 355.171875 C 316.371094 354.929688 315.933594 354.765625 315.574219 354.292969 C 315.203125 354.09375 315.484375 354.285156 315.429688 353.980469 C 315.234375 354.394531 315.410156 353.890625 315.4375 353.117188 C 315.277344 352 315.441406 352.789062 315.449219 352.160156 C 315.539062 351.542969 315.476562 351.730469 315.460938 350.957031 C 315.125 350.105469 316.316406 350.011719 315.472656 349.59375 C 315.289062 348.621094 316.003906 348.796875 315.488281 348.148438 C 315.9375 347.746094 315.394531 347.890625 315.488281 347.425781 C 315.382812 347.621094 315.78125 346.710938 315.484375 346.710938 C 315.441406 346.136719 316.105469 346.09375 315.425781 346.058594 C 315.34375 346.054688 315.632812 346.59375 315.515625 345.339844 C 315.074219 345.402344 315.238281 344.226562 315.277344 344.714844 C 315.261719 344.390625 315.355469 344.375 315.527344 344.148438 C 315.128906 343.480469 315.5 344.105469 315.535156 343.179688 C 315.5 342.828125 315.605469 342.355469 315.542969 342.316406 C 315.472656 342.566406 316.039062 342.710938 315.960938 342.386719 C 316.253906 342.246094 316.785156 342.542969 316.957031 342.539062 C 316.984375 342.882812 317.515625 342.542969 317.699219 342.738281 C 317.988281 342.492188 317.832031 343.234375 318.261719 342.753906 C 318.636719 342.4375 318.867188 342.628906 319.226562 342.984375 C 319.269531 343.214844 319.8125 343.265625 319.585938 342.945312 C 319.941406 343.101562 320.601562 343.164062 320.597656 343.101562 C 320.320312 343.375 321.652344 342.886719 321 343.164062 C 320.679688 343.058594 321.136719 342.984375 321.304688 342.941406 C 321.675781 343.050781 321.839844 343.375 322.089844 343.117188 C 322.703125 342.664062 322.671875 343.40625 323.203125 343.070312 C 323.597656 343.128906 323.3125 343.246094 323.769531 343.058594 C 324.214844 342.886719 324.082031 343.160156 324.480469 343.015625 C 324.804688 343.238281 325.175781 343.335938 325.292969 343.148438 C 325.78125 342.972656 325.511719 342.976562 325.757812 342.960938 C 326.195312 342.941406 326.890625 343.03125 326.875 342.914062 C 326.992188 342.851562 327.734375 342.796875 327.867188 342.824219 C 328.183594 342.867188 327.96875 342.570312 327.960938 342.867188 C 327.304688 343.148438 327.878906 343.140625 328.308594 342.90625 C 328.433594 342.519531 328.46875 342.886719 329.195312 343.035156 C 329.828125 343.433594 329.957031 343.460938 329.757812 343.214844 C 329.707031 343.570312 330.253906 343.320312 330.460938 343.210938 C 330.6875 343.4375 331.144531 343.871094 331.25 343.433594 C 331.203125 343.113281 331.640625 343.152344 331.910156 343.40625 C 332.449219 344.054688 333.09375 343.417969 332.839844 343.492188 C 333.386719 343.257812 333.101562 343.875 333.359375 343.605469 C 333.582031 343.859375 333.789062 343.308594 333.871094 343.792969 C 334.792969 344.03125 334.070312 343.90625 334.625 343.777344 C 335.394531 343.851562 335.238281 343.796875 335.519531 343.898438 C 335.128906 344.347656 336.226562 344.253906 335.859375 343.945312 C 336.117188 343.671875 335.878906 343.507812 335.988281 343.75 C 336.003906 343.410156 336.511719 344.246094 336.925781 343.78125 C 336.925781 343.464844 337.15625 343.863281 337.515625 343.796875 C 337.804688 343.71875 337.898438 343.898438 338.015625 343.609375 C 337.960938 343.488281 338.480469 343.648438 338.707031 343.480469 C 339.316406 343.519531 339.296875 343.183594 339.269531 343.414062 C 339.480469 343.386719 339.199219 343.023438 339.835938 343.304688 C 339.804688 343.75 340.542969 342.84375 340.519531 343.222656 C 340.621094 343.066406 341.828125 342.871094 341.613281 343.050781 C 342.222656 342.933594 342.75 342.785156 342.675781 342.886719 C 342.730469 342.820312 343.167969 342.871094 343.628906 342.722656 C 343.714844 342.59375 343.96875 342.570312 344.164062 342.898438 C 344.398438 342.882812 344.554688 342.847656 344.652344 342.542969 C 345.0625 342.15625 345.476562 342.53125 345.234375 342.417969 C 345.21875 342.273438 345.226562 342.582031 345.894531 342.328125 C 346.070312 342.488281 346.417969 342.207031 346.5625 342.214844 C 346.34375 342.210938 346.582031 342.054688 347.25 342.09375 C 347.8125 342.128906 347.746094 342.308594 347.800781 342.195312 C 347.816406 342.078125 348.152344 341.863281 348.382812 341.898438 C 348.648438 341.953125 349.492188 341.703125 349.449219 341.710938 C 349.65625 342.027344 350.066406 341.828125 350.390625 341.546875 C 350.914062 341.347656 350.707031 341.808594 351.144531 341.417969 C 351.519531 341.664062 352.316406 341.667969 351.820312 341.300781 C 351.875 340.996094 351.964844 341.191406 352.542969 341.011719 C 352.679688 340.703125 353.046875 340.625 353.355469 340.6875 C 353.785156 340.664062 354.546875 340.25 354.398438 340.269531 C 354.425781 340.3125 354.800781 339.90625 354.871094 340.023438 C 355.402344 339.929688 355.417969 340.195312 355.613281 339.785156 C 355.390625 339.515625 356.234375 339.710938 356.464844 339.5625 C 356.671875 339.410156 356.535156 339.402344 356.9375 339.253906 C 357.316406 339.0625 357.109375 338.59375 357.636719 338.941406 C 357.699219 338.371094 357.957031 339.042969 358.324219 338.699219 C 358.105469 338.679688 358.441406 339.097656 358.855469 338.515625 C 359.425781 338.457031 359.496094 338.171875 359.707031 338.148438 C 359.980469 338.019531 360.394531 337.625 360.367188 337.808594 C 360.363281 338.167969 360.683594 337.371094 361.035156 337.617188 C 361.527344 336.871094 360.933594 337.71875 361.640625 337.386719 C 361.824219 337.390625 362.414062 337.214844 362.246094 337.132812 C 362.363281 337.039062 363.070312 336.863281 363.289062 336.714844 C 363.921875 336.390625 363.519531 336.792969 364.105469 336.386719 C 364.5 336.296875 364.917969 335.65625 364.824219 336.101562 C 364.925781 335.765625 364.933594 335.804688 365.175781 336.109375 C 365.367188 335.882812 366.039062 336.582031 366.109375 336.136719 C 366.355469 336.347656 366.1875 336.191406 366.753906 336.078125 C 366.449219 336.246094 367.628906 335.707031 367.425781 336.171875 C 367.3125 337.121094 368.167969 336.296875 368.191406 336.195312 C 368.699219 336.027344 368.109375 336.28125 368.933594 336.214844 C 368.792969 336.273438 369.296875 336.828125 369.949219 336.242188 C 370.191406 336.414062 370.5 336.128906 370.769531 336.125 C 370.390625 336.078125 371.289062 336.203125 371.132812 336.273438 C 371.804688 335.898438 372.101562 336.316406 372.117188 336.300781 C 371.949219 336.847656 373.402344 336.175781 373.039062 336.328125 C 373.058594 335.972656 373.660156 336.441406 373.839844 336.347656 C 374.605469 336.445312 374.652344 336.191406 374.722656 336.375 C 375.136719 336.046875 375.933594 336.339844 375.832031 336.402344 C 376.449219 335.941406 376.445312 336.191406 376.414062 336.472656 C 376.351562 336.433594 377.234375 336.382812 377.09375 336.4375 C 377.121094 336.5625 377.292969 336.421875 377.691406 336.492188 C 377.640625 337.011719 377.953125 336.574219 378.425781 336.476562 C 378.652344 336.949219 378.386719 336.808594 379.027344 336.625 C 379.207031 336.785156 379.359375 336.738281 379.761719 336.511719 C 379.796875 336.386719 380.246094 336.515625 380.476562 336.496094 C 381.019531 336.609375 380.832031 336.414062 381.019531 336.546875 C 381.597656 336.6875 381.433594 336.859375 382.128906 336.578125 C 382.199219 336.679688 382.101562 336.722656 383.015625 336.601562 C 383.734375 336.605469 383.734375 336.464844 383.8125 336.625 C 383.59375 336.886719 383.859375 336.722656 384.144531 336.605469 C 384.496094 336.535156 384.527344 336.433594 385.023438 336.558594 C 385.636719 336.785156 385.597656 336.46875 385.765625 336.621094 C 386.066406 336.78125 386.339844 336.398438 386.265625 336.492188 C 387.039062 336.046875 386.773438 336.242188 386.871094 336.476562 C 387.035156 336.523438 387.507812 336.625 387.691406 336.414062 C 387.808594 336.5 388.132812 336.59375 388.457031 336.585938 C 388.601562 336.585938 389.128906 336.453125 389.113281 336.335938 C 389.355469 336.265625 389.238281 336.558594 389.65625 336.230469 C 390.144531 336.359375 390.394531 336.09375 390.355469 336.265625 C 390.84375 336.570312 390.875 335.8125 391.25 336.21875 C 391.625 335.710938 392.042969 336.210938 391.566406 336.203125 C 391.789062 335.886719 391.757812 336.167969 392.101562 336.285156 C 392.574219 336.480469 392.226562 336.28125 392.703125 336.382812 C 392.730469 336.355469 393.421875 336.027344 393.46875 336.507812 C 393.558594 336.261719 393.808594 336.652344 394.046875 336.597656 C 393.871094 336.378906 394.480469 336.765625 394.664062 336.699219 C 394.488281 336.765625 394.976562 336.679688 395.378906 336.78125 C 395.53125 336.945312 396.144531 336.925781 395.964844 336.90625 C 395.820312 336.6875 396.28125 336.976562 396.628906 336.972656 C 396.9375 336.894531 397.339844 336.820312 397.269531 337.117188 C 397.289062 337.4375 397.363281 337.316406 397.785156 337.1875 C 397.757812 337.039062 398.1875 337.394531 398.464844 337.308594 C 399.195312 337.683594 399.304688 337.367188 399.449219 337.464844 C 400.101562 337.453125 400.390625 337.773438 400.363281 337.613281 C 400.511719 337.714844 400.753906 337.410156 401.277344 337.347656 C 401.167969 336.835938 401.738281 337.152344 402.121094 337.101562 C 402.351562 337.015625 402.445312 337.113281 402.96875 336.859375 C 403.386719 336.601562 403.65625 336.535156 403.878906 336.59375 C 403.855469 336.203125 404.304688 336.832031 404.289062 336.613281 C 404.648438 336.378906 404.976562 336.390625 405.3125 336.664062 C 405.710938 336.566406 405.898438 336.585938 406.058594 336.628906 C 406.21875 336.667969 406.355469 336.730469 406.648438 336.726562 C 407.066406 336.699219 407.511719 337.015625 407.980469 336.789062 C 408.601562 336.988281 408.429688 336.722656 408.992188 336.839844 C 409.132812 337.167969 409.445312 336.96875 409.414062 336.855469 C 409.703125 337.292969 409.410156 336.773438 409.789062 336.820312 C 410.128906 336.90625 410.105469 336.707031 410.726562 336.734375 C 411.28125 336.914062 411.355469 336.957031 411.949219 336.625 C 412.828125 337.089844 412.839844 336.6875 413.167969 336.515625 C 413.699219 336.761719 414.59375 336.683594 414.121094 336.429688 C 414.730469 336.394531 414.523438 337.074219 414.480469 336.394531 C 414.3125 335.730469 414.839844 336.574219 415.550781 336.585938 C 415.617188 336.761719 416.515625 336.464844 416.644531 336.785156 C 417.222656 336.136719 417.296875 336.867188 417.898438 337.007812 C 418.5625 336.902344 418.59375 337.082031 419.152344 337.234375 C 419.582031 337.179688 420.050781 337.464844 420.246094 337.433594 C 421.460938 337.289062 421.226562 337.78125 421.3125 337.625 C 421.640625 337.8125 421.480469 338.070312 422.175781 337.480469 C 422.34375 337.230469 423.023438 337.214844 423.105469 337.320312 C 423.753906 337.464844 424.179688 336.761719 424.230469 337.132812 C 424.671875 336.921875 424.839844 336.558594 425.460938 336.925781 C 426.011719 337.101562 425.773438 337.132812 426.6875 336.71875 C 426.804688 336.769531 426.984375 336.609375 427.816406 336.527344 C 428.359375 336.277344 428.332031 336.523438 428.746094 336.371094 C 428.878906 336.464844 429.847656 335.921875 429.609375 336.226562 C 429.855469 336.558594 430.132812 336.367188 430.46875 336.074219 C 431.085938 336.0625 431.015625 336.042969 431.402344 335.910156 C 431.6875 335.804688 431.972656 335.734375 432.527344 335.714844 C 432.535156 335.464844 432.886719 335.359375 433.136719 335.605469 C 433.695312 336.125 433.871094 335.148438 433.757812 335.5 C 434.300781 335.539062 434.277344 334.859375 434.28125 335.226562 C 434.460938 335.191406 434.4375 334.820312 434.984375 335.285156 C 435.589844 335.257812 435.644531 334.992188 436.113281 335.085938 C 436.175781 335.214844 437.230469 335.0625 437.042969 334.921875 C 437.875 335.058594 437.964844 334.652344 437.90625 334.773438 C 437.613281 334.996094 438.675781 334.628906 438.90625 334.304688 C 438.992188 334.246094 439.765625 334.285156 439.929688 333.828125 C 439.957031 333.792969 440.378906 333.695312 440.460938 333.625 C 440.722656 333.253906 440.917969 333.492188 441.105469 333.28125 C 441.460938 332.882812 441.660156 332.847656 441.921875 332.84375 C 442.082031 332.929688 442.199219 332.800781 442.28125 332.730469 C 442.496094 332.441406 442.855469 332.355469 442.851562 332.144531 C 443.203125 331.976562 443.324219 332.160156 443.304688 332.253906 C 443.570312 332.273438 444.199219 331.710938 444.304688 331.789062 C 443.988281 332.15625 444.574219 331.84375 444.667969 331.78125 C 445.222656 331.558594 445.445312 331.753906 445.574219 331.761719 C 445.679688 332 445.785156 331.769531 445.992188 331.871094 C 446.097656 331.800781 446.390625 331.714844 446.75 331.734375 C 446.753906 332.152344 447.007812 332.304688 447.265625 332.167969 C 447.503906 332.066406 447.765625 331.8125 447.925781 331.707031 C 448.398438 331.53125 448.652344 331.65625 448.832031 331.6875 C 449.070312 331.917969 449.214844 331.679688 449.195312 331.679688 C 449.496094 331.535156 448.917969 331.601562 450.035156 331.277344 C 450.222656 331.222656 451.011719 330.992188 450.820312 330.90625 C 450.972656 330.640625 451.136719 330.273438 451.601562 330.53125 C 451.898438 330.464844 452.320312 329.996094 452.445312 330.128906 C 452.738281 330.011719 452.871094 329.890625 453.464844 330.246094 C 454.023438 330.167969 454.109375 330.089844 454.570312 330.367188 C 454.933594 330.765625 455.054688 330.457031 455.90625 330.515625 C 456.945312 330.59375 456.363281 330.457031 456.628906 330.59375 C 456.972656 330.390625 456.65625 330.425781 457.363281 330.675781 C 457.605469 330.894531 458.027344 330.714844 458.074219 330.796875 C 458.394531 330.835938 458.929688 330.804688 458.820312 330.835938 C 459.152344 330.65625 459.484375 330.878906 459.550781 330.875 C 460.109375 331.230469 459.824219 331.074219 460.15625 330.984375 C 460.429688 331.402344 460.933594 331.34375 461.257812 331.109375 C 461.621094 331.191406 461.914062 330.769531 462.132812 331.042969 C 462.085938 331.457031 462.441406 331.015625 462.28125 331.222656 C 461.613281 331.191406 461.847656 331.632812 462.929688 331.003906 C 463.394531 330.972656 463.019531 331.078125 463.632812 330.765625 C 463.503906 330.539062 464.328125 330.347656 464.5 330.472656 C 464.886719 330.757812 464.886719 330.355469 465.132812 330.257812 C 465.351562 330.09375 465.625 329.769531 465.785156 330.035156 C 466.234375 330.363281 466.632812 330.246094 466.359375 329.867188 C 466.382812 329.601562 466.667969 329.671875 467.074219 329.601562 C 467.050781 329.714844 467.363281 329.011719 467.664062 329.382812 C 467.917969 329.636719 467.957031 329.148438 468.195312 329.222656 C 468.414062 329.085938 468.757812 328.917969 469.058594 329.007812 C 469.273438 328.640625 469.203125 328.703125 469.289062 328.851562 C 469.109375 328.265625 469.191406 328.964844 469.851562 328.824219 C 470.300781 328.625 470.082031 328.496094 470.484375 328.792969 C 470.222656 328.96875 470.757812 328.558594 471.300781 328.75 C 471.601562 328.875 471.976562 328.652344 472.25 328.703125 C 472.625 328.660156 473.359375 328.6875 473.292969 328.652344 C 472.851562 328.558594 473.945312 328.847656 474.378906 328.613281 C 474.296875 328.578125 475.210938 328.417969 475.488281 328.539062 C 475.648438 328.285156 475.703125 328.722656 476.546875 328.496094 C 477.121094 328.445312 477.214844 328.660156 477.53125 328.4375 C 477.898438 328.597656 477.902344 328.515625 478.078125 328.515625 C 478.417969 328.390625 478.300781 328.773438 478.707031 328.378906 C 478.78125 328.179688 479.324219 328.421875 479.585938 328.371094 C 479.738281 328.257812 479.847656 328.464844 479.800781 328.324219 C 479.648438 328.398438 480.390625 328.375 480.792969 328.15625 C 480.792969 328.347656 481.351562 328.339844 481.714844 328 C 482.203125 327.855469 482.792969 327.867188 482.632812 327.84375 C 483.144531 327.597656 483.792969 327.679688 483.625 327.675781 C 483.730469 327.871094 483.996094 327.394531 483.628906 328.105469 C 483.785156 328.355469 484.097656 328.539062 483.636719 329.1875 C 483.332031 329.070312 483.324219 329.5 483.660156 329.679688 C 483.589844 329.652344 483.746094 330.253906 483.644531 330.589844 C 483.632812 330.804688 483.417969 330.855469 483.59375 331.183594 C 483.664062 331.53125 483.632812 331.769531 483.652344 331.992188 C 483.808594 332.816406 483.796875 332.355469 483.671875 333.0625 C 483.589844 333.441406 484.09375 333.082031 483.660156 333.503906 C 483.371094 333.257812 483.84375 333.886719 483.84375 334.550781 C 483.976562 334.304688 484.136719 335.277344 484.035156 335.621094 C 483.671875 336.355469 484.445312 336.367188 484.25 336.847656 C 483.972656 337.449219 484.566406 337.683594 484.464844 338.074219 C 484.679688 338.535156 484.546875 338.699219 484.65625 339.148438 C 484.8125 340.09375 484.652344 340.460938 484.839844 340.191406 C 485.027344 340.148438 484.582031 340.101562 484.972656 340.601562 C 485.1875 340.550781 485.765625 341.730469 485.3125 341.632812 C 485.359375 341.992188 485.613281 342.613281 485.75 342.96875 C 485.914062 343.191406 486.234375 343.683594 486.191406 344.304688 C 486.089844 344.898438 486.453125 345.023438 486.527344 345.332031 C 486.46875 345.792969 486.5625 345.570312 486.664062 345.746094 C 486.636719 345.796875 486.464844 346.121094 486.84375 346.894531 C 486.777344 347.046875 486.964844 347.375 487.03125 348.074219 C 487.472656 347.984375 487.027344 348.429688 487.050781 348.796875 C 486.980469 348.699219 487.160156 349.128906 487.242188 349.425781 C 487.363281 349.613281 487.667969 350.019531 487.292969 350.105469 C 487.148438 350.3125 487.117188 350.777344 487.457031 350.777344 C 487.472656 351.496094 487.785156 351.507812 487.640625 351.957031 C 487.953125 352.300781 487.855469 353.238281 487.824219 353.105469 C 488.015625 352.839844 488.082031 353.347656 487.757812 353.539062 C 487.664062 354.125 487.449219 353.910156 487.59375 354.617188 C 487.640625 354.8125 487.582031 354.789062 487.507812 355.199219 C 487.550781 355.46875 487.304688 355.648438 487.378906 356.023438 C 487.289062 356.046875 487.355469 356.410156 487.382812 356.703125 C 487.253906 357.03125 487.179688 357.039062 487.160156 357.425781 C 487.308594 357.429688 486.820312 358.152344 486.996094 358.507812 C 486.910156 358.964844 486.695312 358.902344 486.929688 358.9375 C 486.820312 359.050781 486.714844 358.980469 486.675781 359.320312 C 486.632812 359.472656 486.742188 359.777344 487.042969 359.953125 C 487.046875 360.125 487.117188 360.761719 487.160156 360.996094 C 487.011719 361.316406 487.179688 361.585938 487.179688 361.71875 C 487.070312 362.238281 487.28125 362.28125 487.289062 362.1875 C 487.25 362.511719 487.183594 362.6875 487.320312 362.777344 C 487.238281 362.980469 487.355469 363.246094 487.421875 363.382812 C 487.535156 363.5625 487.871094 364.132812 487.539062 364.421875 C 487.710938 364.988281 487.667969 365.4375 487.652344 365.4375 C 487.691406 365.125 487.796875 365.859375 487.804688 366.453125 C 487.476562 367.144531 487.890625 367.265625 487.960938 367.488281 C 488.375 367.535156 488.082031 367.703125 488.007812 367.980469 C 488.054688 368.144531 488 368.558594 488.144531 368.679688 C 488.074219 368.898438 488.269531 369.089844 488.207031 369.253906 C 488.195312 369.546875 488.160156 369.644531 488.324219 369.871094 C 488.375 370.273438 488.144531 370.855469 488.480469 370.910156 C 488.289062 371.335938 489.011719 371.886719 488.636719 371.921875 C 488.910156 371.886719 488.585938 372.714844 488.664062 372.75 C 488.363281 372.757812 488.90625 373.609375 488.695312 373.667969 C 488.667969 373.980469 488.597656 374.703125 488.734375 374.816406 C 489.101562 374.757812 488.6875 375.539062 488.757812 375.457031 C 488.285156 375.875 488.570312 376.183594 488.777344 376.121094 C 488.746094 376.273438 488.804688 376.417969 488.871094 376.917969 C 488.753906 377.523438 488.96875 377.460938 488.828125 377.503906 C 488.875 377.625 488.746094 378.578125 488.855469 378.265625 C 488.800781 378.71875 489.28125 378.394531 488.875 378.886719 C 489.234375 379.40625 489.15625 379.695312 488.917969 379.535156 C 489.054688 379.585938 489.480469 379.871094 488.917969 380.195312 C 489.144531 380.503906 489.023438 380.789062 488.957031 381.34375 C 488.773438 381.796875 488.9375 381.628906 488.988281 382.261719 C 489.050781 383.011719 488.660156 383.214844 489.015625 383.089844 C 489.113281 382.996094 488.957031 383.363281 489.226562 383.984375 C 488.824219 384.070312 489.523438 384.539062 489.453125 384.949219 C 489.308594 385.222656 489.441406 385.441406 489.386719 385.5 C 489.390625 385.605469 489.703125 385.691406 489.726562 386.121094 C 489.476562 386.570312 489.492188 386.21875 489.808594 386.660156 C 489.867188 386.5625 489.976562 386.835938 490.027344 387.394531 C 490.226562 387.703125 490.105469 388.027344 490.117188 388.078125 C 490.441406 388.089844 490.015625 388.367188 490.328125 388.671875 C 490.625 388.835938 490.578125 389.210938 490.671875 389.214844 C 490.589844 389.246094 490.617188 389.542969 490.601562 389.839844 C 490.71875 390.1875 490.792969 390.46875 490.828125 390.804688 C 490.773438 391.292969 491.367188 391.488281 491.039062 391.703125 C 491.03125 391.40625 491.160156 391.984375 491.042969 392.632812 C 491.03125 393.207031 490.914062 393.308594 491.046875 393.636719 C 491.171875 393.839844 491.316406 394.132812 491.265625 394.339844 C 491.097656 394.457031 490.765625 394.511719 491.050781 394.851562 C 491.144531 395.039062 491.039062 395.160156 491.007812 395.492188 C 490.996094 395.800781 491.074219 395.839844 491.058594 396.175781 C 491.226562 396.613281 491.175781 396.53125 491.042969 396.761719 C 490.902344 397.292969 491.128906 397.117188 491.0625 397.5 C 491.195312 397.757812 491.457031 398.054688 491.171875 398.011719 C 491.390625 398.078125 491.160156 398.464844 491.070312 398.71875 C 491.011719 399.164062 491.167969 399.613281 491.074219 399.722656 C 491.136719 400.03125 491.246094 400.800781 491.078125 400.652344 " fill-opacity="1" fill-rule="nonzero"/></g></g></g></g></g><g fill="#a525ab" fill-opacity="1"><g transform="translate(363.067793, 408.36736)"><g><path d="M 7.503906 -59.890625 L -1.8125 -59.238281 L -2.398438 -58.9375 L 2.132812 -28.921875 L 3.558594 -8.570312 L 3.484375 -8.390625 L 4.003906 -0.972656 L 9.265625 -1.34375 L 17.109375 -3.191406 L 18.699219 -3.996094 L 18.859375 -4.183594 L 22.625 -6.09375 L 26.714844 -9.585938 L 31.265625 -15.105469 L 32.046875 -16.371094 L 32.125 -16.464844 L 32.589844 -17.277344 L 33.144531 -18.007812 L 33.890625 -19.707031 L 34.046875 -19.980469 L 34.699219 -21.757812 L 34.863281 -21.941406 L 35.6875 -23.734375 L 36.292969 -28.714844 L 36.277344 -35.128906 L 33.324219 -46.363281 L 30.675781 -51.984375 L 29.316406 -54.054688 L 26.308594 -56.183594 L 26.128906 -56.257812 L 24.386719 -57.609375 L 22.675781 -58.527344 L 22.039062 -59.003906 L 21.863281 -58.992188 L 19.457031 -59.949219 L 16.015625 -60.835938 L 8.445312 -60.042969 Z M 7.503906 -59.890625 "/></g></g></g><g fill="#a525ab" fill-opacity="1"><g transform="translate(411.954136, 404.94089)"><g><path d="M 10.925781 -20.957031 L 15.121094 -19.171875 L 16.226562 -19.511719 L 16.570312 -19.535156 L 19.828125 -20.023438 L 20.679688 -20.253906 L 22.304688 -20.542969 L 23.730469 -21.25 L 24.828125 -21.671875 L 24.992188 -21.773438 L 26.089844 -22.195312 L 27.65625 -23.34375 L 27.902344 -23.535156 L 28.070312 -23.632812 L 28.894531 -24.210938 L 29.128906 -24.574219 L 29.714844 -24.875 L 31.164062 -26.449219 L 31.425781 -26.46875 L 31.578125 -26.738281 L 31.738281 -26.925781 L 31.96875 -27.375 L 32.132812 -27.472656 L 32.589844 -28.371094 L 33.792969 -29.753906 L 34.425781 -33.09375 L 34.574219 -33.449219 L 34.660156 -35.96875 L 34.972656 -36.425781 L 34.34375 -40.453125 L 34.191406 -42.609375 L 34.105469 -42.601562 L 33.703125 -43.441406 L 33.835938 -43.972656 L 33.589844 -43.78125 L 33.5625 -44.210938 L 33.191406 -44.53125 L 32.34375 -46.726562 L 32.160156 -46.886719 L 30.496094 -50.84375 L 30.304688 -51.089844 L 29.390625 -53.019531 L 27.074219 -56.410156 L 26.617188 -56.726562 L 24.296875 -58.902344 L 23.917969 -59.394531 L 23.832031 -59.390625 L 23.367188 -59.789062 L 22.746094 -60.007812 L 21.484375 -60.699219 L 21.300781 -60.859375 L 21.042969 -60.839844 L 20.765625 -61.082031 L 19.539062 -61.253906 L 19.28125 -61.238281 L 19.011719 -61.390625 L 18.578125 -61.359375 L 18.226562 -61.421875 L 17.796875 -61.394531 L 16.128906 -61.710938 L 13.054688 -61.0625 L 12.878906 -61.046875 L 11.191406 -60.410156 L 6.179688 -57.71875 L 5.71875 -56.90625 L 2.363281 -52.859375 L 1.175781 -51.214844 L -0.734375 -46.316406 L -1.050781 -39.707031 L -0.351562 -35.941406 L -0.273438 -34.820312 L 0.347656 -33.390625 L 3.300781 -28.3125 L 3.664062 -28.078125 L 5.816406 -25.800781 L 6.179688 -25.566406 L 7.21875 -24.339844 L 7.582031 -24.105469 Z M 5.445312 -0.207031 L 5.886719 -0.0664062 L 36.332031 -2.199219 L 36.511719 -3.339844 L 35.515625 -17.570312 L 34.621094 -17.941406 L 34.207031 -17.652344 L 16.664062 -15.726562 L 15.210938 -15.453125 L 14.953125 -15.433594 L 3.429688 -14.105469 Z M 5.445312 -0.207031 "/></g></g></g><path stroke-linecap="butt" transform="matrix(4.64414, -0.32551, 0.32551, 4.64414, 350.783539, 339.224036)" fill="none" stroke-linejoin="miter" d="M 4.100919 2.278055 L 2.097383 2.278092 L 1.965349 2.337809 L 2.486553 8.834093 L 2.487129 13.218018 L 2.468586 13.254568 L 2.468618 14.850163 L 3.597389 14.850215 L 5.306558 14.573847 L 5.660198 14.424523 L 5.696435 14.387531 L 6.535399 14.034188 L 7.46012 13.345365 L 8.521235 12.23461 L 8.707041 11.971748 L 8.72513 11.95367 L 8.833647 11.785483 L 8.965748 11.640818 L 9.151194 11.287091 L 9.187826 11.232463 L 9.355194 10.860646 L 9.391666 10.820305 L 9.596038 10.448559 L 9.799618 9.39209 L 9.895052 8.018511 L 9.432793 5.565386 L 8.947039 4.3235 L 8.688764 3.856243 L 8.076906 3.357474 L 8.036112 3.339475 L 7.682388 3.021974 L 7.333753 2.799877 L 7.202085 2.68635 L 7.165918 2.686338 L 6.662128 2.445796 L 5.937093 2.205727 L 4.304866 2.260387 Z M 14.776597 10.674565 L 15.647111 11.119128 L 15.888133 11.064527 L 15.964652 11.064843 L 16.671953 11.005915 L 16.853637 10.969864 L 17.206949 10.933227 L 17.524028 10.801527 L 17.764607 10.729232 L 17.801228 10.710771 L 18.045507 10.633687 L 18.394986 10.411736 L 18.453881 10.375491 L 18.489606 10.357808 L 18.675909 10.243858 L 18.730572 10.171989 L 18.861418 10.117236 L 19.197379 9.800132 L 19.252077 9.79976 L 19.287873 9.745074 L 19.324051 9.708918 L 19.382868 9.613789 L 19.41943 9.596165 L 19.528341 9.410343 L 19.809358 9.133126 L 19.99517 8.426157 L 20.031361 8.353834 L 20.085999 7.814304 L 20.163347 7.718792 L 20.08555 6.848674 L 20.085525 6.381013 L 20.067831 6.381455 L 19.99507 6.195516 L 20.031272 6.087027 L 19.977458 6.122787 L 19.977039 6.032758 L 19.900058 5.955027 L 19.750386 5.474354 L 19.71423 5.438175 L 19.419724 4.563803 L 19.383186 4.509093 L 19.215413 4.082664 L 18.766644 3.321123 L 18.676154 3.244127 L 18.208965 2.745405 L 18.136181 2.6318 L 18.118486 2.632242 L 18.027261 2.541736 L 17.896024 2.482071 L 17.63773 2.31509 L 17.596552 2.278559 L 17.54275 2.278152 L 17.488516 2.223884 L 17.224873 2.169238 L 17.171011 2.169668 L 17.116676 2.128851 L 17.020789 2.128859 L 16.948908 2.110363 L 16.853021 2.110371 L 16.504382 2.020328 L 15.833588 2.110413 L 15.797421 2.110401 L 15.425261 2.223941 L 14.310012 2.726982 L 14.201011 2.890089 L 13.421792 3.711072 L 13.140369 4.042091 L 12.659784 5.066528 L 12.492005 6.47625 L 12.582822 7.292608 L 12.582783 7.533164 L 12.695952 7.850626 L 13.253238 8.983975 L 13.326002 9.03786 L 13.752034 9.559772 L 13.82982 9.614009 L 14.033029 9.894885 L 14.105734 9.949607 Z M 13.289931 15.036678 L 13.38497 15.072778 L 19.936408 15.072724 L 19.99533 14.83209 L 19.995673 11.767095 L 19.809397 11.676657 L 19.713881 11.731363 L 15.928495 11.880713 L 15.61135 11.917362 L 15.55671 11.916896 L 13.067491 12.030087 Z M 13.289931 15.036678 " stroke="#ffffff" stroke-width="1.277196" stroke-opacity="1" stroke-miterlimit="4"/><path stroke-linecap="butt" transform="matrix(4.655534, 0, 0, 4.655534, 34.216602, 611.707309)" fill="none" stroke-linejoin="miter" d="M 19.994307 3.040676 L 19.994307 2.479348 L 19.891942 2.31825 L 19.651972 2.36272 L 16.073402 2.36272 L 13.612453 10.961357 L 11.849598 2.298951 L 7.572095 2.298951 L 7.670265 2.640447 L 7.670265 2.659745 L 7.713896 2.718479 L 7.811226 2.919013 L 7.811226 2.95761 L 11.932665 15.999883 L 15.233508 15.999883 Z M 34.511639 15.457854 L 34.873272 15.360523 L 34.873272 12.60171 L 34.809504 12.55724 L 30.571436 12.55724 L 30.493404 12.362579 L 30.351604 9.242133 L 30.610872 9.178365 L 34.970603 8.739539 L 35.053669 8.597739 L 35.053669 6.717416 L 34.970603 6.620086 L 34.873272 6.659521 L 30.190505 6.859216 L 30.131771 6.742588 L 30.053739 6.717416 L 29.790276 4.300937 L 29.854044 4.217871 L 34.150846 3.920006 L 34.932006 3.920006 L 35.010038 3.822676 L 35.010038 2.162185 L 34.932006 1.961651 L 34.873272 1.961651 L 34.833837 1.942353 L 32.993789 1.800553 L 32.890585 1.859287 L 31.650461 1.859287 L 31.611865 1.839988 L 31.533833 1.82069 L 31.489363 1.839988 L 27.69096 1.839988 L 26.792332 1.898722 L 27.310029 15.599654 Z M 42.433159 15.858083 L 42.511191 15.87822 L 44.274046 15.800188 L 44.352078 15.800188 L 44.611347 15.819486 L 45.333773 15.760753 L 45.333773 15.482186 L 45.290142 15.238021 L 45.133239 10.560289 L 45.211271 10.560289 L 45.37237 10.39919 L 45.592202 10.321158 L 45.612339 10.321158 L 45.690371 10.282561 L 47.394493 13.798203 L 47.433089 13.939164 L 48.210054 15.580356 L 49.831109 15.482186 L 50.553535 15.482186 L 51.212194 15.438555 L 51.270927 15.438555 L 52.292058 15.379822 L 52.330654 15.341225 L 51.154299 13.119407 L 51.129966 13.060673 L 51.090531 13.041375 L 50.910134 12.640306 L 50.592132 12.240077 L 50.489767 12.020245 L 50.250636 11.620015 L 50.172604 11.541983 L 50.133169 11.439618 L 49.992207 11.219786 L 49.97207 11.161052 L 49.571841 10.482257 L 49.571841 10.419327 L 49.533244 10.39919 L 49.513107 10.340456 L 49.469476 10.321158 L 49.450178 10.258229 L 49.19091 9.862195 L 49.19091 9.740532 L 49.293274 9.701096 L 49.611276 9.481264 L 49.67001 9.398197 L 50.050102 9.159067 L 50.133169 8.939234 L 50.21204 8.939234 L 50.21204 8.861202 L 50.314404 8.778135 L 50.411735 8.597739 L 50.431033 8.57844 L 50.45117 8.519706 L 50.650866 8.319172 L 50.690301 8.138775 L 50.75323 8.080042 L 50.870698 7.821613 L 50.910134 7.757844 L 50.910134 7.738546 L 50.953765 7.699111 L 51.012498 7.420544 L 51.012498 7.362649 L 51.129966 6.620086 L 51.129966 5.482327 L 51.071232 5.101396 L 51.071232 5.082097 L 50.9932 4.7599 L 50.671003 4.081105 L 50.631567 4.061806 L 50.553535 3.939304 L 50.534237 3.920006 L 50.45117 3.778206 L 50.411735 3.778206 L 50.373138 3.700174 L 50.314404 3.64144 L 50.290072 3.597809 L 50.250636 3.558373 L 50.11387 3.377976 L 49.933473 3.221912 L 49.914175 3.158144 L 49.894038 3.138846 L 49.831109 3.040676 L 49.469476 2.757915 L 49.391444 2.659745 L 49.093579 2.440752 L 49.049109 2.382018 L 48.991214 2.382018 L 48.673213 2.200782 L 48.434082 2.118555 L 48.189917 2.001087 L 47.931488 1.942353 L 47.550557 1.82069 L 46.949793 1.741819 L 45.890067 1.741819 L 45.133239 1.781254 L 44.811042 1.781254 L 41.852533 1.981789 Z M 66.632349 3.358678 L 66.632349 2.181484 L 66.310152 2.181484 L 62.692146 2.538082 L 61.554388 2.879578 L 60.773227 3.24121 L 60.21106 3.622141 L 60.152326 3.739609 L 59.893897 4.081105 L 59.693363 4.442737 L 59.493668 5.179428 L 59.493668 6.078056 L 59.590998 6.58065 L 59.991228 7.518714 L 60.430893 8.119477 L 60.650725 8.338471 L 60.714493 8.441674 L 61.071092 8.861202 L 62.491612 9.979662 L 63.130972 10.39919 L 63.214039 10.482257 L 63.253474 10.501555 L 64.112667 11.219786 L 64.410531 11.742517 L 64.4743 12.098277 L 64.4743 12.259375 L 64.351797 12.621008 L 64.249433 12.679742 L 64.171401 12.821542 L 63.829905 13.09927 L 63.073077 13.377836 L 62.711445 13.377836 L 59.132035 12.60171 L 59.351868 15.560218 L 60.430893 15.838785 L 62.174449 15.999883 L 63.312208 15.999883 L 63.951568 15.858083 L 64.952561 15.457854 L 65.591921 15.081957 L 66.290854 14.418264 L 66.691083 13.719331 L 66.973845 12.958308 L 67.072014 11.678749 L 66.87148 10.638321 L 66.749817 10.282561 L 66.012288 9.2178 L 65.392226 8.539005 L 63.751034 7.279583 L 63.731736 7.240147 L 63.111674 6.698118 L 63.092376 6.678819 L 62.872543 6.498423 L 62.750041 6.27859 L 62.750041 6.121687 L 62.891841 5.677827 L 63.350805 5.438696 L 63.634405 5.321228 L 64.0296 5.238162 L 64.171401 5.238162 L 66.412517 4.959595 L 66.573616 4.959595 Z M 80.913068 16.058617 L 82.890721 16.058617 L 82.890721 15.961287 L 82.334428 12.840841 L 82.289958 12.718339 L 80.850139 1.961651 L 80.75197 1.961651 L 80.713373 1.58072 L 75.551506 1.400323 L 74.834114 6.498423 L 74.834114 6.561352 L 74.673015 7.938241 L 74.57065 8.299874 L 73.872556 15.858083 L 73.989185 15.999883 L 77.153262 15.999883 L 77.373095 10.961357 L 77.41253 10.721387 L 77.451127 10.721387 L 77.573629 10.638321 L 77.851356 10.638321 L 78.212989 10.599724 L 78.550289 10.599724 L 78.950518 10.560289 L 79.472411 10.560289 L 80.391176 14.837792 L 80.391176 14.862124 L 80.693236 16.058617 Z M 77.793461 0.281863 L 78.491555 0.501695 L 79.189649 0.501695 L 79.253417 0.438766 L 79.790413 0.218934 L 80.190642 -0.0789309 L 80.89377 -0.821495 L 81.049834 -1.480153 L 81.049834 -1.758719 L 79.931374 -2.300749 L 79.770275 -2.100215 L 79.23328 -1.538887 L 78.891784 -1.299756 L 78.59392 -1.241022 L 78.149221 -1.241022 L 77.793461 -1.538887 L 77.773324 -1.578322 L 77.211996 -2.017987 L 76.689265 -2.158949 L 75.971872 -2.158949 L 75.810774 -2.080917 L 75.390407 -1.758719 L 75.253641 -1.621953 L 75.151277 -1.402121 L 74.834114 -0.880229 L 74.633579 -0.220731 L 75.454175 0.199635 L 75.791476 0.438766 L 75.89384 0.438766 L 76.470271 -0.118366 L 76.552499 -0.118366 L 76.772331 -0.161997 L 76.831065 -0.118366 L 76.93343 -0.118366 L 77.153262 -0.0596326 Z M 94.369835 15.521622 L 94.433603 15.560218 L 94.633298 15.560218 L 95.171133 15.419257 L 95.370828 15.419257 L 95.429562 15.39912 L 95.49333 15.39912 L 96.293789 15.179287 L 96.391119 15.038326 L 96.91385 14.779058 L 96.953286 14.720324 L 97.309045 14.501331 L 97.353515 14.501331 L 97.490281 14.418264 L 97.55321 14.398127 L 97.592646 14.198432 L 97.851075 13.861132 L 97.909809 13.719331 L 98.051609 13.558233 L 98.070907 13.500338 L 98.212708 13.319102 L 98.330176 12.982641 L 98.510572 12.582412 L 98.529871 12.55724 L 98.711107 12.181343 L 98.774036 12.137712 L 98.852068 11.961511 L 98.852068 11.942212 L 98.950237 11.781114 L 98.950237 11.659451 L 99.0719 11.561281 L 99.0719 11.498352 L 99.092038 11.42032 L 99.092038 7.660514 L 98.612937 5.580496 L 98.510572 5.39926 L 98.471137 5.238162 L 97.851075 3.939304 L 97.231013 3.441745 L 97.172279 3.358678 L 96.513621 3.040676 L 96.430555 3.021378 L 96.010188 2.821683 L 95.971591 2.801545 L 95.009195 2.718479 L 93.950308 2.782247 L 92.592716 3.119547 L 92.353586 3.299944 L 91.889588 3.499639 L 91.650457 3.758907 L 90.673797 5.199565 L 90.033598 6.91795 L 89.80957 8.280576 L 89.750836 9.061736 L 89.750836 9.081034 L 89.692103 9.75983 L 89.692103 11.820549 L 90.170364 13.202473 L 90.3516 13.500338 L 90.453965 13.57837 L 91.113462 14.398127 L 91.171357 14.398127 L 91.191494 14.418264 L 91.371891 14.501331 L 91.411327 14.539927 L 91.449923 14.559226 L 91.469221 14.579363 L 92.089283 14.960294 L 92.153051 14.960294 L 92.211785 14.99889 L 92.372884 15.101255 L 92.573418 15.121393 L 94.252367 15.521622 Z M 118.790536 16.058617 L 118.913038 16.18028 L 119.049804 16.141684 L 120.372994 15.980585 L 120.553391 15.980585 L 121.373987 15.921851 L 121.490615 15.87822 L 121.549349 15.87822 L 121.83295 15.838785 L 121.949578 15.838785 L 122.652707 15.760753 L 122.692142 15.760753 L 122.990007 15.741454 L 123.052936 15.741454 L 123.292906 15.702019 L 123.331502 15.702019 L 127.052712 15.301789 L 127.110607 15.238021 L 127.052712 14.940157 L 126.793444 12.338247 L 126.730515 12.259375 L 122.931273 12.440611 L 122.931273 12.338247 L 123.912968 9.442667 L 123.951564 9.378899 L 124.210832 8.480271 L 124.23013 8.338471 L 124.273761 8.299874 L 124.649658 7.118484 L 124.669795 7.079049 L 125.133793 5.79949 L 125.31419 4.818634 L 125.31419 4.159137 L 125.113656 3.358678 L 125.089323 3.299944 L 125.050726 3.260509 L 124.713426 2.738616 L 124.611061 2.699181 L 124.552328 2.640447 L 124.512892 2.621149 L 124.1328 2.337548 L 124.093364 2.31825 L 123.809764 2.118555 L 123.771167 2.079119 L 123.131807 1.698188 L 122.672844 1.741819 L 122.61411 1.741819 L 121.154154 1.91802 L 120.650721 2.181484 L 120.133024 2.498647 L 119.713496 2.919013 L 118.873602 4.081105 L 118.189772 5.418559 L 117.891908 6.341519 L 117.950642 6.380955 L 118.053006 6.478285 L 118.532107 6.478285 L 120.26979 6.620086 L 120.41159 6.58065 L 120.592826 6.219856 L 120.934322 5.677827 L 121.251485 5.25746 L 121.412583 5.16013 L 121.651714 5.16013 L 121.749883 5.25746 L 121.852248 5.619093 L 121.812812 5.619093 L 121.774216 5.902693 L 121.651714 6.439689 L 119.649728 12.338247 L 118.790536 15.800188 Z M 135.152112 15.87822 L 136.28987 15.941149 L 136.33434 15.902553 L 136.393074 14.960294 L 136.393074 14.90156 L 136.471106 13.421467 L 136.431671 13.358538 L 135.449976 13.221772 L 135.41138 13.221772 L 134.171256 13.060673 L 134.112522 13.09927 L 133.911988 15.702019 L 133.970722 15.760753 L 135.049747 15.838785 Z M 146.890493 15.341225 L 147.852051 15.419257 L 148.790114 15.199425 L 149.13161 15.057624 L 149.91277 14.617959 L 150.229933 14.242063 L 150.293701 14.139698 L 150.6503 13.700033 L 150.771963 13.377836 L 150.811398 13.319102 L 151.230926 12.240077 L 151.611857 10.702089 L 151.710026 8.997968 L 151.710026 7.55731 L 151.592559 6.542053 L 151.353428 5.658528 L 151.114297 5.101396 L 150.733366 4.359671 L 149.990802 3.64144 L 149.27341 3.280646 L 148.452814 2.938311 L 147.652355 2.801545 L 146.710096 2.801545 L 145.811468 2.982781 L 145.630232 3.080112 L 145.449836 3.138846 L 145.073939 3.402309 L 144.693008 3.797504 L 144.312077 4.281639 L 144.292779 4.300937 L 143.814517 5.018329 L 143.731451 5.179428 L 143.433586 6.380955 L 143.272487 8.299874 L 143.330382 9.539998 L 143.570352 11.27852 L 143.770047 11.942212 L 143.833815 12.05968 L 144.092244 12.840841 L 144.493313 13.758767 L 144.693008 14.042368 L 145.411239 14.75976 L 145.630232 14.90156 L 146.011164 15.057624 L 146.43153 15.282491 Z M 146.890493 15.341225 " stroke="#ffffff" stroke-width="0.75" stroke-opacity="1" stroke-miterlimit="4"/></svg>