<svg xmlns="http://www.w3.org/2000/svg" xmlns:xlink="http://www.w3.org/1999/xlink" width="1080" zoomAndPan="magnify" viewBox="0 0 810 809.999993" height="1080" preserveAspectRatio="xMidYMid meet" version="1.0"><defs><clipPath id="c61de683d2"><path d="M 26.207031 26.207031 L 783 26.207031 L 783 783 L 26.207031 783 Z M 26.207031 26.207031 " clip-rule="nonzero"/></clipPath></defs><path fill="#ffffff" d="M 300.960938 615.515625 L 121.214844 615.515625 C 120.585938 615.515625 119.957031 615.546875 119.328125 615.609375 C 118.699219 615.671875 118.078125 615.765625 117.457031 615.886719 C 116.839844 616.011719 116.230469 616.164062 115.625 616.347656 C 115.023438 616.527344 114.429688 616.742188 113.847656 616.984375 C 113.261719 617.222656 112.695312 617.492188 112.136719 617.789062 C 111.582031 618.089844 111.039062 618.410156 110.515625 618.761719 C 109.992188 619.113281 109.484375 619.488281 109 619.886719 C 108.511719 620.289062 108.042969 620.710938 107.597656 621.15625 C 107.152344 621.601562 106.730469 622.070312 106.328125 622.558594 C 105.929688 623.046875 105.554688 623.550781 105.203125 624.074219 C 104.851562 624.601562 104.527344 625.140625 104.230469 625.695312 C 103.933594 626.253906 103.664062 626.824219 103.421875 627.40625 C 103.183594 627.988281 102.96875 628.582031 102.785156 629.183594 C 102.605469 629.789062 102.449219 630.398438 102.328125 631.019531 C 102.203125 631.636719 102.113281 632.261719 102.050781 632.886719 C 101.988281 633.515625 101.957031 634.144531 101.957031 634.773438 C 101.957031 635.40625 101.988281 636.035156 102.050781 636.664062 C 102.113281 637.289062 102.203125 637.914062 102.328125 638.53125 C 102.449219 639.152344 102.605469 639.761719 102.785156 640.367188 C 102.96875 640.96875 103.183594 641.5625 103.421875 642.144531 C 103.664062 642.726562 103.933594 643.296875 104.230469 643.855469 C 104.527344 644.410156 104.851562 644.949219 105.203125 645.472656 C 105.554688 646 105.929688 646.503906 106.328125 646.992188 C 106.730469 647.480469 107.152344 647.945312 107.597656 648.394531 C 108.042969 648.839844 108.511719 649.261719 109 649.664062 C 109.484375 650.0625 109.992188 650.4375 110.515625 650.789062 C 111.039062 651.136719 111.582031 651.460938 112.136719 651.757812 C 112.695312 652.058594 113.261719 652.328125 113.847656 652.566406 C 114.429688 652.808594 115.023438 653.019531 115.625 653.203125 C 116.230469 653.386719 116.839844 653.539062 117.457031 653.664062 C 118.078125 653.785156 118.699219 653.878906 119.328125 653.941406 C 119.957031 654.003906 120.585938 654.035156 121.214844 654.035156 L 300.960938 654.035156 C 301.59375 654.035156 302.222656 654.003906 302.847656 653.941406 C 303.476562 653.878906 304.101562 653.785156 304.71875 653.664062 C 305.335938 653.539062 305.949219 653.386719 306.550781 653.203125 C 307.15625 653.019531 307.75 652.808594 308.332031 652.566406 C 308.914062 652.328125 309.484375 652.058594 310.039062 651.757812 C 310.597656 651.460938 311.136719 651.136719 311.660156 650.789062 C 312.183594 650.4375 312.691406 650.0625 313.179688 649.664062 C 313.667969 649.261719 314.132812 648.839844 314.578125 648.394531 C 315.027344 647.945312 315.449219 647.480469 315.847656 646.992188 C 316.25 646.503906 316.625 646 316.972656 645.472656 C 317.324219 644.949219 317.648438 644.410156 317.945312 643.855469 C 318.242188 643.296875 318.511719 642.726562 318.753906 642.144531 C 318.996094 641.5625 319.207031 640.96875 319.390625 640.367188 C 319.574219 639.761719 319.726562 639.152344 319.851562 638.53125 C 319.972656 637.914062 320.066406 637.289062 320.128906 636.664062 C 320.1875 636.035156 320.21875 635.40625 320.21875 634.773438 C 320.21875 634.144531 320.1875 633.515625 320.128906 632.886719 C 320.066406 632.261719 319.972656 631.636719 319.851562 631.019531 C 319.726562 630.398438 319.574219 629.789062 319.390625 629.183594 C 319.207031 628.582031 318.996094 627.988281 318.753906 627.40625 C 318.511719 626.824219 318.242188 626.253906 317.945312 625.695312 C 317.648438 625.140625 317.324219 624.601562 316.972656 624.074219 C 316.625 623.550781 316.25 623.046875 315.847656 622.558594 C 315.449219 622.070312 315.027344 621.601562 314.578125 621.15625 C 314.132812 620.710938 313.667969 620.289062 313.179688 619.886719 C 312.691406 619.488281 312.183594 619.113281 311.660156 618.761719 C 311.136719 618.410156 310.597656 618.089844 310.039062 617.789062 C 309.484375 617.492188 308.914062 617.222656 308.332031 616.984375 C 307.75 616.742188 307.15625 616.527344 306.550781 616.347656 C 305.949219 616.164062 305.335938 616.011719 304.71875 615.886719 C 304.101562 615.765625 303.476562 615.671875 302.847656 615.609375 C 302.222656 615.546875 301.59375 615.515625 300.960938 615.515625 Z M 300.960938 615.515625 " fill-opacity="1" fill-rule="nonzero"/><path fill="#ffffff" d="M 403.671875 512.804688 L 121.214844 512.804688 C 120.585938 512.804688 119.957031 512.835938 119.328125 512.898438 C 118.699219 512.960938 118.078125 513.050781 117.457031 513.175781 C 116.839844 513.296875 116.230469 513.449219 115.625 513.632812 C 115.023438 513.816406 114.429688 514.03125 113.847656 514.269531 C 113.261719 514.511719 112.695312 514.78125 112.136719 515.078125 C 111.582031 515.375 111.039062 515.699219 110.515625 516.050781 C 109.992188 516.402344 109.484375 516.777344 109 517.175781 C 108.511719 517.578125 108.042969 518 107.597656 518.445312 C 107.152344 518.890625 106.730469 519.359375 106.328125 519.847656 C 105.929688 520.332031 105.554688 520.839844 105.203125 521.363281 C 104.851562 521.886719 104.527344 522.429688 104.230469 522.984375 C 103.933594 523.542969 103.664062 524.109375 103.421875 524.695312 C 103.183594 525.277344 102.96875 525.871094 102.785156 526.472656 C 102.605469 527.078125 102.449219 527.6875 102.328125 528.304688 C 102.203125 528.925781 102.113281 529.546875 102.050781 530.175781 C 101.988281 530.804688 101.957031 531.433594 101.957031 532.0625 C 101.957031 532.695312 101.988281 533.324219 102.050781 533.949219 C 102.113281 534.578125 102.203125 535.203125 102.328125 535.820312 C 102.449219 536.4375 102.605469 537.050781 102.785156 537.652344 C 102.96875 538.257812 103.183594 538.851562 103.421875 539.433594 C 103.664062 540.015625 103.933594 540.585938 104.230469 541.140625 C 104.527344 541.699219 104.851562 542.238281 105.203125 542.761719 C 105.554688 543.289062 105.929688 543.792969 106.328125 544.28125 C 106.730469 544.769531 107.152344 545.234375 107.597656 545.679688 C 108.042969 546.128906 108.511719 546.550781 109 546.949219 C 109.484375 547.351562 109.992188 547.726562 110.515625 548.074219 C 111.039062 548.425781 111.582031 548.75 112.136719 549.046875 C 112.695312 549.34375 113.261719 549.613281 113.847656 549.855469 C 114.429688 550.097656 115.023438 550.308594 115.625 550.492188 C 116.230469 550.675781 116.839844 550.828125 117.457031 550.953125 C 118.078125 551.074219 118.699219 551.167969 119.328125 551.230469 C 119.957031 551.289062 120.585938 551.320312 121.214844 551.320312 L 403.671875 551.320312 C 404.304688 551.320312 404.933594 551.289062 405.5625 551.230469 C 406.1875 551.167969 406.8125 551.074219 407.429688 550.953125 C 408.050781 550.828125 408.660156 550.675781 409.265625 550.492188 C 409.867188 550.308594 410.460938 550.097656 411.042969 549.855469 C 411.625 549.613281 412.195312 549.34375 412.75 549.046875 C 413.308594 548.75 413.847656 548.425781 414.371094 548.074219 C 414.898438 547.726562 415.402344 547.351562 415.890625 546.949219 C 416.378906 546.550781 416.84375 546.128906 417.292969 545.679688 C 417.738281 545.234375 418.160156 544.769531 418.5625 544.28125 C 418.960938 543.792969 419.335938 543.289062 419.6875 542.761719 C 420.035156 542.238281 420.359375 541.699219 420.65625 541.140625 C 420.957031 540.585938 421.226562 540.015625 421.464844 539.433594 C 421.707031 538.851562 421.917969 538.257812 422.101562 537.652344 C 422.285156 537.050781 422.4375 536.4375 422.5625 535.820312 C 422.683594 535.203125 422.777344 534.578125 422.839844 533.949219 C 422.902344 533.324219 422.933594 532.695312 422.933594 532.0625 C 422.933594 531.433594 422.902344 530.804688 422.839844 530.175781 C 422.777344 529.546875 422.683594 528.925781 422.5625 528.304688 C 422.4375 527.6875 422.285156 527.078125 422.101562 526.472656 C 421.917969 525.871094 421.707031 525.277344 421.464844 524.695312 C 421.226562 524.109375 420.957031 523.542969 420.65625 522.984375 C 420.359375 522.429688 420.035156 521.886719 419.6875 521.363281 C 419.335938 520.839844 418.960938 520.332031 418.5625 519.847656 C 418.160156 519.359375 417.738281 518.890625 417.292969 518.445312 C 416.84375 518 416.378906 517.578125 415.890625 517.175781 C 415.402344 516.777344 414.898438 516.402344 414.371094 516.050781 C 413.847656 515.699219 413.308594 515.375 412.75 515.078125 C 412.195312 514.78125 411.625 514.511719 411.042969 514.269531 C 410.460938 514.03125 409.867188 513.816406 409.265625 513.632812 C 408.660156 513.449219 408.050781 513.296875 407.429688 513.175781 C 406.8125 513.050781 406.1875 512.960938 405.5625 512.898438 C 404.933594 512.835938 404.304688 512.804688 403.671875 512.804688 Z M 403.671875 512.804688 " fill-opacity="1" fill-rule="nonzero"/><g clip-path="url(#c61de683d2)"><path fill="#ffffff" d="M 754.179688 162.042969 L 645.304688 53.167969 C 643.042969 50.984375 640.683594 48.90625 638.226562 46.941406 C 635.773438 44.976562 633.230469 43.128906 630.601562 41.402344 C 627.972656 39.675781 625.269531 38.078125 622.488281 36.601562 C 619.710938 35.128906 616.867188 33.792969 613.960938 32.585938 C 611.058594 31.378906 608.101562 30.3125 605.097656 29.382812 C 602.089844 28.457031 599.050781 27.671875 595.96875 27.027344 C 592.890625 26.382812 589.789062 25.886719 586.664062 25.535156 C 583.535156 25.183594 580.402344 24.980469 577.257812 24.921875 L 377.996094 24.921875 C 376.421875 24.925781 374.847656 24.964844 373.273438 25.046875 C 371.699219 25.125 370.128906 25.242188 368.5625 25.398438 C 366.992188 25.554688 365.429688 25.75 363.871094 25.980469 C 362.316406 26.214844 360.761719 26.484375 359.21875 26.792969 C 357.671875 27.101562 356.136719 27.449219 354.609375 27.832031 C 353.082031 28.21875 351.5625 28.636719 350.058594 29.097656 C 348.550781 29.554688 347.054688 30.050781 345.570312 30.582031 C 344.089844 31.113281 342.621094 31.683594 341.164062 32.285156 C 339.710938 32.890625 338.269531 33.527344 336.847656 34.203125 C 335.421875 34.878906 334.015625 35.585938 332.628906 36.328125 C 331.238281 37.074219 329.867188 37.847656 328.519531 38.660156 C 327.167969 39.46875 325.835938 40.3125 324.527344 41.1875 C 323.21875 42.066406 321.929688 42.972656 320.664062 43.910156 C 319.398438 44.847656 318.160156 45.816406 316.941406 46.816406 C 315.722656 47.816406 314.53125 48.847656 313.363281 49.90625 C 312.195312 50.960938 311.054688 52.046875 309.941406 53.164062 C 308.828125 54.277344 307.742188 55.417969 306.683594 56.585938 C 305.625 57.75 304.597656 58.945312 303.597656 60.160156 C 302.597656 61.378906 301.628906 62.621094 300.691406 63.886719 C 299.75 65.152344 298.84375 66.4375 297.96875 67.746094 C 297.09375 69.058594 296.25 70.386719 295.4375 71.738281 C 294.628906 73.089844 293.851562 74.457031 293.109375 75.847656 C 292.367188 77.238281 291.65625 78.644531 290.984375 80.066406 C 290.308594 81.492188 289.667969 82.929688 289.066406 84.386719 C 288.460938 85.839844 287.894531 87.308594 287.363281 88.792969 C 286.832031 90.273438 286.335938 91.769531 285.875 93.277344 C 285.417969 94.785156 284.996094 96.300781 284.613281 97.828125 C 284.230469 99.359375 283.882812 100.894531 283.574219 102.4375 C 283.265625 103.984375 282.992188 105.535156 282.761719 107.09375 C 282.527344 108.652344 282.332031 110.214844 282.179688 111.78125 C 282.023438 113.347656 281.902344 114.917969 281.824219 116.492188 C 281.746094 118.066406 281.707031 119.640625 281.703125 121.214844 L 281.703125 178.992188 L 121.214844 178.992188 C 119.640625 178.992188 118.066406 179.035156 116.492188 179.113281 C 114.917969 179.191406 113.347656 179.308594 111.78125 179.464844 C 110.214844 179.621094 108.652344 179.816406 107.09375 180.050781 C 105.535156 180.28125 103.984375 180.554688 102.4375 180.863281 C 100.894531 181.171875 99.359375 181.515625 97.828125 181.902344 C 96.300781 182.285156 94.785156 182.707031 93.277344 183.164062 C 91.769531 183.625 90.273438 184.117188 88.792969 184.648438 C 87.308594 185.183594 85.839844 185.75 84.386719 186.351562 C 82.929688 186.957031 81.492188 187.597656 80.066406 188.269531 C 78.644531 188.945312 77.238281 189.652344 75.847656 190.398438 C 74.457031 191.140625 73.089844 191.917969 71.738281 192.726562 C 70.386719 193.539062 69.058594 194.382812 67.746094 195.257812 C 66.4375 196.132812 65.152344 197.039062 63.886719 197.976562 C 62.621094 198.917969 61.378906 199.886719 60.160156 200.886719 C 58.945312 201.886719 57.75 202.914062 56.582031 203.972656 C 55.417969 205.03125 54.277344 206.117188 53.164062 207.230469 C 52.046875 208.34375 50.960938 209.484375 49.90625 210.652344 C 48.847656 211.820312 47.816406 213.011719 46.816406 214.230469 C 45.816406 215.445312 44.847656 216.6875 43.910156 217.953125 C 42.972656 219.21875 42.066406 220.503906 41.1875 221.816406 C 40.3125 223.125 39.46875 224.453125 38.660156 225.804688 C 37.847656 227.15625 37.074219 228.527344 36.328125 229.914062 C 35.585938 231.304688 34.878906 232.710938 34.203125 234.136719 C 33.527344 235.558594 32.890625 236.996094 32.285156 238.453125 C 31.683594 239.90625 31.113281 241.378906 30.582031 242.859375 C 30.050781 244.34375 29.554688 245.835938 29.097656 247.34375 C 28.636719 248.851562 28.21875 250.371094 27.832031 251.898438 C 27.449219 253.425781 27.101562 254.960938 26.792969 256.507812 C 26.484375 258.050781 26.214844 259.601562 25.980469 261.160156 C 25.75 262.71875 25.554688 264.28125 25.398438 265.847656 C 25.242188 267.417969 25.125 268.988281 25.046875 270.5625 C 24.964844 272.132812 24.925781 273.707031 24.921875 275.285156 L 24.921875 686.132812 C 24.925781 687.707031 24.964844 689.28125 25.046875 690.855469 C 25.125 692.429688 25.242188 694 25.398438 695.566406 C 25.554688 697.132812 25.75 698.695312 25.980469 700.253906 C 26.214844 701.8125 26.484375 703.363281 26.792969 704.910156 C 27.101562 706.453125 27.449219 707.988281 27.832031 709.515625 C 28.21875 711.046875 28.636719 712.5625 29.097656 714.070312 C 29.554688 715.578125 30.050781 717.070312 30.582031 718.554688 C 31.113281 720.039062 31.683594 721.507812 32.285156 722.960938 C 32.890625 724.417969 33.527344 725.855469 34.203125 727.28125 C 34.878906 728.703125 35.585938 730.109375 36.328125 731.5 C 37.074219 732.886719 37.847656 734.257812 38.660156 735.609375 C 39.46875 736.960938 40.3125 738.289062 41.1875 739.601562 C 42.066406 740.910156 42.972656 742.195312 43.910156 743.460938 C 44.847656 744.726562 45.816406 745.96875 46.816406 747.1875 C 47.816406 748.402344 48.847656 749.597656 49.90625 750.761719 C 50.960938 751.929688 52.046875 753.070312 53.164062 754.183594 C 54.277344 755.296875 55.417969 756.382812 56.585938 757.441406 C 57.75 758.5 58.945312 759.53125 60.160156 760.53125 C 61.378906 761.527344 62.621094 762.496094 63.886719 763.4375 C 65.152344 764.375 66.4375 765.28125 67.746094 766.160156 C 69.058594 767.035156 70.386719 767.875 71.738281 768.6875 C 73.089844 769.496094 74.457031 770.273438 75.847656 771.019531 C 77.238281 771.761719 78.644531 772.46875 80.066406 773.144531 C 81.492188 773.820312 82.929688 774.457031 84.386719 775.0625 C 85.839844 775.664062 87.308594 776.234375 88.792969 776.765625 C 90.273438 777.296875 91.769531 777.792969 93.277344 778.25 C 94.785156 778.707031 96.300781 779.128906 97.828125 779.515625 C 99.359375 779.898438 100.894531 780.246094 102.4375 780.554688 C 103.984375 780.863281 105.535156 781.132812 107.09375 781.367188 C 108.652344 781.597656 110.214844 781.792969 111.78125 781.949219 C 113.347656 782.105469 114.917969 782.222656 116.492188 782.300781 C 118.066406 782.382812 119.640625 782.421875 121.214844 782.421875 L 429.351562 782.421875 C 430.925781 782.421875 432.5 782.382812 434.074219 782.300781 C 435.648438 782.222656 437.21875 782.105469 438.785156 781.949219 C 440.355469 781.792969 441.917969 781.597656 443.472656 781.367188 C 445.03125 781.132812 446.585938 780.863281 448.128906 780.554688 C 449.671875 780.246094 451.210938 779.898438 452.738281 779.515625 C 454.265625 779.128906 455.78125 778.707031 457.289062 778.25 C 458.796875 777.792969 460.292969 777.296875 461.773438 776.765625 C 463.257812 776.234375 464.726562 775.664062 466.183594 775.0625 C 467.636719 774.457031 469.078125 773.820312 470.5 773.144531 C 471.925781 772.46875 473.332031 771.761719 474.71875 771.019531 C 476.109375 770.273438 477.476562 769.496094 478.828125 768.6875 C 480.179688 767.875 481.511719 767.035156 482.820312 766.160156 C 484.128906 765.28125 485.417969 764.375 486.683594 763.4375 C 487.949219 762.496094 489.1875 761.527344 490.40625 760.53125 C 491.625 759.53125 492.816406 758.5 493.984375 757.441406 C 495.152344 756.382812 496.292969 755.296875 497.40625 754.183594 C 498.519531 753.070312 499.605469 751.929688 500.664062 750.761719 C 501.722656 749.597656 502.75 748.402344 503.75 747.1875 C 504.75 745.96875 505.71875 744.726562 506.65625 743.460938 C 507.597656 742.195312 508.503906 740.910156 509.378906 739.601562 C 510.253906 738.289062 511.097656 736.960938 511.90625 735.609375 C 512.71875 734.257812 513.496094 732.886719 514.238281 731.5 C 514.980469 730.109375 515.691406 728.703125 516.363281 727.28125 C 517.039062 725.855469 517.679688 724.417969 518.28125 722.960938 C 518.886719 721.507812 519.453125 720.039062 519.984375 718.554688 C 520.515625 717.070312 521.011719 715.578125 521.46875 714.070312 C 521.929688 712.5625 522.351562 711.046875 522.734375 709.515625 C 523.117188 707.988281 523.464844 706.453125 523.773438 704.910156 C 524.082031 703.363281 524.351562 701.8125 524.585938 700.253906 C 524.820312 698.695312 525.011719 697.132812 525.167969 695.566406 C 525.324219 694 525.441406 692.429688 525.523438 690.855469 C 525.601562 689.28125 525.640625 687.707031 525.644531 686.132812 L 525.644531 628.355469 L 686.132812 628.355469 C 687.707031 628.355469 689.28125 628.3125 690.855469 628.234375 C 692.425781 628.15625 694 628.039062 695.566406 627.882812 C 697.132812 627.726562 698.695312 627.53125 700.253906 627.296875 C 701.8125 627.066406 703.363281 626.792969 704.910156 626.484375 C 706.453125 626.175781 707.988281 625.832031 709.515625 625.445312 C 711.046875 625.0625 712.5625 624.640625 714.070312 624.183594 C 715.578125 623.722656 717.070312 623.230469 718.554688 622.695312 C 720.039062 622.164062 721.507812 621.597656 722.960938 620.992188 C 724.417969 620.390625 725.855469 619.75 727.28125 619.078125 C 728.703125 618.402344 730.109375 617.695312 731.5 616.949219 C 732.886719 616.207031 734.257812 615.429688 735.609375 614.621094 C 736.960938 613.808594 738.289062 612.964844 739.601562 612.089844 C 740.910156 611.214844 742.195312 610.308594 743.460938 609.367188 C 744.726562 608.429688 745.96875 607.460938 747.1875 606.460938 C 748.402344 605.460938 749.597656 604.433594 750.761719 603.375 C 751.929688 602.316406 753.070312 601.230469 754.183594 600.117188 C 755.296875 599.003906 756.386719 597.863281 757.441406 596.695312 C 758.5 595.527344 759.53125 594.335938 760.53125 593.117188 C 761.527344 591.902344 762.5 590.660156 763.4375 589.394531 C 764.375 588.128906 765.28125 586.839844 766.160156 585.53125 C 767.035156 584.222656 767.878906 582.890625 768.6875 581.542969 C 769.496094 580.191406 770.273438 578.820312 771.019531 577.429688 C 771.761719 576.042969 772.46875 574.636719 773.144531 573.210938 C 773.820312 571.789062 774.457031 570.347656 775.0625 568.894531 C 775.664062 567.4375 776.234375 565.96875 776.765625 564.488281 C 777.296875 563.003906 777.792969 561.507812 778.25 560.003906 C 778.707031 558.496094 779.128906 556.976562 779.515625 555.449219 C 779.898438 553.921875 780.246094 552.386719 780.554688 550.839844 C 780.863281 549.296875 781.132812 547.746094 781.367188 546.1875 C 781.597656 544.628906 781.792969 543.066406 781.949219 541.496094 C 782.105469 539.929688 782.222656 538.359375 782.300781 536.785156 C 782.382812 535.214844 782.421875 533.640625 782.421875 532.0625 L 782.421875 230.089844 C 782.371094 226.945312 782.171875 223.808594 781.820312 220.683594 C 781.472656 217.554688 780.980469 214.453125 780.339844 211.371094 C 779.699219 208.292969 778.914062 205.25 777.984375 202.242188 C 777.058594 199.238281 775.992188 196.28125 774.785156 193.375 C 773.578125 190.46875 772.238281 187.628906 770.765625 184.847656 C 769.292969 182.070312 767.691406 179.363281 765.960938 176.738281 C 764.234375 174.109375 762.382812 171.566406 760.414062 169.113281 C 758.449219 166.660156 756.367188 164.300781 754.179688 162.042969 Z M 716.664062 178.992188 L 647.613281 178.992188 C 646.984375 178.988281 646.355469 178.957031 645.726562 178.894531 C 645.101562 178.832031 644.476562 178.738281 643.859375 178.617188 C 643.242188 178.492188 642.628906 178.335938 642.027344 178.152344 C 641.425781 177.96875 640.832031 177.757812 640.25 177.515625 C 639.667969 177.273438 639.097656 177.003906 638.542969 176.707031 C 637.988281 176.410156 637.445312 176.085938 636.921875 175.734375 C 636.398438 175.382812 635.894531 175.007812 635.40625 174.609375 C 634.917969 174.207031 634.453125 173.785156 634.007812 173.339844 C 633.5625 172.894531 633.136719 172.429688 632.738281 171.941406 C 632.339844 171.453125 631.960938 170.949219 631.613281 170.425781 C 631.261719 169.898438 630.9375 169.359375 630.640625 168.804688 C 630.34375 168.25 630.074219 167.679688 629.832031 167.097656 C 629.589844 166.515625 629.375 165.921875 629.191406 165.320312 C 629.007812 164.714844 628.855469 164.105469 628.730469 163.488281 C 628.609375 162.871094 628.515625 162.246094 628.453125 161.621094 C 628.390625 160.992188 628.355469 160.363281 628.355469 159.734375 L 628.355469 90.660156 Z M 487.125 686.132812 C 487.125 688.023438 487.027344 689.910156 486.839844 691.792969 C 486.652344 693.671875 486.375 695.542969 486.003906 697.398438 C 485.632812 699.25 485.171875 701.082031 484.621094 702.894531 C 484.070312 704.703125 483.433594 706.480469 482.707031 708.230469 C 481.984375 709.976562 481.175781 711.683594 480.28125 713.351562 C 479.390625 715.019531 478.417969 716.636719 477.367188 718.210938 C 476.3125 719.78125 475.1875 721.300781 473.988281 722.761719 C 472.789062 724.222656 471.519531 725.625 470.183594 726.960938 C 468.84375 728.300781 467.445312 729.566406 465.984375 730.769531 C 464.519531 731.96875 463.003906 733.09375 461.429688 734.144531 C 459.859375 735.195312 458.238281 736.167969 456.570312 737.0625 C 454.902344 737.953125 453.195312 738.761719 451.449219 739.488281 C 449.703125 740.210938 447.921875 740.851562 446.113281 741.402344 C 444.304688 741.953125 442.472656 742.414062 440.617188 742.785156 C 438.761719 743.15625 436.894531 743.433594 435.011719 743.621094 C 433.128906 743.808594 431.242188 743.902344 429.351562 743.90625 L 121.214844 743.90625 C 119.324219 743.902344 117.4375 743.808594 115.554688 743.621094 C 113.671875 743.433594 111.804688 743.15625 109.949219 742.785156 C 108.09375 742.414062 106.261719 741.953125 104.453125 741.402344 C 102.644531 740.851562 100.867188 740.210938 99.117188 739.488281 C 97.371094 738.761719 95.664062 737.953125 93.996094 737.0625 C 92.328125 736.167969 90.707031 735.195312 89.136719 734.144531 C 87.5625 733.09375 86.046875 731.96875 84.585938 730.769531 C 83.125 729.566406 81.722656 728.300781 80.386719 726.960938 C 79.046875 725.625 77.78125 724.222656 76.578125 722.761719 C 75.378906 721.300781 74.253906 719.78125 73.203125 718.210938 C 72.152344 716.636719 71.179688 715.019531 70.285156 713.351562 C 69.394531 711.683594 68.585938 709.976562 67.859375 708.230469 C 67.132812 706.480469 66.496094 704.703125 65.945312 702.894531 C 65.394531 701.085938 64.933594 699.253906 64.5625 697.398438 C 64.191406 695.542969 63.914062 693.671875 63.726562 691.792969 C 63.539062 689.910156 63.441406 688.023438 63.441406 686.132812 L 63.441406 275.285156 C 63.441406 273.390625 63.539062 271.503906 63.726562 269.625 C 63.914062 267.742188 64.191406 265.871094 64.5625 264.019531 C 64.933594 262.164062 65.394531 260.332031 65.945312 258.519531 C 66.496094 256.710938 67.132812 254.933594 67.859375 253.1875 C 68.585938 251.4375 69.394531 249.730469 70.285156 248.0625 C 71.179688 246.398438 72.152344 244.777344 73.203125 243.203125 C 74.253906 241.632812 75.378906 240.113281 76.578125 238.652344 C 77.78125 237.191406 79.046875 235.792969 80.386719 234.453125 C 81.722656 233.117188 83.125 231.847656 84.585938 230.648438 C 86.046875 229.445312 87.5625 228.320312 89.136719 227.269531 C 90.707031 226.21875 92.328125 225.246094 93.996094 224.355469 C 95.664062 223.460938 97.371094 222.652344 99.117188 221.925781 C 100.867188 221.203125 102.644531 220.566406 104.453125 220.015625 C 106.261719 219.464844 108.09375 219.003906 109.949219 218.632812 C 111.804688 218.261719 113.671875 217.980469 115.554688 217.792969 C 117.4375 217.605469 119.324219 217.511719 121.214844 217.507812 L 320.476562 217.507812 C 324.730469 217.507812 328.921875 217.996094 333.058594 218.980469 L 333.058594 313.800781 C 333.0625 315.691406 333.15625 317.578125 333.34375 319.460938 C 333.53125 321.34375 333.8125 323.210938 334.183594 325.066406 C 334.554688 326.921875 335.015625 328.753906 335.566406 330.5625 C 336.117188 332.371094 336.753906 334.152344 337.476562 335.898438 C 338.203125 337.644531 339.011719 339.351562 339.90625 341.019531 C 340.796875 342.6875 341.769531 344.308594 342.820312 345.878906 C 343.871094 347.453125 344.996094 348.96875 346.199219 350.433594 C 347.398438 351.894531 348.667969 353.292969 350.003906 354.632812 C 351.34375 355.96875 352.742188 357.238281 354.203125 358.4375 C 355.664062 359.636719 357.183594 360.761719 358.753906 361.816406 C 360.328125 362.867188 361.949219 363.839844 363.613281 364.730469 C 365.28125 365.625 366.988281 366.433594 368.738281 367.15625 C 370.484375 367.882812 372.261719 368.519531 374.070312 369.070312 C 375.882812 369.621094 377.714844 370.082031 379.570312 370.453125 C 381.421875 370.824219 383.292969 371.101562 385.175781 371.289062 C 387.054688 371.476562 388.941406 371.574219 390.835938 371.574219 L 485.722656 371.574219 C 486.652344 375.71875 487.121094 379.914062 487.128906 384.160156 Z M 371.574219 244.738281 L 459.910156 333.058594 L 390.835938 333.058594 C 390.203125 333.058594 389.574219 333.027344 388.949219 332.964844 C 388.320312 332.898438 387.699219 332.808594 387.078125 332.683594 C 386.460938 332.558594 385.851562 332.40625 385.25 332.222656 C 384.644531 332.039062 384.050781 331.824219 383.46875 331.582031 C 382.886719 331.34375 382.320312 331.070312 381.761719 330.773438 C 381.207031 330.476562 380.667969 330.152344 380.144531 329.800781 C 379.621094 329.453125 379.113281 329.078125 378.625 328.675781 C 378.140625 328.277344 377.671875 327.855469 377.226562 327.40625 C 376.78125 326.960938 376.359375 326.496094 375.957031 326.007812 C 375.558594 325.519531 375.183594 325.015625 374.832031 324.492188 C 374.480469 323.96875 374.15625 323.425781 373.859375 322.871094 C 373.5625 322.316406 373.292969 321.746094 373.050781 321.164062 C 372.808594 320.582031 372.597656 319.988281 372.414062 319.386719 C 372.230469 318.785156 372.074219 318.171875 371.953125 317.554688 C 371.828125 316.9375 371.734375 316.3125 371.671875 315.6875 C 371.609375 315.058594 371.578125 314.429688 371.574219 313.800781 Z M 743.90625 532.0625 C 743.902344 533.953125 743.808594 535.839844 743.621094 537.722656 C 743.433594 539.605469 743.152344 541.472656 742.785156 543.328125 C 742.414062 545.183594 741.953125 547.015625 741.402344 548.824219 C 740.851562 550.636719 740.210938 552.414062 739.488281 554.160156 C 738.761719 555.90625 737.953125 557.613281 737.0625 559.28125 C 736.167969 560.949219 735.195312 562.570312 734.144531 564.144531 C 733.09375 565.714844 731.96875 567.230469 730.769531 568.695312 C 729.566406 570.15625 728.296875 571.554688 726.960938 572.894531 C 725.625 574.230469 724.222656 575.5 722.761719 576.699219 C 721.300781 577.898438 719.78125 579.027344 718.210938 580.078125 C 716.636719 581.128906 715.019531 582.101562 713.351562 582.992188 C 711.683594 583.886719 709.976562 584.695312 708.230469 585.417969 C 706.480469 586.144531 704.703125 586.78125 702.894531 587.332031 C 701.082031 587.882812 699.25 588.34375 697.398438 588.714844 C 695.542969 589.085938 693.671875 589.367188 691.792969 589.554688 C 689.910156 589.742188 688.023438 589.835938 686.132812 589.839844 L 525.644531 589.839844 L 525.644531 499.964844 L 557.742188 499.964844 C 558.371094 499.964844 559 499.933594 559.628906 499.875 C 560.257812 499.8125 560.878906 499.71875 561.5 499.597656 C 562.117188 499.472656 562.726562 499.320312 563.332031 499.136719 C 563.933594 498.953125 564.527344 498.742188 565.109375 498.5 C 565.695312 498.257812 566.261719 497.988281 566.820312 497.691406 C 567.375 497.394531 567.917969 497.070312 568.441406 496.71875 C 568.964844 496.371094 569.472656 495.996094 569.957031 495.59375 C 570.445312 495.195312 570.914062 494.769531 571.359375 494.324219 C 571.804688 493.878906 572.226562 493.414062 572.628906 492.925781 C 573.027344 492.4375 573.402344 491.929688 573.753906 491.40625 C 574.105469 490.882812 574.429688 490.34375 574.726562 489.785156 C 575.023438 489.230469 575.292969 488.660156 575.535156 488.078125 C 575.773438 487.496094 575.988281 486.902344 576.171875 486.296875 C 576.355469 485.695312 576.507812 485.082031 576.628906 484.464844 C 576.753906 483.847656 576.84375 483.222656 576.90625 482.59375 C 576.96875 481.96875 577 481.339844 577 480.707031 C 577 480.078125 576.96875 479.449219 576.90625 478.820312 C 576.84375 478.191406 576.753906 477.570312 576.628906 476.949219 C 576.507812 476.332031 576.355469 475.71875 576.171875 475.117188 C 575.988281 474.511719 575.773438 473.921875 575.535156 473.335938 C 575.292969 472.753906 575.023438 472.183594 574.726562 471.628906 C 574.429688 471.074219 574.105469 470.53125 573.753906 470.007812 C 573.402344 469.484375 573.027344 468.976562 572.628906 468.488281 C 572.226562 468.003906 571.804688 467.535156 571.359375 467.089844 C 570.914062 466.644531 570.445312 466.21875 569.957031 465.820312 C 569.472656 465.421875 568.964844 465.046875 568.441406 464.695312 C 567.917969 464.34375 567.375 464.019531 566.820312 463.722656 C 566.261719 463.425781 565.695312 463.15625 565.109375 462.914062 C 564.527344 462.671875 563.933594 462.460938 563.332031 462.277344 C 562.726562 462.09375 562.117188 461.941406 561.5 461.820312 C 560.878906 461.695312 560.257812 461.605469 559.628906 461.542969 C 559 461.480469 558.371094 461.449219 557.742188 461.449219 L 525.644531 461.449219 L 525.644531 397.253906 L 660.453125 397.253906 C 661.082031 397.253906 661.714844 397.222656 662.339844 397.160156 C 662.96875 397.097656 663.589844 397.007812 664.210938 396.882812 C 664.828125 396.761719 665.441406 396.609375 666.042969 396.425781 C 666.648438 396.242188 667.242188 396.03125 667.824219 395.789062 C 668.40625 395.546875 668.976562 395.277344 669.53125 394.980469 C 670.085938 394.683594 670.628906 394.359375 671.152344 394.007812 C 671.675781 393.65625 672.183594 393.28125 672.671875 392.882812 C 673.15625 392.484375 673.625 392.058594 674.070312 391.613281 C 674.515625 391.167969 674.941406 390.699219 675.339844 390.214844 C 675.742188 389.726562 676.117188 389.21875 676.464844 388.695312 C 676.816406 388.171875 677.140625 387.628906 677.4375 387.074219 C 677.734375 386.519531 678.003906 385.949219 678.246094 385.367188 C 678.488281 384.78125 678.699219 384.191406 678.882812 383.585938 C 679.066406 382.984375 679.21875 382.371094 679.339844 381.753906 C 679.464844 381.132812 679.558594 380.511719 679.617188 379.882812 C 679.679688 379.253906 679.710938 378.625 679.710938 377.996094 C 679.710938 377.363281 679.679688 376.734375 679.617188 376.109375 C 679.558594 375.480469 679.464844 374.855469 679.339844 374.238281 C 679.21875 373.621094 679.066406 373.007812 678.882812 372.40625 C 678.699219 371.800781 678.488281 371.207031 678.246094 370.625 C 678.003906 370.042969 677.734375 369.472656 677.4375 368.917969 C 677.140625 368.359375 676.816406 367.820312 676.464844 367.296875 C 676.117188 366.773438 675.738281 366.265625 675.339844 365.777344 C 674.941406 365.289062 674.515625 364.824219 674.070312 364.378906 C 673.625 363.933594 673.15625 363.507812 672.671875 363.109375 C 672.183594 362.707031 671.675781 362.332031 671.152344 361.984375 C 670.628906 361.632812 670.085938 361.308594 669.53125 361.011719 C 668.976562 360.714844 668.40625 360.445312 667.824219 360.203125 C 667.242188 359.960938 666.648438 359.75 666.042969 359.566406 C 665.441406 359.382812 664.828125 359.230469 664.210938 359.105469 C 663.589844 358.984375 662.96875 358.890625 662.339844 358.828125 C 661.714844 358.769531 661.082031 358.738281 660.453125 358.738281 L 521.792969 358.738281 C 520.554688 353.738281 518.917969 348.875 516.886719 344.140625 C 512.027344 333.660156 505.53125 324.316406 497.398438 316.113281 L 388.523438 207.238281 C 386.257812 205.039062 383.894531 202.953125 381.429688 200.980469 C 378.96875 199.003906 376.417969 197.152344 373.777344 195.417969 C 371.140625 193.683594 368.425781 192.082031 365.636719 190.605469 C 362.84375 189.128906 359.992188 187.785156 357.074219 186.582031 C 354.15625 185.375 351.1875 184.308594 348.171875 183.382812 C 345.152344 182.457031 342.097656 181.675781 339.007812 181.039062 C 335.914062 180.402344 332.800781 179.914062 329.660156 179.570312 C 326.523438 179.230469 323.375 179.035156 320.21875 178.992188 L 320.21875 121.214844 C 320.222656 119.324219 320.316406 117.4375 320.503906 115.554688 C 320.691406 113.671875 320.972656 111.804688 321.34375 109.949219 C 321.714844 108.09375 322.175781 106.261719 322.726562 104.453125 C 323.277344 102.644531 323.914062 100.867188 324.640625 99.117188 C 325.363281 97.371094 326.171875 95.664062 327.066406 93.996094 C 327.957031 92.328125 328.929688 90.707031 329.980469 89.136719 C 331.03125 87.5625 332.160156 86.046875 333.359375 84.585938 C 334.558594 83.125 335.828125 81.722656 337.164062 80.386719 C 338.503906 79.046875 339.902344 77.78125 341.363281 76.578125 C 342.828125 75.378906 344.34375 74.253906 345.917969 73.203125 C 347.488281 72.152344 349.109375 71.179688 350.777344 70.285156 C 352.445312 69.394531 354.152344 68.585938 355.898438 67.859375 C 357.644531 67.132812 359.421875 66.496094 361.234375 65.945312 C 363.042969 65.394531 364.875 64.933594 366.730469 64.5625 C 368.585938 64.191406 370.453125 63.914062 372.335938 63.726562 C 374.21875 63.539062 376.105469 63.441406 377.996094 63.441406 L 577.257812 63.441406 C 581.507812 63.4375 585.703125 63.929688 589.839844 64.910156 L 589.839844 159.734375 C 589.839844 161.625 589.9375 163.511719 590.125 165.394531 C 590.3125 167.277344 590.589844 169.144531 590.960938 171 C 591.332031 172.855469 591.792969 174.6875 592.34375 176.496094 C 592.894531 178.304688 593.53125 180.082031 594.257812 181.832031 C 594.984375 183.578125 595.792969 185.285156 596.683594 186.953125 C 597.578125 188.621094 598.546875 190.238281 599.601562 191.8125 C 600.652344 193.386719 601.777344 194.902344 602.976562 196.363281 C 604.175781 197.824219 605.445312 199.226562 606.785156 200.5625 C 608.121094 201.902344 609.519531 203.167969 610.984375 204.371094 C 612.445312 205.570312 613.960938 206.695312 615.535156 207.746094 C 617.105469 208.796875 618.726562 209.769531 620.394531 210.664062 C 622.0625 211.554688 623.769531 212.363281 625.515625 213.089844 C 627.265625 213.8125 629.042969 214.453125 630.851562 215.003906 C 632.660156 215.554688 634.492188 216.015625 636.347656 216.386719 C 638.203125 216.757812 640.070312 217.035156 641.953125 217.222656 C 643.835938 217.410156 645.722656 217.503906 647.613281 217.507812 L 742.503906 217.507812 C 743.433594 221.652344 743.902344 225.84375 743.90625 230.089844 Z M 743.90625 532.0625 " fill-opacity="1" fill-rule="nonzero"/></g></svg>