<svg xmlns="http://www.w3.org/2000/svg" xmlns:xlink="http://www.w3.org/1999/xlink" width="1080" zoomAndPan="magnify" viewBox="0 0 810 809.999993" height="1080" preserveAspectRatio="xMidYMid meet" version="1.0"><path fill="#ffffff" d="M 528.824219 567.273438 L 420.660156 459.113281 C 416.707031 455.160156 412.039062 454.441406 409.523438 454.441406 C 407.007812 454.441406 402.335938 455.160156 398.382812 459.113281 L 289.859375 567.632812 C 277.640625 579.851562 258.597656 599.613281 194.992188 599.613281 L 328.308594 732.574219 C 370.351562 774.617188 438.628906 774.617188 480.671875 732.574219 L 614.347656 599.257812 C 581.648438 599.257812 554.335938 592.789062 528.824219 567.273438 Z M 528.824219 567.273438 " fill-opacity="1" fill-rule="nonzero"/><path fill="#ffffff" d="M 289.859375 242.066406 L 398.382812 350.589844 C 401.257812 353.464844 405.570312 355.261719 409.523438 355.261719 C 413.476562 355.261719 417.785156 353.464844 420.660156 350.589844 L 528.105469 243.144531 C 553.617188 216.554688 582.726562 210.445312 615.425781 210.445312 L 481.75 77.128906 C 439.707031 35.085938 371.429688 35.085938 329.386719 77.128906 L 196.070312 210.085938 C 259.316406 210.085938 278.71875 230.925781 289.859375 242.066406 Z M 289.859375 242.066406 " fill-opacity="1" fill-rule="nonzero"/><path fill="#ffffff" d="M 732.214844 327.589844 L 651.359375 246.378906 L 606.082031 246.378906 C 586.679688 246.378906 567.273438 254.285156 553.976562 268.300781 L 446.175781 376.101562 C 436.113281 386.164062 422.816406 391.195312 409.523438 391.195312 C 396.585938 391.195312 382.929688 385.804688 372.867188 376.101562 L 264.347656 267.222656 C 250.691406 253.566406 232.003906 245.660156 212.242188 245.660156 L 159.417969 245.660156 L 77.128906 328.308594 C 35.085938 370.351562 35.085938 438.628906 77.128906 480.671875 L 159.417969 563.320312 L 212.601562 563.320312 C 232.003906 563.320312 250.691406 555.414062 264.707031 541.761719 L 373.226562 433.238281 C 383.289062 423.175781 396.585938 418.144531 409.882812 418.144531 C 423.175781 418.144531 436.472656 423.175781 446.535156 433.238281 L 554.695312 541.402344 C 568.351562 555.054688 587.039062 562.960938 606.800781 562.960938 L 652.078125 562.960938 L 732.933594 481.75 C 774.976562 439.347656 774.976562 370.351562 732.214844 327.589844 Z M 732.214844 327.589844 " fill-opacity="1" fill-rule="nonzero"/></svg>